<svg viewBox="0 0 35 35" xmlns="http://www.w3.org/2000/svg" xmlns:xlink="http://www.w3.org/1999/xlink" width="35.000000" height="35.000000" fill="none">
	<rect id="Frame 1000002775" width="35.000000" height="35.000000" x="0.000000" y="0.000000" fill="rgb(255,255,255)" fill-opacity="0" />
	<path id="Vector (Stroke)" d="M33.4443 2.38181C33.7968 2.68793 34 3.13753 34 3.61112L34 6.83334C34 7.72313 33.2964 8.44445 32.4286 8.44445C31.5607 8.44445 30.8571 7.72313 30.8571 6.83334L30.8571 5.51297L9.16788 9.21914L11.1313 10.2257C11.6637 10.4986 12 11.0564 12 11.6667L12 16.5L15.1429 16.5L15.1429 10.0556C15.1429 9.16577 15.8464 8.44445 16.7143 8.44445L23 8.44445C25.5006 8.44445 27.8988 9.4629 29.667 11.2758C31.4352 13.0886 32.4286 15.5474 32.4286 18.1111L32.4286 27.7778C32.4286 28.6676 31.725 29.3889 30.8571 29.3889L28.0853 29.3889C28.0271 29.4556 27.967 29.5208 27.9049 29.5844C27.0208 30.4908 25.8217 31 24.5714 31C23.3211 31 22.122 30.4908 21.2379 29.5844C21.1759 29.5208 21.1158 29.4556 21.0576 29.3889L9.22812 29.3889C9.16994 29.4556 9.10982 29.5208 9.04779 29.5844C8.16369 30.4908 6.96459 31 5.71429 31C4.46398 31 3.26488 30.4908 2.38078 29.5844C1.49668 28.6779 1 27.4485 1 26.1667L1 18.1111C1 17.2213 1.70355 16.5 2.57143 16.5L2.57143 8.44445C2.57143 7.65688 3.12679 6.98474 3.88452 6.85526L32.1702 2.02193C32.6259 1.94408 33.0918 2.0757 33.4443 2.38181ZM4.14286 19.7222L4.14286 21.6098C4.64289 21.4285 5.1738 21.3333 5.71429 21.3333C6.96459 21.3333 8.16369 21.8426 9.04779 22.749C9.93189 23.6554 10.4286 24.8848 10.4286 26.1667L15.1429 26.1667L15.1429 19.7222L4.14286 19.7222ZM8.85714 16.5L5.71429 16.5L5.71429 11.0513L8.85714 12.6624L8.85714 16.5ZM18.2857 26.1667L19.8571 26.1667C19.8571 24.8848 20.3538 23.6554 21.2379 22.749C22.122 21.8426 23.3211 21.3333 24.5714 21.3333C25.8217 21.3333 27.0208 21.8426 27.9049 22.749C28.789 23.6554 29.2857 24.8848 29.2857 26.1667L29.2857 19.7222L23.7857 19.7222C23.0918 19.7222 22.48 19.2555 22.2806 18.5741L20.2594 11.6667L18.2857 11.6667L18.2857 26.1667ZM23.5478 11.6912L24.9549 16.5L29.0861 16.5C28.8078 15.3947 28.2454 14.3751 27.4447 13.5542C26.3957 12.4787 25.0141 11.8226 23.5478 11.6912ZM4.14286 26.1667C4.14286 26.594 4.30842 27.0038 4.60312 27.3059C4.89782 27.608 5.29752 27.7778 5.71429 27.7778C6.13105 27.7778 6.53075 27.608 6.82545 27.3059C7.12015 27.0038 7.28571 26.594 7.28571 26.1667C7.28571 25.7394 7.12015 25.3296 6.82545 25.0274C6.53075 24.7253 6.13105 24.5556 5.71429 24.5556C5.29752 24.5556 4.89782 24.7253 4.60312 25.0274C4.30842 25.3296 4.14286 25.7394 4.14286 26.1667ZM24.5714 24.5556C24.1547 24.5556 23.755 24.7253 23.4603 25.0274C23.1656 25.3296 23 25.7394 23 26.1667C23 26.594 23.1656 27.0038 23.4603 27.3059C23.755 27.608 24.1547 27.7778 24.5714 27.7778C24.9882 27.7778 25.3879 27.608 25.6826 27.3059C25.9773 27.0038 26.1429 26.594 26.1429 26.1667C26.1429 25.7394 25.9773 25.3296 25.6826 25.0274C25.3879 24.7253 24.9882 24.5556 24.5714 24.5556Z" fill="rgb(254,254,254)" fill-rule="evenodd" />
</svg>
