<svg width="24.000000" height="24.000000" viewBox="0 0 24 24" fill="none" xmlns="http://www.w3.org/2000/svg" xmlns:xlink="http://www.w3.org/1999/xlink">
	<desc>
			Created with Pixso.
	</desc>
	<defs>
		<clipPath id="clip27_47">
			<rect id="arrow-right" width="24.000000" height="24.000000" fill="white" fill-opacity="0"/>
		</clipPath>
	</defs>
	<rect id="arrow-right" width="24.000000" height="24.000000" fill="#FFFFFF" fill-opacity="0"/>
	<g clip-path="url(#clip27_47)">
		<path id="Vector (Stroke)" d="M4 12C4 11.44 4.44 11 5 11L19 11C19.55 11 20 11.44 20 12C20 12.55 19.55 13 19 13L5 13C4.44 13 4 12.55 4 12Z" fill="#FEFEFE" fill-opacity="1.000000" fill-rule="evenodd"/>
		<path id="Vector (Stroke)" d="M11.29 4.29C11.68 3.9 12.31 3.9 12.7 4.29L19.7 11.29C20.09 11.68 20.09 12.31 19.7 12.7L12.7 19.7C12.31 20.09 11.68 20.09 11.29 19.7C10.9 19.31 10.9 18.68 11.29 18.29L17.58 12L11.29 5.7C10.9 5.31 10.9 4.68 11.29 4.29Z" fill="#FEFEFE" fill-opacity="1.000000" fill-rule="evenodd"/>
	</g>
</svg>
