<svg width="28.000000" height="28.000000" viewBox="0 0 28 28" fill="none" xmlns="http://www.w3.org/2000/svg" xmlns:xlink="http://www.w3.org/1999/xlink">
	<desc>
			Created with Pixso.
	</desc>
	<defs/>
	<path id="Vector (Stroke)" d="M27.2 0.68C28.11 1.59 28.11 3.07 27.2 3.98L3.93 27.31C3.02 28.22 1.55 28.22 0.64 27.31C-0.27 26.4 -0.27 24.92 0.64 24.01L23.91 0.68C24.81 -0.23 26.29 -0.23 27.2 0.68Z" fill="#151515" fill-opacity="1.000000" fill-rule="evenodd"/>
	<path id="Vector (Stroke)" d="M-0.04 2.33C-0.04 1.04 1 0 2.28 0L25.55 0C26.84 0 27.88 1.04 27.88 2.33L27.88 25.66C27.88 26.95 26.84 28 25.55 28C24.27 28 23.22 26.95 23.22 25.66L23.22 4.66L2.28 4.66C1 4.66 -0.04 3.62 -0.04 2.33Z" fill="#151515" fill-opacity="1.000000" fill-rule="evenodd"/>
</svg>
