<svg viewBox="0 0 16 16" xmlns="http://www.w3.org/2000/svg" xmlns:xlink="http://www.w3.org/1999/xlink" width="16.000000" height="16.000000" fill="none">
	<rect id="tractor-solid-svgrepo-com 2" width="16.000000" height="16.000000" x="0.000000" y="0.000000" fill="rgb(255,255,255)" fill-opacity="0" />
	<path id="Vector" d="M2.46154 1L2.46154 5.61364C1.63221 5.80753 0.872596 6.17543 0.230769 6.70739L1 7.7017C1.73798 7.0902 2.67067 6.72727 3.69231 6.72727C6.07933 6.72727 8 8.71342 8 11.1818L10.8077 11.1818C10.5938 11.5597 10.4615 11.9872 10.4615 12.4545C10.4615 13.854 11.5697 15 12.9231 15C14.2764 15 15.3846 13.854 15.3846 12.4545C15.3846 11.8008 15.1274 11.2166 14.7308 10.7642L15.9615 7.60227L16 7.48295L16 6.09091L12.9231 6.09091L12.9231 4.18182C12.9231 3.82138 13.1899 3.54545 13.5385 3.54545L13.5385 2.27273C12.5264 2.27273 11.6923 3.1353 11.6923 4.18182L11.6923 6.09091L9.65385 6.09091L7.96154 1.41761L7.80769 1L2.46154 1ZM3.69231 2.27273L6.96154 2.27273L8.65385 6.94602L8.80769 7.36364L14.7115 7.36364L13.7308 9.90909L9.07692 9.90909C8.51202 7.36612 6.31971 5.45455 3.69231 5.45455L3.69231 2.27273ZM3.69231 7.36364C1.66106 7.36364 0 9.08132 0 11.1818C0 13.2823 1.66106 15 3.69231 15C5.72356 15 7.38462 13.2823 7.38462 11.1818C7.38462 9.08132 5.72356 7.36364 3.69231 7.36364ZM3.69231 8.63636C5.0601 8.63636 6.15385 9.7674 6.15385 11.1818C6.15385 12.5962 5.0601 13.7273 3.69231 13.7273C2.32452 13.7273 1.23077 12.5962 1.23077 11.1818C1.23077 9.7674 2.32452 8.63636 3.69231 8.63636ZM3.69231 9.90909C3.01202 9.90909 2.46154 10.4783 2.46154 11.1818C2.46154 11.8853 3.01202 12.4545 3.69231 12.4545C4.3726 12.4545 4.92308 11.8853 4.92308 11.1818C4.92308 10.4783 4.3726 9.90909 3.69231 9.90909ZM12.9231 11.1818C13.6106 11.1818 14.1538 11.7436 14.1538 12.4545C14.1538 13.1655 13.6106 13.7273 12.9231 13.7273C12.2356 13.7273 11.6923 13.1655 11.6923 12.4545C11.6923 11.7436 12.2356 11.1818 12.9231 11.1818Z" fill="rgb(254,254,254)" fill-rule="nonzero" />
</svg>
