<svg viewBox="0 0 16 16" xmlns="http://www.w3.org/2000/svg" xmlns:xlink="http://www.w3.org/1999/xlink" width="16.000000" height="16.000000" fill="none">
	<rect id="Car" width="16.000000" height="16.000000" x="0.000000" y="0.000000" />
	<path id="Vector" d="M3.29688 3C2.62891 3 2.01172 3.36738 1.64062 3.97969L0.25 6.26562C0.0859375 6.53633 0 6.85 0 7.17656L0 10.8203C0 11.323 0.30664 11.7635 0.75 11.8859L2.04688 12.2469C2.23438 13.2459 3.03906 14 4 14C4.92578 14 5.69922 13.2953 5.92187 12.35L10.5781 12.35C10.8008 13.2953 11.5742 14 12.5 14C13.4258 14 14.1992 13.2953 14.4219 12.35L15 12.35C15.5469 12.35 16 11.8516 16 11.25L16 9.23906C16 8.23145 15.373 7.35059 14.4844 7.10781L11.7812 6.35156L9.82812 3.79063C9.44726 3.29004 8.89062 3 8.29688 3L3.29688 3ZM3.29688 4.1L5.5 4.1L5.5 6.3L1.4375 6.3L2.46875 4.59844L2.46875 4.58125C2.6543 4.27402 2.96094 4.1 3.29688 4.1ZM6.5 4.1L8.29688 4.1C8.59375 4.1 8.87305 4.24395 9.0625 4.49531L10.4375 6.3L6.5 6.3L6.5 4.1ZM1 7.4L11.4375 7.4L14.25 8.17344C14.6973 8.2959 15 8.73203 15 9.23906L15 11.25L14.4219 11.25C14.1992 10.3047 13.4258 9.6 12.5 9.6C11.5742 9.6 10.8008 10.3047 10.5781 11.25L5.92187 11.25C5.69922 10.3047 4.92578 9.6 4 9.6C3.11328 9.6 2.36914 10.2445 2.10938 11.1297L1 10.8203L1 7.4ZM4 10.7C4.55859 10.7 5 11.1855 5 11.8C5 12.4145 4.55859 12.9 4 12.9C3.44141 12.9 3 12.4145 3 11.8C3 11.1855 3.44141 10.7 4 10.7ZM12.5 10.7C13.0586 10.7 13.5 11.1855 13.5 11.8C13.5 12.4145 13.0586 12.9 12.5 12.9C11.9414 12.9 11.5 12.4145 11.5 11.8C11.5 11.1855 11.9414 10.7 12.5 10.7Z" fill="rgb(254,254,254)" fill-rule="nonzero" />
</svg>
