<svg viewBox="0 0 16 16" xmlns="http://www.w3.org/2000/svg" xmlns:xlink="http://www.w3.org/1999/xlink" width="16.000000" height="16.000000" fill="none">
	<rect id="box" width="16.000000" height="16.000000" x="0.000000" y="0.000000" fill="rgb(255,255,255)" fill-opacity="0" />
	<path id="Vector (Stroke)" d="M7.00013 0.935094C7.30382 0.760092 7.64817 0.667969 7.9987 0.667969C8.34923 0.667969 8.69361 0.7601 8.99731 0.935116C8.99777 0.935383 8.99823 0.93565 8.9987 0.935918L13.6654 3.60258C13.9691 3.77795 14.2214 4.0301 14.3969 4.33375C14.5724 4.63739 14.665 4.98186 14.6654 5.33258L14.6654 10.6673C14.665 11.018 14.5724 11.3625 14.3969 11.6661C14.2214 11.9698 13.9691 12.2219 13.6654 12.3973L13.6628 12.3988L8.9987 15.064C8.9983 15.0642 8.9979 15.0644 8.9975 15.0646C8.69375 15.2397 8.34931 15.3319 7.9987 15.3319C7.6481 15.3319 7.30367 15.2397 6.99993 15.0647C6.99952 15.0644 6.99911 15.0642 6.9987 15.064L2.3346 12.3988L2.33203 12.3973C2.02829 12.2219 1.77601 11.9698 1.60049 11.6661C1.42497 11.3625 1.33239 11.018 1.33203 10.6673L1.33203 5.33258C1.33239 4.98186 1.42497 4.63739 1.60049 4.33375C1.77601 4.0301 2.02829 3.77795 2.33203 3.60258L2.3346 3.6011L7.00013 0.935094ZM7.9987 2.0013C7.88167 2.0013 7.76671 2.03211 7.66536 2.09062L7.66279 2.0921L2.9987 4.75729C2.99835 4.75749 2.998 4.75769 2.99765 4.75789C2.89687 4.81632 2.81315 4.90014 2.75485 5.00101C2.69639 5.10214 2.66553 5.21685 2.66536 5.33366L2.66536 10.6662C2.66553 10.783 2.69639 10.8977 2.75485 10.9989C2.81315 11.0997 2.89687 11.1835 2.99765 11.242C2.998 11.2422 2.99835 11.2424 2.9987 11.2426L7.66537 13.9092C7.76671 13.9678 7.88167 13.9986 7.9987 13.9986C8.11572 13.9986 8.23068 13.9678 8.33203 13.9093L8.3346 13.9078L12.9987 11.2426C12.999 11.2424 12.9994 11.2422 12.9998 11.242C13.1005 11.1835 13.1842 11.0997 13.2425 10.9989C13.3011 10.8976 13.3319 10.7828 13.332 10.6659L13.332 5.33395C13.3319 5.21704 13.3011 5.10222 13.2425 5.00101C13.1842 4.90014 13.1005 4.81633 12.9998 4.7579C12.9994 4.75769 12.999 4.75749 12.9987 4.75729L8.33203 2.09062C8.23068 2.03211 8.11572 2.0013 7.9987 2.0013Z" fill="rgb(254,254,254)" fill-rule="evenodd" />
	<path id="Vector (Stroke)" d="M1.60142 4.30611C1.78579 3.9874 2.1936 3.87849 2.51231 4.06285L7.9985 7.23642L13.4847 4.06285C13.8034 3.87849 14.2112 3.9874 14.3956 4.30611C14.5799 4.62481 14.471 5.03263 14.1523 5.21699L8.33231 8.58366C8.1258 8.70312 7.87119 8.70312 7.66468 8.58366L1.84468 5.21699C1.52597 5.03263 1.41706 4.62481 1.60142 4.30611Z" fill="rgb(254,254,254)" fill-rule="evenodd" />
	<path id="Vector (Stroke)" d="M7.9987 7.3335C8.36689 7.3335 8.66537 7.63197 8.66537 8.00016L8.66537 14.7202C8.66537 15.0884 8.36689 15.3868 7.9987 15.3868C7.63051 15.3868 7.33203 15.0884 7.33203 14.7202L7.33203 8.00016C7.33203 7.63197 7.63051 7.3335 7.9987 7.3335Z" fill="rgb(254,254,254)" fill-rule="evenodd" />
</svg>
