<svg viewBox="0 0 16 16" xmlns="http://www.w3.org/2000/svg" xmlns:xlink="http://www.w3.org/1999/xlink" width="16.000000" height="16.000000" fill="none">
	<rect id="truck" width="16.000000" height="16.000000" x="0.000000" y="0.000000" fill="rgb(255,255,255)" fill-opacity="0" />
	<path id="Vector (Stroke)" d="M0 2.00016C0 1.63197 0.298477 1.3335 0.666667 1.3335L10.6667 1.3335C11.0349 1.3335 11.3333 1.63197 11.3333 2.00016L11.3333 10.6668C11.3333 11.035 11.0349 11.3335 10.6667 11.3335L0.666667 11.3335C0.298477 11.3335 0 11.035 0 10.6668L0 2.00016ZM1.33333 2.66683L1.33333 10.0002L10 10.0002L10 2.66683L1.33333 2.66683Z" fill="rgb(254,254,254)" fill-rule="evenodd" />
	<path id="Vector (Stroke)" d="M10 5.33317C10 4.96498 10.2985 4.6665 10.6667 4.6665L13.3333 4.6665C13.5101 4.6665 13.6797 4.73674 13.8047 4.86177L15.8047 6.86177C15.9298 6.98679 16 7.15636 16 7.33317L16 10.6665C16 11.0347 15.7015 11.3332 15.3333 11.3332L10.6667 11.3332C10.2985 11.3332 10 11.0347 10 10.6665L10 5.33317ZM11.3333 5.99984L11.3333 9.99984L14.6667 9.99984L14.6667 7.60931L13.0572 5.99984L11.3333 5.99984Z" fill="rgb(254,254,254)" fill-rule="evenodd" />
	<path id="Vector (Stroke)" d="M3.66536 11.3333C3.11308 11.3333 2.66536 11.781 2.66536 12.3333C2.66536 12.8856 3.11308 13.3333 3.66536 13.3333C4.21765 13.3333 4.66536 12.8856 4.66536 12.3333C4.66536 11.781 4.21765 11.3333 3.66536 11.3333ZM1.33203 12.3333C1.33203 11.0447 2.3767 10 3.66536 10C4.95403 10 5.9987 11.0447 5.9987 12.3333C5.9987 13.622 4.95403 14.6667 3.66536 14.6667C2.3767 14.6667 1.33203 13.622 1.33203 12.3333Z" fill="rgb(254,254,254)" fill-rule="evenodd" />
	<path id="Vector (Stroke)" d="M12.3333 11.3333C11.781 11.3333 11.3333 11.781 11.3333 12.3333C11.3333 12.8856 11.781 13.3333 12.3333 13.3333C12.8856 13.3333 13.3333 12.8856 13.3333 12.3333C13.3333 11.781 12.8856 11.3333 12.3333 11.3333ZM10 12.3333C10 11.0447 11.0447 10 12.3333 10C13.622 10 14.6667 11.0447 14.6667 12.3333C14.6667 13.622 13.622 14.6667 12.3333 14.6667C11.0447 14.6667 10 13.622 10 12.3333Z" fill="rgb(254,254,254)" fill-rule="evenodd" />
</svg>
