<svg viewBox="0 0 28 28" xmlns="http://www.w3.org/2000/svg" xmlns:xlink="http://www.w3.org/1999/xlink" width="28.000000" height="28.000000" fill="none">
	<rect id="tabler-icon-engine" width="28.000000" height="28.000000" x="0.000000" y="0.000000" fill="rgb(255,255,255)" fill-opacity="0" />
	<path id="Vector (Stroke)" d="M10.5007 5.83366C10.5007 5.18933 11.023 4.66699 11.6673 4.66699L16.334 4.66699C16.9783 4.66699 17.5007 5.18933 17.5007 5.83366C17.5007 6.47799 16.9783 7.00033 16.334 7.00033L15.1673 7.00033L15.1673 8.16699L15.613 8.16699C16.0462 8.16722 16.4714 8.28805 16.8398 8.51595C17.2083 8.74384 17.506 9.06981 17.6996 9.45733L19.3887 12.8331L19.834 12.8337L19.834 11.667C19.834 11.0227 20.3563 10.5003 21.0007 10.5003L23.334 10.5003C23.9528 10.5003 24.5463 10.7462 24.9839 11.1837C25.4215 11.6213 25.6673 12.2148 25.6673 12.8337L25.6673 19.8337C25.6673 20.4525 25.4215 21.046 24.9839 21.4836C24.5463 21.9212 23.9528 22.167 23.334 22.167L21.0007 22.167C20.3563 22.167 19.834 21.6447 19.834 21.0003L19.834 19.8337L18.6673 19.8337L18.6673 21.0003C18.6673 21.6192 18.4215 22.2127 17.9839 22.6502C17.5463 23.0878 16.9528 23.3337 16.334 23.3337L12.2917 23.3337C12.2916 23.3337 12.2917 23.3337 12.2917 23.3337C11.9077 23.3337 11.5294 23.2389 11.1908 23.0578C10.8522 22.8767 10.5635 22.6148 10.3503 22.2953L8.70954 19.8337L7.00065 19.8337C6.35632 19.8337 5.83398 19.3113 5.83398 18.667L5.83398 16.3337L4.66732 16.3337L4.66732 18.667C4.66732 19.3113 4.14498 19.8337 3.50065 19.8337C2.85632 19.8337 2.33398 19.3113 2.33398 18.667L2.33398 11.667C2.33398 11.0227 2.85632 10.5003 3.50065 10.5003C4.14498 10.5003 4.66732 11.0227 4.66732 11.667L4.66732 14.0003L5.83398 14.0003L5.83398 11.667C5.83398 11.0227 6.35632 10.5003 7.00065 10.5003L8.85074 10.5003L10.8424 8.5087C11.0612 8.28991 11.3579 8.16699 11.6673 8.16699L12.834 8.16699L12.834 7.00033L11.6673 7.00033C11.023 7.00033 10.5007 6.47799 10.5007 5.83366ZM12.1506 10.5003L10.1589 12.492C9.94015 12.7107 9.6434 12.8337 9.33398 12.8337L8.16732 12.8337L8.16732 17.5003L9.33398 17.5003C9.7241 17.5003 10.0884 17.6953 10.3048 18.0199L12.2913 21.0003L16.334 21.0003L16.334 18.667C16.334 18.0227 16.8563 17.5003 17.5007 17.5003L21.0007 17.5003C21.645 17.5003 22.1673 18.0227 22.1673 18.667L22.1673 19.8337L23.334 19.8337L23.334 12.8337L22.1673 12.8337L22.1673 14.0003C22.1673 14.6447 21.645 15.167 21.0007 15.167L19.3883 15.167C18.9551 15.1668 18.5299 15.0459 18.1615 14.818C17.793 14.5901 17.4953 14.2642 17.3017 13.8767L15.6126 10.5009L12.1506 10.5003Z" fill="rgb(254,254,254)" fill-rule="evenodd" />
</svg>
