<svg viewBox="0 0 28 28" xmlns="http://www.w3.org/2000/svg" xmlns:xlink="http://www.w3.org/1999/xlink" width="28.000000" height="28.000000" fill="none">
	<rect id="tabler-icon-wheel" width="28.000000" height="28.000000" x="0.000000" y="0.000000" fill="rgb(255,255,255)" fill-opacity="0" />
	<path id="Vector (Stroke)" d="M9.53601 3.22108C10.9515 2.63478 12.4686 2.33301 14.0007 2.33301C15.5327 2.33301 17.0498 2.63478 18.4653 3.22108C19.8808 3.80738 21.1669 4.66675 22.2502 5.7501C23.3336 6.83344 24.1929 8.11957 24.7792 9.53503C25.3655 10.9505 25.6673 12.4676 25.6673 13.9997C25.6673 15.5318 25.3655 17.0488 24.7792 18.4643C24.1929 19.8798 23.3336 21.1659 22.2502 22.2493C21.1669 23.3326 19.8808 24.192 18.4653 24.7783C17.0498 25.3646 15.5327 25.6663 14.0007 25.6663C12.4686 25.6663 10.9515 25.3646 9.53601 24.7783C8.12054 24.192 6.83442 23.3326 5.75107 22.2493C4.66772 21.1659 3.80836 19.8798 3.22206 18.4643C2.63575 17.0488 2.33398 15.5318 2.33398 13.9997C2.33398 12.4676 2.63575 10.9505 3.22206 9.53503C3.80836 8.11957 4.66772 6.83345 5.75107 5.7501C6.83442 4.66675 8.12055 3.80738 9.53601 3.22108ZM14.0007 4.66634C12.775 4.66634 11.5613 4.90775 10.4289 5.3768C10.2177 5.4643 10.01 5.55941 9.80636 5.66187L12.5667 9.55878C13.0258 9.41052 13.5092 9.33301 14.0007 9.33301C14.4926 9.33301 14.9766 9.41069 15.4361 9.55926L18.1963 5.66254C17.9922 5.55983 17.7841 5.4645 17.5724 5.3768C16.44 4.90775 15.2263 4.66634 14.0007 4.66634ZM20.1336 6.96423L17.4085 10.8115C17.9457 11.3857 18.3252 12.082 18.5191 12.833L23.2608 12.833C23.1569 12.0082 22.943 11.1992 22.6235 10.428C22.1545 9.29559 21.467 8.26669 20.6003 7.40001C20.4496 7.24926 20.2939 7.10393 20.1336 6.96423ZM23.2608 15.1663L18.5191 15.1663C18.3252 15.9173 17.9457 16.6137 17.4085 17.1878L20.1337 21.0351C20.2939 20.8954 20.4496 20.7501 20.6003 20.5993C21.467 19.7327 22.1545 18.7038 22.6235 17.5714C22.943 16.8001 23.1569 15.9911 23.2608 15.1663ZM18.1963 22.3368L15.4361 18.4401C14.9766 18.5887 14.4926 18.6663 14.0007 18.6663C13.5092 18.6663 13.0258 18.5888 12.5666 18.4406L9.80633 22.3375C10.01 22.4399 10.2177 22.535 10.4289 22.6226C11.5613 23.0916 12.775 23.333 14.0007 23.333C15.2263 23.333 16.44 23.0916 17.5724 22.6226C17.7841 22.5348 17.9922 22.4395 18.1963 22.3368ZM7.86876 21.0361L10.5938 17.1889C10.0561 16.6146 9.6762 15.9178 9.48216 15.1663L4.74052 15.1663C4.84444 15.9911 5.05831 16.8001 5.37778 17.5714C5.84682 18.7038 6.53431 19.7327 7.40099 20.5993C7.55208 20.7504 7.70811 20.8961 7.86876 21.0361ZM4.74052 12.833L9.48216 12.833C9.67621 12.0815 10.0561 11.3848 10.5938 10.8104L7.86878 6.96325C7.70813 7.10325 7.55209 7.24891 7.40099 7.40001C6.53431 8.26669 5.84682 9.29559 5.37778 10.428C5.05831 11.1992 4.84444 12.0082 4.74052 12.833ZM14.0007 11.6663C13.3818 11.6663 12.7883 11.9122 12.3507 12.3498C11.9131 12.7873 11.6673 13.3808 11.6673 13.9997C11.6673 14.6185 11.9131 15.212 12.3507 15.6496C12.7883 16.0872 13.3818 16.333 14.0007 16.333C14.6195 16.333 15.213 16.0872 15.6506 15.6496C16.0882 15.212 16.334 14.6185 16.334 13.9997C16.334 13.3808 16.0882 12.7873 15.6506 12.3498C15.213 11.9122 14.6195 11.6663 14.0007 11.6663Z" fill="rgb(254,254,254)" fill-rule="evenodd" />
</svg>
