<svg viewBox="0 0 28 28" xmlns="http://www.w3.org/2000/svg" xmlns:xlink="http://www.w3.org/1999/xlink" width="28.000000" height="28.000000" fill="none">
	<rect id="tabler-icon-drop-circle" width="28.000000" height="28.000000" x="0.000000" y="0.000000" fill="rgb(255,255,255)" fill-opacity="0" />
	<path id="Vector (Stroke)" d="M9.43629 2.98203C10.8832 2.38269 12.434 2.07422 14.0001 2.07422C15.5663 2.07422 17.1171 2.38269 18.564 2.98203C20.0109 3.58136 21.3256 4.45982 22.433 5.56724C23.5405 6.67467 24.4189 7.98937 25.0183 9.43629C25.6176 10.8832 25.9261 12.434 25.9261 14.0001C25.9261 15.5663 25.6176 17.1171 25.0183 18.564C24.4189 20.0109 23.5405 21.3256 22.433 22.433C21.3256 23.5405 20.0109 24.4189 18.564 25.0183C17.1171 25.6176 15.5663 25.9261 14.0001 25.9261C12.434 25.9261 10.8832 25.6176 9.43629 25.0183C7.98937 24.4189 6.67467 23.5405 5.56724 22.433C4.45982 21.3256 3.58136 20.0109 2.98203 18.564C2.38269 17.1171 2.07422 15.5663 2.07422 14.0001C2.07422 12.434 2.38269 10.8832 2.98203 9.43629C3.58136 7.98937 4.45982 6.67467 5.56724 5.56724C6.67467 4.45982 7.98937 3.58136 9.43629 2.98203ZM14.0001 4.4594C12.7472 4.4594 11.5066 4.70618 10.3491 5.18565C9.19152 5.66512 8.13976 6.36788 7.25382 7.25382C6.36788 8.13976 5.66512 9.19152 5.18565 10.3491C4.70618 11.5066 4.4594 12.7472 4.4594 14.0001C4.4594 15.2531 4.70618 16.4937 5.18565 17.6512C5.66512 18.8088 6.36788 19.8605 7.25382 20.7465C8.13976 21.6324 9.19153 22.3352 10.3491 22.8146C11.5066 23.2941 12.7472 23.5409 14.0001 23.5409C15.2531 23.5409 16.4937 23.2941 17.6512 22.8146C18.8088 22.3352 19.8605 21.6324 20.7465 20.7465C21.6324 19.8605 22.3352 18.8088 22.8146 17.6512C23.2941 16.4937 23.5409 15.2531 23.5409 14.0001C23.5409 12.7472 23.2941 11.5066 22.8146 10.3491C22.3352 9.19153 21.6324 8.13976 20.7465 7.25382C19.8605 6.36788 18.8088 5.66512 17.6512 5.18565C16.4937 4.70618 15.2531 4.4594 14.0001 4.4594ZM13.999 8.03718C14.391 8.03739 14.7577 8.23015 14.9802 8.5528L18.0762 13.0429C18.0884 13.0606 18.1001 13.0787 18.1114 13.097C19.3038 15.0439 18.8219 17.5077 17.033 18.9196C15.27 20.311 12.7208 20.311 10.9578 18.9196L10.9573 18.9191C9.16939 17.5064 8.68705 15.0446 9.87788 13.0976C9.88946 13.0787 9.90156 13.0601 9.91418 13.0418L13.0173 8.55174C13.2401 8.22933 13.6071 8.03697 13.999 8.03718ZM12.4355 17.0473C11.5727 16.3651 11.3757 15.2477 11.8974 14.3675L12.4355 17.0473ZM11.8974 14.3675L13.9973 11.3291L16.0922 14.3673C16.6153 15.248 16.4179 16.3665 15.5553 17.0473C14.6588 17.7548 13.332 17.7547 12.4355 17.0473" fill="rgb(254,254,254)" fill-rule="evenodd" />
</svg>
