<svg viewBox="0 0 33.5879 33.6963" xmlns="http://www.w3.org/2000/svg" xmlns:xlink="http://www.w3.org/1999/xlink" width="33.587891" height="33.696289" fill="none">
	<defs>
		<g id="pixso_custom_effect_0">
			<effect x="0.000000" y="4.000000" visibility="visible" fill="rgb(0,0,0)" fill-opacity="0.25" effectType="dropShadow" stdDeviation="4" radius="0" />
		</g>
		<filter id="filter_0" width="33.587891" height="33.696289" x="0.000000" y="0.000000" filterUnits="userSpaceOnUse" customEffect="url(#pixso_custom_effect_0)" color-interpolation-filters="sRGB">
			<feFlood flood-opacity="0" result="BackgroundImageFix" />
			<feColorMatrix result="hardAlpha" in="SourceAlpha" type="matrix" values="0 0 0 0 0 0 0 0 0 0 0 0 0 0 0 0 0 0 127 0 " />
			<feOffset dx="0.000000" dy="4.000000" in="hardAlpha" />
			<feGaussianBlur stdDeviation="1.33333337" />
			<feComposite k2="-1" k3="1" in2="hardAlpha" operator="out" />
			<feColorMatrix type="matrix" values="0 0 0 0 0 0 0 0 0 0 0 0 0 0 0 0 0 0 0.25 0 " />
			<feBlend result="effect_dropShadow_1" in2="BackgroundImageFix" mode="normal" />
			<feBlend result="shape" in="SourceGraphic" in2="effect_dropShadow_1" mode="normal" />
		</filter>
		<clipPath id="clipPath_0">
			<rect width="28.000000" height="28.000000" x="2.751953" y="0.000000" fill="rgb(255,255,255)" />
		</clipPath>
	</defs>
	<g clip-path="url(#clipPath_0)" filter="url(#filter_0)" customFrame="url(#clipPath_0)">
		<rect id="key" width="28.000000" height="28.000000" x="2.751953" y="0.000000" fill="rgb(255,255,255)" fill-opacity="0" />
		<path id="Vector (Stroke)" d="M28.0789 1.5087C28.5345 1.96431 28.5345 2.70301 28.0789 3.15862L26.5705 4.66699L29.2455 7.34203C29.7011 7.79765 29.7011 8.53634 29.2455 8.99195L25.1622 13.0753C24.7066 13.5309 23.9679 13.5309 23.5123 13.0753L20.8372 10.4002L17.6331 13.6044C17.9918 14.0895 18.2921 14.6169 18.5269 15.1757C18.9143 16.0978 19.1154 17.0874 19.1188 18.0875C19.1221 19.0876 18.9276 20.0785 18.5464 21.0032C18.1652 21.9278 17.6049 22.7679 16.8977 23.4751C16.1905 24.1823 15.3504 24.7426 14.4257 25.1238C13.5011 25.505 12.5102 25.6995 11.5101 25.6962C10.5099 25.6928 9.52035 25.4917 8.59828 25.1043C7.67621 24.7169 6.83988 24.151 6.13743 23.4391L6.12868 23.4302C4.74732 22 3.98301 20.0844 4.00029 18.096C4.01756 16.1077 4.8151 14.2057 6.22111 12.7997C7.62712 11.3937 9.52911 10.5962 11.5174 10.5789C13.1191 10.565 14.6735 11.0582 15.9651 11.9726L26.4289 1.5087C26.8846 1.05309 27.6232 1.05309 28.0789 1.5087ZM15.2627 14.4156C15.2519 14.4059 15.2411 14.3959 15.2306 14.3857C14.2404 13.4293 12.9142 12.9002 11.5377 12.9121C10.1612 12.9241 8.84442 13.4762 7.87102 14.4496C6.89763 15.423 6.34549 16.7398 6.33353 18.1163C6.32159 19.4908 6.84915 20.815 7.80276 21.8047C8.28816 22.2955 8.8656 22.6857 9.50203 22.9531C10.1404 23.2213 10.8255 23.3605 11.5179 23.3629C12.2103 23.3652 12.8963 23.2305 13.5364 22.9666C14.1766 22.7027 14.7582 22.3148 15.2478 21.8252C15.7374 21.3356 16.1253 20.754 16.3892 20.1139C16.6531 19.4737 16.7878 18.7877 16.7854 18.0953C16.7831 17.4029 16.6439 16.7178 16.3757 16.0795C16.1148 15.4584 15.7369 14.8936 15.2627 14.4156ZM22.4872 8.75033L24.3372 10.6004L26.7707 8.16699L24.9206 6.31691L22.4872 8.75033Z" fill="rgb(254,254,254)" fill-rule="evenodd" />
	</g>
</svg>
