<svg viewBox="0 0 28 28" xmlns="http://www.w3.org/2000/svg" xmlns:xlink="http://www.w3.org/1999/xlink" width="28.000000" height="28.000000" fill="none">
	<rect id="headphones" width="28.000000" height="28.000000" x="0.000000" y="0.000000" fill="rgb(255,255,255)" fill-opacity="0" />
	<path id="Vector (Stroke)" d="M14.0007 4.66634C11.5253 4.66634 9.15133 5.64967 7.40099 7.40001C5.65065 9.15035 4.66732 11.5243 4.66732 13.9997L4.66732 20.9997C4.66732 21.644 4.14498 22.1663 3.50065 22.1663C2.85632 22.1663 2.33398 21.644 2.33398 20.9997L2.33398 13.9997C2.33398 10.9055 3.56315 7.93802 5.75107 5.7501C7.939 3.56217 10.9065 2.33301 14.0007 2.33301C17.0948 2.33301 20.0623 3.56217 22.2502 5.7501C24.4382 7.93802 25.6673 10.9055 25.6673 13.9997L25.6673 20.9997C25.6673 21.644 25.145 22.1663 24.5007 22.1663C23.8563 22.1663 23.334 21.644 23.334 20.9997L23.334 13.9997C23.334 11.5243 22.3507 9.15035 20.6003 7.40001C18.85 5.64967 16.476 4.66634 14.0007 4.66634Z" fill="rgb(254,254,254)" fill-rule="evenodd" />
	<path id="Vector (Stroke)" d="M2.33398 16.3337C2.33398 15.6893 2.85632 15.167 3.50065 15.167L7.00065 15.167C7.92891 15.167 8.81915 15.5357 9.47552 16.1921C10.1319 16.8485 10.5007 17.7387 10.5007 18.667L10.5007 22.167C10.5007 23.0952 10.1319 23.9855 9.47552 24.6419C8.81915 25.2982 7.92891 25.667 7.00065 25.667L5.83398 25.667C4.90573 25.667 4.01549 25.2982 3.35911 24.6419C2.70273 23.9855 2.33398 23.0952 2.33398 22.167L2.33398 16.3337ZM4.66732 17.5003L4.66732 22.167C4.66732 22.4764 4.79023 22.7732 5.00903 22.9919C5.22782 23.2107 5.52457 23.3337 5.83398 23.3337L7.00065 23.3337C7.31007 23.3337 7.60682 23.2107 7.82561 22.9919C8.0444 22.7732 8.16732 22.4764 8.16732 22.167L8.16732 18.667C8.16732 18.3576 8.0444 18.0608 7.82561 17.842C7.60682 17.6232 7.31007 17.5003 7.00065 17.5003L4.66732 17.5003ZM21.0007 17.5003C20.6912 17.5003 20.3945 17.6232 20.1757 17.842C19.9569 18.0608 19.834 18.3576 19.834 18.667L19.834 22.167C19.834 22.4764 19.9569 22.7732 20.1757 22.9919C20.3945 23.2107 20.6912 23.3337 21.0007 23.3337L22.1673 23.3337C22.4767 23.3337 22.7735 23.2107 22.9923 22.9919C23.2111 22.7732 23.334 22.4764 23.334 22.167L23.334 17.5003L21.0007 17.5003ZM18.5258 16.1921C19.1822 15.5357 20.0724 15.167 21.0007 15.167L24.5007 15.167C25.145 15.167 25.6673 15.6893 25.6673 16.3337L25.6673 22.167C25.6673 23.0952 25.2986 23.9855 24.6422 24.6419C23.9858 25.2982 23.0956 25.667 22.1673 25.667L21.0007 25.667C20.0724 25.667 19.1822 25.2982 18.5258 24.6419C17.8694 23.9855 17.5007 23.0952 17.5007 22.167L17.5007 18.667C17.5007 17.7387 17.8694 16.8485 18.5258 16.1921Z" fill="rgb(254,254,254)" fill-rule="evenodd" />
</svg>
