<svg viewBox="0 0 28 28" xmlns="http://www.w3.org/2000/svg" xmlns:xlink="http://www.w3.org/1999/xlink" width="28.000000" height="28.000000" fill="none">
	<rect id="key" width="28.000000" height="28.000000" x="0.000000" y="0.000000" fill="rgb(255,255,255)" fill-opacity="0" />
	<path id="Vector (Stroke)" d="M25.3269 1.5087C25.7825 1.96431 25.7825 2.70301 25.3269 3.15862L23.8185 4.66699L26.4936 7.34203C26.9492 7.79765 26.9492 8.53634 26.4936 8.99195L22.4102 13.0753C21.9546 13.5309 21.2159 13.5309 20.7603 13.0753L18.0853 10.4002L14.8811 13.6044C15.2398 14.0895 15.5402 14.6169 15.7749 15.1757C16.1623 16.0978 16.3635 17.0874 16.3668 18.0875C16.3702 19.0876 16.1756 20.0785 15.7945 21.0032C15.4133 21.9278 14.8529 22.7679 14.1457 23.4751C13.4385 24.1823 12.5984 24.7426 11.6738 25.1238C10.7492 25.505 9.75824 25.6995 8.75811 25.6962C7.75798 25.6928 6.7684 25.4917 5.84633 25.1043C4.92426 24.7169 4.08793 24.151 3.38548 23.4391L3.37673 23.4302C1.99536 22 1.23106 20.0844 1.24833 18.096C1.26561 16.1077 2.06314 14.2057 3.46915 12.7997C4.87517 11.3937 6.77716 10.5962 8.76549 10.5789C10.3671 10.565 11.9215 11.0582 13.2131 11.9726L23.677 1.5087C24.1326 1.05309 24.8713 1.05309 25.3269 1.5087ZM12.5108 14.4156C12.4999 14.4059 12.4892 14.3959 12.4786 14.3857C11.4885 13.4293 10.1623 12.9002 8.78576 12.9121C7.40923 12.9241 6.09246 13.4762 5.11907 14.4496C4.14568 15.423 3.59354 16.7398 3.58158 18.1163C3.56964 19.4908 4.0972 20.815 5.05081 21.8047C5.53621 22.2955 6.11365 22.6857 6.75008 22.9531C7.38843 23.2213 8.07353 23.3605 8.76593 23.3629C9.45832 23.3652 10.1443 23.2305 10.7845 22.9666C11.4246 22.7027 12.0062 22.3148 12.4958 21.8252C12.9854 21.3356 13.3733 20.754 13.6372 20.1139C13.9011 19.4737 14.0358 18.7877 14.0335 18.0953C14.0312 17.4029 13.8919 16.7178 13.6237 16.0795C13.3628 15.4584 12.9849 14.8936 12.5108 14.4156ZM19.7352 8.75033L21.5853 10.6004L24.0187 8.16699L22.1686 6.31691L19.7352 8.75033Z" fill="rgb(254,254,254)" fill-rule="evenodd" />
</svg>
