<svg viewBox="0 0 28 28" xmlns="http://www.w3.org/2000/svg" xmlns:xlink="http://www.w3.org/1999/xlink" width="28.000000" height="28.000000" fill="none">
	<rect id="tabler-icon-car-crane" width="28.000000" height="28.000000" x="0.000000" y="0.000000" fill="rgb(255,255,255)" fill-opacity="0" />
	<path id="Vector (Stroke)" d="M26.4214 2.60949C26.6831 2.83116 26.834 3.15674 26.834 3.49968L26.834 5.83302C26.834 6.47735 26.3116 6.99968 25.6673 6.99968C25.023 6.99968 24.5007 6.47735 24.5007 5.83302L24.5007 4.87689L8.39802 7.56066L9.85573 8.28952C10.251 8.48714 10.5007 8.89112 10.5007 9.33302L10.5007 12.833L12.834 12.833L12.834 8.16635C12.834 7.52202 13.3563 6.99968 14.0007 6.99968L18.6673 6.99968C20.5238 6.99968 22.3043 7.73718 23.6171 9.04994C24.9298 10.3627 25.6673 12.1432 25.6673 13.9997L25.6673 20.9997C25.6673 21.644 25.145 22.1664 24.5007 22.1664L22.4427 22.1664C22.3995 22.2146 22.3549 22.2618 22.3089 22.3079C21.6525 22.9643 20.7622 23.333 19.834 23.333C18.9057 23.333 18.0155 22.9643 17.3591 22.3079C17.3131 22.2618 17.2684 22.2146 17.2252 22.1664L8.44274 22.1664C8.39955 22.2146 8.35491 22.2618 8.30886 22.3079C7.65248 22.9643 6.76224 23.333 5.83398 23.333C4.90573 23.333 4.01549 22.9643 3.35911 22.3079C2.70273 21.6515 2.33398 20.7613 2.33398 19.833L2.33398 13.9997C2.33398 13.3554 2.85632 12.833 3.50065 12.833L3.50065 6.99968C3.50065 6.42937 3.91297 5.94265 4.47552 5.84889L25.4755 2.34889C25.8138 2.29251 26.1597 2.38782 26.4214 2.60949ZM4.66732 15.1664L4.66732 16.5332C5.03856 16.4019 5.43272 16.333 5.83398 16.333C6.76224 16.333 7.65248 16.7018 8.30886 17.3581C8.96523 18.0145 9.33398 18.9048 9.33398 19.833L12.834 19.833L12.834 15.1664L4.66732 15.1664ZM8.16732 12.833L5.83398 12.833L5.83398 8.88739L8.16732 10.0541L8.16732 12.833ZM15.1673 19.833L16.334 19.833C16.334 18.9048 16.7027 18.0145 17.3591 17.3581C18.0155 16.7018 18.9057 16.333 19.834 16.333C20.7622 16.333 21.6525 16.7018 22.3089 17.3581C22.9652 18.0145 23.334 18.9048 23.334 19.833L23.334 15.1664L19.2507 15.1664C18.7354 15.1664 18.2812 14.8284 18.1332 14.3349L16.6326 9.33302L15.1673 9.33302L15.1673 19.833ZM19.074 9.35076L20.1187 12.833L23.1858 12.833C22.9791 12.0327 22.5616 11.2943 21.9671 10.6999C21.1884 9.92106 20.1626 9.44595 19.074 9.35076ZM4.66732 19.833C4.66732 20.1424 4.79023 20.4392 5.00903 20.658C5.22782 20.8768 5.52457 20.9997 5.83398 20.9997C6.1434 20.9997 6.44015 20.8768 6.65894 20.658C6.87773 20.4392 7.00065 20.1424 7.00065 19.833C7.00065 19.5236 6.87773 19.2269 6.65894 19.0081C6.44015 18.7893 6.1434 18.6664 5.83398 18.6664C5.52457 18.6664 5.22782 18.7893 5.00903 19.0081C4.79023 19.2269 4.66732 19.5236 4.66732 19.833ZM19.834 18.6664C19.5246 18.6664 19.2278 18.7893 19.009 19.0081C18.7902 19.2269 18.6673 19.5236 18.6673 19.833C18.6673 20.1424 18.7902 20.4392 19.009 20.658C19.2278 20.8768 19.5246 20.9997 19.834 20.9997C20.1434 20.9997 20.4401 20.8768 20.6589 20.658C20.8777 20.4392 21.0007 20.1424 21.0007 19.833C21.0007 19.5236 20.8777 19.2269 20.6589 19.0081C20.4401 18.7893 20.1434 18.6664 19.834 18.6664Z" fill="rgb(254,254,254)" fill-rule="evenodd" />
</svg>
