<svg viewBox="0 0 16 16" xmlns="http://www.w3.org/2000/svg" xmlns:xlink="http://www.w3.org/1999/xlink" width="16.000000" height="16.000000" fill="none">
	<rect id="online-video_4262063 1" width="16.000000" height="16.000000" x="0.000000" y="0.000000" fill="rgb(255,255,255)" fill-opacity="0" />
	<g id="_x37_8">
		<path id="Vector" d="M3.6558 10.3663L7.38514 10.3663L7.38514 11.7103C6.86523 11.8955 6.45508 12.3039 6.26848 12.8247L3.20605 12.8247C2.86591 12.8247 2.59067 13.1002 2.59067 13.4401C2.59067 13.7799 2.86591 14.0554 3.20605 14.0554L6.26728 14.0554C6.52209 14.7707 7.20042 15.2894 8.00038 15.2894C8.80033 15.2894 9.47867 14.7707 9.73347 14.0554L12.7944 14.0554C13.1345 14.0554 13.4098 13.7799 13.4098 13.4401C13.4098 13.1002 13.1345 12.8247 12.7944 12.8247L9.73227 12.8247C9.54575 12.304 9.13567 11.8957 8.61591 11.7104L8.61591 10.3663L12.345 10.3663C13.6804 10.3663 14.5789 9.59093 14.5789 8.44017L14.5789 2.93863C14.5789 1.70786 13.5757 0.710938 12.345 0.710938L3.6558 0.710938C2.42503 0.710938 1.42188 1.70786 1.42188 2.93863L1.42188 8.44017C1.42188 9.59093 2.32039 10.3663 3.6558 10.3663ZM6.0619 4.20016C6.0619 3.83094 6.2527 3.49861 6.57888 3.30784C6.89889 3.12323 7.28035 3.12323 7.60652 3.30784L9.93269 4.64322C10.2527 4.82786 10.4496 5.16632 10.4496 5.53553C10.4496 5.90479 10.2527 6.24324 9.93269 6.42785L7.60652 7.76322C7.28481 7.94885 6.91039 7.9545 6.57888 7.76322C6.2527 7.57861 6.0619 7.24632 6.0619 6.87094L6.0619 4.20016Z" fill="rgb(196,196,196)" fill-rule="nonzero" />
	</g>
</svg>
