<svg viewBox="0 0 16 16" xmlns="http://www.w3.org/2000/svg" xmlns:xlink="http://www.w3.org/1999/xlink" width="16.000000" height="16.000000" fill="none">
	<rect id="thermometer_268791 1" width="16.000000" height="16.000000" x="0.000000" y="0.000000" fill="rgb(255,255,255)" fill-opacity="0" />
	<g id="Group">
		<g id="Group">
			<path id="Vector" d="M11.1636 10.3039C11.1636 10.023 11.1636 2.55447 11.1636 2.17953C11.1636 0.977719 10.1859 0 8.98407 0C7.78251 0 6.80495 0.977719 6.80495 2.1795C6.80495 2.58753 6.80495 10.0344 6.80495 10.3039C4.58207 12.3026 6.00039 16 8.98411 16C11.9666 16 13.3865 12.3029 11.1636 10.3039ZM9.99292 7.15513L7.9757 7.15513L7.9757 2.1795C7.9757 1.62325 8.42807 1.17072 8.98407 1.17072C9.54033 1.17072 9.99289 1.62325 9.99289 2.1795L9.99289 7.15513L9.99292 7.15513Z" fill="rgb(196,196,196)" fill-rule="nonzero" />
		</g>
	</g>
	<g id="Group">
		<g id="Group">
			<path id="Vector" d="M5.31925 7.41406L4.33537 7.41406C4.01209 7.41406 3.75 7.67616 3.75 7.99944C3.75 8.32272 4.01209 8.58481 4.33537 8.58481L5.31925 8.58481C5.64253 8.58481 5.90462 8.32272 5.90462 7.99944C5.90459 7.67616 5.6425 7.41406 5.31925 7.41406Z" fill="rgb(196,196,196)" fill-rule="nonzero" />
		</g>
	</g>
	<g id="Group">
		<g id="Group">
			<path id="Vector" d="M5.31925 5.48438L4.33537 5.48438C4.01209 5.48438 3.75 5.74647 3.75 6.06975C3.75 6.39303 4.01209 6.65513 4.33537 6.65513L5.31925 6.65513C5.64253 6.65513 5.90462 6.39303 5.90462 6.06975C5.90459 5.74647 5.6425 5.48438 5.31925 5.48438Z" fill="rgb(196,196,196)" fill-rule="nonzero" />
		</g>
	</g>
	<g id="Group">
		<g id="Group">
			<path id="Vector" d="M5.31925 3.55469L4.33537 3.55469C4.01209 3.55469 3.75 3.81678 3.75 4.14006C3.75 4.46334 4.01209 4.72544 4.33537 4.72544L5.31925 4.72544C5.64253 4.72544 5.90462 4.46334 5.90462 4.14006C5.90462 3.81678 5.6425 3.55469 5.31925 3.55469Z" fill="rgb(196,196,196)" fill-rule="nonzero" />
		</g>
	</g>
</svg>
