<svg viewBox="0 0 16 16" xmlns="http://www.w3.org/2000/svg" xmlns:xlink="http://www.w3.org/1999/xlink" width="16.000000" height="16.000000" fill="none">
	<rect id="gearshift_638403 1" width="16.000000" height="16.000000" x="0.000000" y="0.000000" fill="rgb(255,255,255)" fill-opacity="0" />
	<g id="Group">
		<g id="Group">
			<path id="Vector" d="M12.6667 6.66666L9 6.66666L9 5.135C9.97553 4.73831 10.6667 3.78328 10.6667 2.66666C10.6667 1.19597 9.47038 0 8 0C6.52962 0 5.33334 1.19597 5.33334 2.66666C5.33334 3.78328 6.02447 4.73831 7 5.135L7 10.3333C7 10.8847 7.44856 11.3333 8 11.3333C8.55144 11.3333 9 10.8847 9 10.3333L9 10L10.3333 10C10.5176 10 10.6667 9.85091 10.6667 9.66666L10.6667 8.66666C10.6667 8.29881 10.9658 8 11.3333 8C11.7008 8 12 8.29884 12 8.66666L12 14C12 14.3678 11.7008 14.6667 11.3333 14.6667C10.9658 14.6667 10.6667 14.3678 10.6667 14L10.6667 12.3333C10.6667 12.1491 10.5176 12 10.3333 12L9 12C8.81575 12 8.66666 12.1491 8.66666 12.3333L8.66666 14C8.66666 14.3678 8.3675 14.6667 8 14.6667C7.6325 14.6667 7.33334 14.3678 7.33334 14L7.33334 12.3333C7.33334 12.1491 7.18425 12 7 12L5.66666 12C5.48241 12 5.33331 12.1491 5.33331 12.3333L5.33331 14C5.33331 14.3678 5.03416 14.6667 4.66666 14.6667C4.29916 14.6667 4 14.3678 4 14L4 8.66666C4 8.29881 4.29916 8 4.66666 8C5.03416 8 5.33331 8.29884 5.33331 8.66666L5.33331 9.66666C5.33331 9.85091 5.48241 10 5.66666 10L6 10C6.18425 10 6.33334 9.85091 6.33334 9.66666L6.33334 7C6.33334 6.81575 6.18425 6.66666 6 6.66666L3.33334 6.66666C2.59797 6.66666 2 7.26497 2 8L2 14.6667C2 15.4017 2.59797 16 3.33334 16L12.6667 16C13.402 16 14 15.4017 14 14.6667L14 8C14 7.26497 13.402 6.66666 12.6667 6.66666ZM7.16666 2C6.89094 2 6.66666 1.77538 6.66666 1.5C6.66666 1.22462 6.89094 1 7.16666 1C7.44237 1 7.66666 1.22462 7.66666 1.5C7.66666 1.77538 7.44237 2 7.16666 2Z" fill="rgb(196,196,196)" fill-rule="nonzero" />
		</g>
	</g>
</svg>
