<svg viewBox="0 0 16 16" xmlns="http://www.w3.org/2000/svg" xmlns:xlink="http://www.w3.org/1999/xlink" width="16.000000" height="16.000000" fill="none">
	<rect id="sort_9554566 1" width="16.000000" height="16.000000" x="0.000000" y="0.000000" fill="rgb(255,255,255)" fill-opacity="0" />
	<g id="Layer 2">
		<path id="Vector" d="M6 2L3.33333 2C2.59695 2 2 2.59695 2 3.33333L2 6C2 6.73638 2.59695 7.33333 3.33333 7.33333L6 7.33333C6.73638 7.33333 7.33333 6.73638 7.33333 6L7.33333 3.33333C7.33333 2.59695 6.73638 2 6 2Z" fill="rgb(196,196,196)" fill-rule="evenodd" />
		<path id="Vector" d="M6 8.66406L3.33333 8.66406C2.59695 8.66406 2 9.26102 2 9.9974L2 12.6641C2 13.4004 2.59695 13.9974 3.33333 13.9974L6 13.9974C6.73638 13.9974 7.33333 13.4004 7.33333 12.6641L7.33333 9.9974C7.33333 9.26102 6.73638 8.66406 6 8.66406Z" fill="rgb(196,196,196)" fill-rule="evenodd" />
		<path id="Vector" d="M13.3335 4.66532C13.2457 4.66583 13.1587 4.64901 13.0775 4.61584C12.9963 4.58266 12.9224 4.53378 12.8601 4.47199L11.3335 2.93866L9.80679 4.47199C9.68125 4.59753 9.51099 4.66805 9.33346 4.66805C9.15592 4.66805 8.98566 4.59753 8.86012 4.47199C8.73459 4.34645 8.66406 4.17619 8.66406 3.99866C8.66406 3.82112 8.73459 3.65086 8.86012 3.52532L10.8601 1.52532C10.9221 1.46284 10.9958 1.41324 11.0771 1.3794C11.1583 1.34555 11.2454 1.32812 11.3335 1.32812C11.4215 1.32812 11.5086 1.34555 11.5898 1.3794C11.6711 1.41324 11.7448 1.46284 11.8068 1.52532L13.8068 3.52532C13.8693 3.5873 13.9189 3.66103 13.9527 3.74227C13.9866 3.82351 14.004 3.91065 14.004 3.99866C14.004 4.08667 13.9866 4.1738 13.9527 4.25504C13.9189 4.33628 13.8693 4.41002 13.8068 4.47199C13.7445 4.53378 13.6706 4.58266 13.5894 4.61584C13.5082 4.64901 13.4212 4.66583 13.3335 4.66532Z" fill="rgb(196,196,196)" fill-rule="nonzero" />
		<path id="Vector" d="M11.3335 14.6642C11.2457 14.6647 11.1587 14.6479 11.0775 14.6147C10.9963 14.5815 10.9224 14.5326 10.8601 14.4709L8.86012 12.4709C8.73459 12.3453 8.66406 12.1751 8.66406 11.9975C8.66406 11.82 8.73459 11.6497 8.86012 11.5242C8.98566 11.3987 9.15592 11.3281 9.33346 11.3281C9.51099 11.3281 9.68125 11.3987 9.80679 11.5242L11.3335 13.0575L12.8601 11.5242C12.9857 11.3987 13.1559 11.3281 13.3335 11.3281C13.511 11.3281 13.6813 11.3987 13.8068 11.5242C13.9323 11.6497 14.0029 11.82 14.0029 11.9975C14.0029 12.1751 13.9323 12.3453 13.8068 12.4709L11.8068 14.4709C11.7445 14.5326 11.6706 14.5815 11.5894 14.6147C11.5082 14.6479 11.4212 14.6647 11.3335 14.6642Z" fill="rgb(196,196,196)" fill-rule="nonzero" />
		<path id="Vector" d="M11.3307 14.6693C11.1539 14.6693 10.9843 14.599 10.8593 14.474C10.7343 14.349 10.6641 14.1794 10.6641 14.0026L10.6641 2.0026C10.6641 1.82579 10.7343 1.65622 10.8593 1.5312C10.9843 1.40618 11.1539 1.33594 11.3307 1.33594C11.5075 1.33594 11.6771 1.40618 11.8021 1.5312C11.9272 1.65622 11.9974 1.82579 11.9974 2.0026L11.9974 14.0026C11.9974 14.1794 11.9272 14.349 11.8021 14.474C11.6771 14.599 11.5075 14.6693 11.3307 14.6693Z" fill="rgb(196,196,196)" fill-rule="nonzero" />
	</g>
</svg>
