<svg viewBox="0 0 16 16" xmlns="http://www.w3.org/2000/svg" xmlns:xlink="http://www.w3.org/1999/xlink" width="16.000000" height="16.000000" fill="none">
	<rect id="seat_8843433 1" width="16.000000" height="16.000000" x="0.000000" y="0.000000" fill="rgb(255,255,255)" fill-opacity="0" />
	<g id="Glyph">
		<path id="Vector" d="M13.0689 11.5975C12.8596 11.3579 12.5659 11.2083 12.2489 11.18C11.9639 10.07 11.9989 8.3925 12.0664 7.15C12.1032 6.6295 11.9371 6.11496 11.603 5.71418C11.2688 5.3134 10.7926 5.05747 10.2739 5C10.2039 5 10.1339 5 10.0614 5L9.24895 5L9.24895 4.5L9.34145 4.5C9.44806 4.49881 9.55305 4.47371 9.64867 4.42655C9.74429 4.37939 9.82811 4.31137 9.89395 4.2275C9.98367 4.11255 10.0472 3.97936 10.08 3.83728C10.1128 3.6952 10.1142 3.54766 10.0839 3.405L9.83395 2.1875C9.80955 2.0057 9.72304 1.83794 9.58908 1.71264C9.45513 1.58734 9.28196 1.51221 9.09895 1.5L6.89895 1.5C6.71328 1.50884 6.53658 1.58246 6.39957 1.70806C6.26255 1.83366 6.17387 2.0033 6.14895 2.1875L5.89895 3.405C5.86873 3.54766 5.87008 3.6952 5.9029 3.83728C5.93572 3.97936 5.99922 4.11255 6.08895 4.2275C6.15635 4.31336 6.24257 4.38258 6.34097 4.42983C6.43936 4.47707 6.5473 4.50108 6.65645 4.5L6.74895 4.5L6.74895 5L5.93645 5C5.86395 5 5.79395 5 5.72395 5C5.43293 5.03188 5.1523 5.12656 4.90145 5.2775C4.58251 5.46769 4.32226 5.74222 4.14935 6.07084C3.97643 6.39946 3.89757 6.76943 3.92145 7.14C3.99645 8.39 4.02395 10.06 3.73895 11.17C3.4256 11.2008 3.13585 11.3502 2.92895 11.5875C2.80219 11.7312 2.71121 11.9027 2.66341 12.0883C2.61562 12.2738 2.61238 12.468 2.65395 12.655C2.76344 13.1762 3.04871 13.6439 3.46198 13.9798C3.87525 14.3157 4.39139 14.4993 4.92395 14.5L11.0739 14.5C11.6051 14.4998 12.1202 14.3176 12.5332 13.9837C12.9463 13.6498 13.2325 13.1843 13.3439 12.665C13.3855 12.478 13.3823 12.2838 13.3345 12.0983C13.2867 11.9127 13.1957 11.7412 13.0689 11.5975ZM7.24895 4.5L8.74895 4.5L8.74895 5L7.24895 5L7.24895 4.5ZM5.77395 5.5L5.93645 5.5L6.01645 5.5L10.0589 10.2125L11.1839 11.525L11.1389 11.545L11.0339 11.595L10.9039 11.6525L10.7789 11.7025L10.7039 11.7325L5.70395 5.89L5.45395 5.5875C5.55692 5.54621 5.66429 5.51685 5.77395 5.5Z" fill="rgb(196,196,196)" fill-rule="nonzero" />
	</g>
</svg>
