<svg viewBox="0 0 16 16" xmlns="http://www.w3.org/2000/svg" xmlns:xlink="http://www.w3.org/1999/xlink" width="16.000000" height="16.000000" fill="none">
	<rect id="engine_95236 2" width="16.000000" height="16.000000" x="0.000000" y="0.000000" fill="rgb(255,255,255)" fill-opacity="0" />
	<path id="XMLID_49_" d="M15.788 7.71141L13.9926 6.34832C13.8302 6.22507 13.6128 6.20416 13.4301 6.29523C13.2479 6.38549 13.1325 6.57159 13.1325 6.77529L13.1325 7.60934L12.6014 7.60934L12.6014 6.76641C12.6014 6.47033 12.3614 6.23027 12.0655 6.23027L10.9984 6.23027L10.9984 4.23965C10.9984 3.94352 10.7583 3.70352 10.4624 3.70352L8.79518 3.70352L8.79518 3.13455L9.24398 3.13455C9.54 3.13455 9.78006 2.89449 9.78006 2.59847C9.78006 2.30245 9.54 2.0625 9.24398 2.0625L5.781 2.0625C5.48503 2.0625 5.24497 2.30245 5.24497 2.59847C5.24497 2.89449 5.48503 3.13455 5.781 3.13455L6.23012 3.13455L6.23012 3.70352L4.15786 3.70352C3.86184 3.70352 3.62178 3.94352 3.62178 4.23965L3.62178 5.28597L2.57492 5.28597C2.27884 5.28597 2.03884 5.52597 2.03884 5.82199L2.03884 7.04823L1.072 7.04823L1.072 5.52733C1.072 5.2313 0.831994 4.9913 0.535972 4.9913C0.239949 4.99125 0 5.2313 0 5.52727L0 11.134C0 11.4301 0.239949 11.67 0.536026 11.67C0.832048 11.67 1.07205 11.43 1.07205 11.134L1.07205 9.61308L2.03895 9.61308L2.03895 10.8701C2.03895 11.1662 2.27895 11.4062 2.57503 11.4062L3.923 11.4062L5.81415 13.7352C5.91595 13.8605 6.06884 13.9332 6.23023 13.9332L12.0656 13.9332C12.3616 13.9332 12.6015 13.6931 12.6015 13.3972L12.6015 12.6889L13.1326 12.6889L13.1326 13.3972C13.1326 13.6066 13.2545 13.7966 13.4446 13.8842C13.5163 13.9171 13.5928 13.9332 13.6686 13.9332C13.7942 13.9332 13.9183 13.889 14.0176 13.8041L15.813 12.2652C15.9318 12.1633 16.0001 12.0147 16.0001 11.8582L16.0001 8.13822C16 7.97081 15.9215 7.81272 15.788 7.71141Z" fill="rgb(196,196,196)" fill-rule="nonzero" />
</svg>
