<svg viewBox="0 0 16 16" xmlns="http://www.w3.org/2000/svg" xmlns:xlink="http://www.w3.org/1999/xlink" width="16.000000" height="16.000000" fill="none">
	<rect id="check_15889170 1" width="16.000000" height="16.000000" x="0.000000" y="0.000000" fill="rgb(255,255,255)" fill-opacity="0" />
	<path id="Vector" d="M7.48359 0.634038C7.61315 0.484573 7.8017 0.398438 7.99966 0.398438C8.19763 0.398438 8.38618 0.484573 8.51574 0.634038L9.37888 1.62964C9.53053 1.80444 9.72667 1.93436 9.94671 2.00601C10.1668 2.07732 10.402 2.08744 10.6271 2.03534L11.9108 1.73713C12.1037 1.69225 12.3067 1.7335 12.4667 1.85003C12.627 1.96621 12.729 2.1468 12.746 2.34404L12.859 3.65666C12.8789 3.8872 12.9614 4.1076 13.0971 4.2947C13.2332 4.4818 13.4174 4.62838 13.6305 4.7185L14.844 5.23168C15.0264 5.30876 15.1665 5.46148 15.2276 5.65003C15.2888 5.83823 15.2653 6.04415 15.1632 6.21389L14.4828 7.34231C14.3638 7.54027 14.3004 7.76718 14.3004 7.99844C14.3004 8.2297 14.3638 8.45661 14.4828 8.65457L15.1632 9.78299C15.2653 9.95272 15.2888 10.1586 15.2276 10.3468C15.1665 10.5354 15.0264 10.6881 14.844 10.7652L13.6305 11.2784C13.4174 11.3685 13.2332 11.5151 13.0971 11.7022C12.9614 11.8893 12.8789 12.1097 12.859 12.3402L12.746 13.6528C12.729 13.8501 12.627 14.0307 12.4667 14.1468C12.3067 14.2634 12.1037 14.3046 11.9108 14.2597L10.6271 13.9615C10.402 13.9094 10.1668 13.9196 9.94671 13.9909C9.72667 14.0625 9.53053 14.1924 9.37888 14.3672L8.51574 15.3628C8.38618 15.5123 8.19763 15.5984 7.99966 15.5984C7.8017 15.5984 7.61315 15.5123 7.48359 15.3628L6.62044 14.3672C6.4688 14.1924 6.27265 14.0625 6.05261 13.9909C5.83258 13.9196 5.59734 13.9094 5.37223 13.9615L4.08856 14.2597C3.89567 14.3046 3.69264 14.2634 3.53268 14.1468C3.37235 14.0307 3.2703 13.8501 3.25329 13.6528L3.14037 12.3402C3.12047 12.1097 3.03795 11.8893 2.90224 11.7022C2.76616 11.5151 2.58195 11.3685 2.36879 11.2784L1.15533 10.7652C0.972927 10.6881 0.832861 10.5354 0.771708 10.3468C0.710544 10.1586 0.734068 9.95272 0.836119 9.78299L1.5165 8.65457C1.63557 8.45661 1.6989 8.2297 1.6989 7.99844C1.6989 7.76718 1.63557 7.54027 1.5165 7.34231L0.836119 6.21389C0.734068 6.04415 0.710544 5.83823 0.771708 5.65003C0.832861 5.46148 0.972927 5.30876 1.15533 5.23168L2.36879 4.7185C2.58195 4.62838 2.76616 4.4818 2.90224 4.2947C3.03795 4.1076 3.12047 3.8872 3.14037 3.65666L3.25329 2.34404C3.2703 2.1468 3.37235 1.96621 3.53268 1.85003C3.69264 1.7335 3.89567 1.69225 4.08856 1.73713L5.37223 2.03534C5.59734 2.08744 5.83258 2.07732 6.05261 2.00601C6.27265 1.93436 6.4688 1.80444 6.62044 1.62964L7.48359 0.634038ZM4.47869 8.26227L6.65012 10.4337C6.79162 10.5748 7.02072 10.5748 7.16185 10.4337L11.5206 6.07491C11.6618 5.93378 11.6618 5.70433 11.5206 5.56318C11.3795 5.42204 11.15 5.42204 11.0089 5.56318L6.90599 9.66609L4.99043 7.75053C4.84929 7.60903 4.61984 7.60903 4.47869 7.75053C4.33755 7.89167 4.33755 8.12112 4.47869 8.26227Z" fill="rgb(196,196,196)" fill-rule="evenodd" />
</svg>
