<svg viewBox="0 0 16 16" xmlns="http://www.w3.org/2000/svg" xmlns:xlink="http://www.w3.org/1999/xlink" width="16.000000" height="16.000000" fill="none">
	<rect id="car_11866033 (1) 1" width="16.000000" height="16.000000" x="0.000000" y="0.000000" fill="rgb(255,255,255)" fill-opacity="0" />
	<g id="Group">
		<path id="Vector" d="M10.1417 1.75C8.5176 1.75 6.99465 2.53885 6.05767 3.86543L4.84377 5.5841L2.79697 6.33327C1.41741 6.83822 0.5 8.15095 0.5 9.62002L0.5 10.5C0.5 11.6046 1.39543 12.5 2.5 12.5L4.33698 12.5C4.2801 12.2592 4.25 12.0081 4.25 11.75C4.25 9.95508 5.70508 8.5 7.5 8.5C9.29492 8.5 10.75 9.95508 10.75 11.75C10.75 12.0081 10.7199 12.2592 10.663 12.5L14.5 12.5C15.0523 12.5 15.5 12.0523 15.5 11.5L15.5 2.75C15.5 2.19772 15.0523 1.75 14.5 1.75L10.1417 1.75Z" fill="rgb(196,196,196)" fill-rule="nonzero" />
		<path id="Vector" d="M7.5 9.25C6.1193 9.25 5 10.3693 5 11.75C5 13.1307 6.1193 14.25 7.5 14.25C8.8807 14.25 10 13.1307 10 11.75C10 10.3693 8.8807 9.25 7.5 9.25Z" fill="rgb(196,196,196)" fill-rule="nonzero" />
	</g>
</svg>
