<svg viewBox="0 0 16 16" xmlns="http://www.w3.org/2000/svg" xmlns:xlink="http://www.w3.org/1999/xlink" width="16.000000" height="16.000000" fill="none">
	<rect id="lemon_6589838 1" width="16.000000" height="16.000000" x="0.000000" y="0.000000" fill="rgb(255,255,255)" fill-opacity="0" />
	<path id="Vector" d="M7.99953 0.484375C3.84922 0.484375 0.484375 3.84922 0.484375 7.99953C0.484375 12.1498 3.84922 15.5147 7.99953 15.5147C12.1498 15.5147 15.5147 12.1498 15.5147 7.99953C15.5147 3.84922 12.1498 0.484375 7.99953 0.484375ZM13.5632 7.63589L10.1813 7.63589C9.70135 7.63589 9.45892 7.05407 9.80074 6.71468L12.191 4.32438C12.9765 5.22134 13.4807 6.37286 13.5632 7.63589ZM8.36316 2.43589C9.62619 2.51831 10.7777 3.02256 11.6747 3.81044L9.28438 6.20074C8.94498 6.54013 8.36316 6.30013 8.36316 5.82013L8.36316 2.43589ZM7.63589 2.43589L7.63589 5.81771C7.63589 6.29771 7.05407 6.54013 6.71468 6.19831L4.32438 3.80801C5.22134 3.02256 6.37286 2.51831 7.63589 2.43589ZM3.81044 4.32438L6.20074 6.71468C6.54013 7.05407 6.30013 7.63589 5.82013 7.63589L2.43589 7.63589C2.51831 6.37286 3.02256 5.22134 3.81044 4.32438ZM2.43589 8.36316L5.81771 8.36316C6.29771 8.36316 6.54013 8.94498 6.19831 9.28438L3.80801 11.6747C3.02256 10.7777 2.51831 9.62619 2.43589 8.36316ZM7.63589 13.5632C6.37286 13.4807 5.22134 12.9765 4.32438 12.1886L6.71468 9.79832C7.05407 9.45892 7.63589 9.69892 7.63589 10.1789L7.63589 13.5632ZM7.27225 7.99953C7.27225 7.59953 7.59953 7.27225 7.99953 7.27225C8.39953 7.27225 8.7268 7.59953 8.7268 7.99953C8.7268 8.39953 8.39953 8.7268 7.99953 8.7268C7.59953 8.7268 7.27225 8.39953 7.27225 7.99953ZM8.36316 13.5632L8.36316 10.1813C8.36316 9.70135 8.94498 9.45892 9.28438 9.80074L11.6747 12.191C10.7777 12.9765 9.62619 13.4807 8.36316 13.5632ZM12.1886 11.6747L9.79832 9.28438C9.45892 8.94498 9.69892 8.36316 10.1789 8.36316L13.5607 8.36316C13.4807 9.62619 12.9765 10.7777 12.1886 11.6747Z" fill="rgb(196,196,196)" fill-rule="nonzero" />
</svg>
