<svg viewBox="0 0 16 16" xmlns="http://www.w3.org/2000/svg" xmlns:xlink="http://www.w3.org/1999/xlink" width="16.000000" height="16.000000" fill="none">
	<rect id="fog-lamp_8072371 1" width="16.000000" height="16.000000" x="0.000000" y="0.000000" fill="rgb(255,255,255)" fill-opacity="0" transform="matrix(-1,0,0,1,16,0)" />
	<g id="Group">
		<path id="Vector" d="M6.45928 1.41182C5.39717 0.501406 3.98755 0 2.49013 0C2.06623 0 1.67882 0.156202 1.33842 0.464406C1.04161 0.733109 0.78561 1.11491 0.577507 1.59922C0.205103 2.46613 0 3.62695 0 4.86756C0 6.10828 0.205103 7.26899 0.577507 8.1359C0.78551 8.62021 1.04151 9.00202 1.33842 9.27072C1.67882 9.57882 2.06623 9.73513 2.49013 9.73513C3.98755 9.73513 5.39707 9.23372 6.45928 8.32331C6.97979 7.8772 7.3889 7.3567 7.6752 6.77639C7.9734 6.17218 8.1245 5.52987 8.1245 4.86746C8.1245 4.20505 7.9733 3.56285 7.6752 2.95854C7.3889 2.37843 6.97979 1.85792 6.45928 1.41182Z" fill="rgb(196,196,196)" fill-rule="nonzero" transform="matrix(-1,0,0,1,9.125,3.13281)" />
		<path id="Vector" d="M4.34456 0L0.400005 0C0.179102 0 0 0.179102 0 0.400005C0 0.620908 0.179102 0.80001 0.400005 0.80001L4.34456 0.80001C4.56546 0.80001 4.74456 0.620908 4.74456 0.400005C4.74456 0.179102 4.56546 0 4.34456 0Z" fill="rgb(196,196,196)" fill-rule="nonzero" transform="matrix(-1,0,0,1,15,3.67188)" />
		<path id="Vector" d="M4.34456 0L0.400005 0C0.179102 0 0 0.179102 0 0.400005C0 0.620908 0.179102 0.80001 0.400005 0.80001L4.34456 0.80001C4.56546 0.80001 4.74456 0.620908 4.74456 0.400005C4.74456 0.179102 4.56546 0 4.34456 0Z" fill="rgb(196,196,196)" fill-rule="nonzero" transform="matrix(-1,0,0,1,15,11.6406)" />
		<path id="Vector" d="M4.34456 0L0.400005 0C0.179102 0 0 0.179102 0 0.400005C0 0.620908 0.179102 0.80001 0.400005 0.80001L4.34456 0.80001C4.56546 0.80001 4.74456 0.620908 4.74456 0.400005C4.74456 0.179102 4.56546 0 4.34456 0Z" fill="rgb(196,196,196)" fill-rule="nonzero" transform="matrix(-1,0,0,1,15,7.65625)" />
	</g>
</svg>
