<svg viewBox="0 0 16 16" xmlns="http://www.w3.org/2000/svg" xmlns:xlink="http://www.w3.org/1999/xlink" width="16.000000" height="16.000000" fill="none">
	<rect id="car_7458138 1" width="16.000000" height="16.000000" x="0.000000" y="0.000000" fill="rgb(255,255,255)" fill-opacity="0" />
	<path id="Vector" d="M14.6667 8.9974L14.6667 13.9974C14.6667 14.1742 14.5964 14.3438 14.4714 14.4688C14.3464 14.5938 14.1768 14.6641 14 14.6641L13.3333 14.6641C13.1565 14.6641 12.9869 14.5938 12.8619 14.4688C12.7369 14.3438 12.6667 14.1742 12.6667 13.9974L12.6667 13.3307L3.33333 13.3307L3.33333 13.9974C3.33333 14.1742 3.26309 14.3438 3.13807 14.4688C3.01305 14.5938 2.84348 14.6641 2.66667 14.6641L2 14.6641C1.82319 14.6641 1.65362 14.5938 1.52859 14.4688C1.40357 14.3438 1.33333 14.1742 1.33333 13.9974L1.33333 8.9974L0.504667 8.79073C0.360502 8.7546 0.232539 8.6714 0.141103 8.5542C0.0496681 8.43706 3.90667e-06 8.29266 0 8.14406L0 7.66406C0 7.57566 0.0351189 7.49086 0.0976313 7.42833C0.160143 7.36586 0.244928 7.33073 0.333333 7.33073L1.58333 7.33073L3.00867 3.5294C3.10395 3.27519 3.27457 3.05613 3.49771 2.9015C3.72084 2.74686 3.98585 2.66403 4.25733 2.66406L11.7427 2.66406C12.0141 2.66403 12.2791 2.74686 12.5023 2.9015C12.7254 3.05613 12.8961 3.27519 12.9913 3.5294L14.4167 7.33073L15.6667 7.33073C15.7551 7.33073 15.8399 7.36586 15.9024 7.42833C15.9649 7.49086 16 7.57566 16 7.66406L16 8.14406C16 8.29266 15.9503 8.43706 15.8589 8.5542C15.7675 8.6714 15.6395 8.7546 15.4953 8.79073L14.6667 8.9974ZM2.66667 9.9974L2.66667 11.3307C2.66667 11.5075 2.73691 11.6771 2.86193 11.8021C2.98695 11.9271 3.15652 11.9974 3.33333 11.9974L5.49667 11.9974C5.55423 11.9973 5.61079 11.9823 5.66083 11.9539C5.71087 11.9254 5.7527 11.8845 5.78224 11.8351C5.81177 11.7857 5.82801 11.7295 5.82937 11.6719C5.83073 11.6144 5.81717 11.5575 5.79 11.5067C5.25333 10.5001 4.212 9.9974 2.66667 9.9974ZM13.3333 9.9974C11.7887 9.9974 10.7473 10.5007 10.2093 11.5067C10.1821 11.5575 10.1686 11.6145 10.1699 11.6721C10.1713 11.7297 10.1877 11.786 10.2173 11.8354C10.2469 11.8848 10.2888 11.9257 10.3389 11.9541C10.3891 11.9825 10.4457 11.9974 10.5033 11.9974L12.6667 11.9974C12.8435 11.9974 13.0131 11.9271 13.1381 11.8021C13.2631 11.6771 13.3333 11.5075 13.3333 11.3307L13.3333 9.9974ZM4 3.9974L2.95933 7.12006C2.92597 7.22026 2.91687 7.32686 2.93279 7.43126C2.94872 7.53566 2.9892 7.63473 3.05091 7.7204C3.11262 7.80606 3.19379 7.87586 3.28775 7.924C3.38171 7.97213 3.48575 7.99733 3.59133 7.9974L12.4087 7.9974C12.5143 7.99733 12.6183 7.97213 12.7123 7.924C12.8062 7.87586 12.8874 7.80606 12.9491 7.7204C13.0108 7.63473 13.0513 7.53566 13.0672 7.43126C13.0831 7.32686 13.074 7.22026 13.0407 7.12006L12 3.9974L4 3.9974Z" fill="rgb(196,196,196)" fill-rule="nonzero" />
</svg>
