<svg viewBox="0 0 16 16" xmlns="http://www.w3.org/2000/svg" xmlns:xlink="http://www.w3.org/1999/xlink" width="16.000000" height="16.000000" fill="none">
	<rect id="call_5890536 1" width="16.000000" height="16.000000" x="0.000000" y="0.000000" fill="rgb(255,255,255)" fill-opacity="0" />
	<g id="Layer_1" opacity="0">
		<g id="Group" opacity="0.230000004">
			<path id="Vector" d="M9.525 9.77344L6.3 6.54844C6 6.24844 6 5.77344 6.3 5.49844L7.225 4.57344C7.525 4.27344 7.525 3.79844 7.225 3.52344L5.825 2.12344C5.525 1.82344 5.05 1.82344 4.775 2.12344L1.85 4.99844C1.55 5.29844 1.55 5.77344 1.85 6.04844L10.2 14.3984C10.5 14.6984 10.975 14.6984 11.25 14.3984L14.15 11.4984C14.45 11.1984 14.45 10.7234 14.15 10.4484L12.575 8.87344C12.275 8.57344 11.8 8.57344 11.525 8.87344L10.575 9.77344C10.275 10.0734 9.8 10.0734 9.525 9.77344Z" fill-rule="nonzero" stroke="rgb(0,0,0)" stroke-linecap="round" stroke-linejoin="round" stroke-width="0.500000" />
		</g>
	</g>
	<g id="Layer_3">
		<g id="Group">
			<path id="Vector" d="M15 5.77656L15 10.2516C15 10.8266 14.525 11.3016 13.95 11.3016L12.275 11.3016C11.7 11.3016 11.225 10.8266 11.225 10.2516L11.225 8.80156C11.225 8.22656 10.75 7.75156 10.175 7.75156L5.8 7.75156C5.225 7.75156 4.75 8.22656 4.75 8.80156L4.75 10.2516C4.75 10.8266 4.275 11.3016 3.7 11.3016L2.05 11.3016C1.475 11.3016 1 10.8266 1 10.2516L1 5.77656C1 5.20156 1.475 4.72656 2.05 4.72656L13.975 4.72656C14.525 4.72656 15 5.20156 15 5.77656Z" fill="rgb(196,196,196)" fill-rule="nonzero" />
		</g>
	</g>
</svg>
