<svg viewBox="0 0 16 16" xmlns="http://www.w3.org/2000/svg" xmlns:xlink="http://www.w3.org/1999/xlink" width="16.000000" height="16.000000" fill="none">
	<rect id="airbag_7745358 1" width="16.000000" height="16.000000" x="0.000000" y="0.000000" fill="rgb(255,255,255)" fill-opacity="0" />
	<g id="Group">
		<path id="Vector" d="M15.2185 0.5762C14.705 0.488226 14.2174 0.833153 14.1295 1.34665L13.997 1.93669C13.9277 2.2453 13.9604 2.55844 14.0772 2.83596C14.0987 2.8334 14.1199 2.83112 14.1407 2.82912C14.222 2.82134 14.3043 2.8174 14.3855 2.8174C14.8915 2.8174 15.3677 2.97078 15.7397 3.24552L15.9909 1.65383C16.0718 1.14373 15.7276 0.663392 15.2185 0.5762Z" fill="rgb(196,196,196)" fill-rule="nonzero" />
		<path id="Vector" d="M0 4.50003L0 6.37514C0 6.63403 0.209888 6.84392 0.468778 6.84392L1.38574 6.84392L1.38574 4.03125L0.468778 4.03125C0.209888 4.03125 0 4.24114 0 4.50003Z" fill="rgb(196,196,196)" fill-rule="nonzero" />
		<path id="Vector" d="M3.26178 2.88284C3.26178 2.62436 3.05148 2.41406 2.793 2.41406C2.53451 2.41406 2.32422 2.62436 2.32422 2.88284L2.32422 7.99181C2.32422 8.25029 2.53451 8.46058 2.793 8.46058C3.05148 8.46058 3.26178 8.25029 3.26178 7.99181L3.26178 2.88284Z" fill="rgb(196,196,196)" fill-rule="nonzero" />
		<path id="Vector" d="M6.47236 10.1105C7.19865 10.1105 7.85244 9.57841 8.31325 8.61229C8.72143 7.75658 8.94619 6.62926 8.94619 5.43803C8.94619 4.2468 8.72143 3.11952 8.31325 2.26381C7.85244 1.29769 7.19865 0.765625 6.47236 0.765625C5.75478 0.765625 4.92054 1.29444 4.24075 2.18024C4.22538 2.20031 4.21038 2.22059 4.19531 2.24081C4.19753 2.59761 4.19531 8.63532 4.19531 8.63532C4.21038 8.65557 4.22538 8.67585 4.24075 8.69589C4.92054 9.58163 5.75481 10.1105 6.47236 10.1105Z" fill="rgb(196,196,196)" fill-rule="nonzero" />
		<path id="Vector" d="M14.2249 3.76529C13.5852 3.82639 13.0227 4.19285 12.5531 4.85442C12.2556 5.27338 11.998 5.80454 11.7655 6.47824C11.1628 8.22469 11.0853 10.0997 11.5531 11.6226C11.5705 11.6793 11.5891 11.7358 11.6081 11.7921C10.5754 11.4367 9.39468 11.1992 8.21442 11.1142C6.73655 11.0079 5.3804 11.1385 4.2924 11.4921C3.53814 11.7372 3.10077 12.5261 3.29672 13.2881C3.29997 13.3009 3.30381 13.3135 3.30815 13.3259L3.93444 15.1192C4.00016 15.3074 4.17768 15.4335 4.377 15.4335L13.3266 15.4335C13.5515 15.4335 13.7447 15.2738 13.787 15.0528L14.0946 13.4466C14.0981 13.4285 14.1001 13.4105 14.1014 13.3925C13.8468 13.6465 13.4957 13.8039 13.1085 13.8039C12.333 13.8039 11.7021 13.173 11.7021 12.3975C11.7021 11.6221 12.333 10.9912 13.1085 10.9912C13.6391 10.9912 14.1018 11.2867 14.3413 11.7216L15.5519 4.97693C15.6084 4.6525 15.5252 4.35048 15.3178 4.12647C15.0699 3.85858 14.6616 3.72351 14.2249 3.76529Z" fill="rgb(196,196,196)" fill-rule="nonzero" />
		<path id="Vector" d="M13.1094 12.8672C13.3683 12.8672 13.5782 12.6574 13.5782 12.3985C13.5782 12.1396 13.3683 11.9297 13.1094 11.9297C12.8505 11.9297 12.6406 12.1396 12.6406 12.3985C12.6406 12.6574 12.8505 12.8672 13.1094 12.8672Z" fill="rgb(196,196,196)" fill-rule="evenodd" />
	</g>
</svg>
