<svg viewBox="0 0 16 16" xmlns="http://www.w3.org/2000/svg" xmlns:xlink="http://www.w3.org/1999/xlink" width="16.000000" height="16.000000" fill="none">
	<rect id="chassis_310738 1" width="16.000000" height="16.000000" x="0.000000" y="0.000000" fill="rgb(255,255,255)" fill-opacity="0" />
	<g id="Group">
		<g id="Group">
			<path id="Vector" d="M12.5157 5.65975C13.4771 5.65975 14.2593 4.87759 14.2593 3.91619L14.2593 1.74356C14.2593 0.782156 13.4771 0 12.5157 0C11.5543 0 10.7721 0.782156 10.7721 1.74356L10.7721 2.13591L5.22928 2.13591L5.22928 1.74356C5.22931 0.782156 4.44716 0 3.48578 0C2.52437 0 1.74219 0.782156 1.74219 1.74356L1.74219 3.91619C1.74219 4.87759 2.52437 5.65975 3.48578 5.65975C4.44719 5.65975 5.22934 4.87759 5.22934 3.91619L5.22934 3.52384L7.30675 3.52384L7.30675 8.11987L6.61262 8.11987C6.32519 8.11987 6.09216 8.35291 6.09216 8.64034L6.09216 11.4807C6.09216 11.7681 6.32519 12.0012 6.61262 12.0012L7.30675 12.0012L7.30675 12.4761L5.22934 12.4761L5.22934 12.0838C5.22934 11.1224 4.44719 10.3402 3.48578 10.3402C2.52437 10.3402 1.74219 11.1224 1.74219 12.0838L1.74219 14.2564C1.74219 15.2178 2.52437 16 3.48578 16C4.44719 16 5.22934 15.2178 5.22934 14.2564L5.22934 13.8641L10.7722 13.8641L10.7722 14.2564C10.7722 15.2178 11.5543 16 12.5157 16C13.4771 16 14.2593 15.2178 14.2593 14.2564L14.2593 12.0838C14.2593 11.1224 13.4771 10.3402 12.5157 10.3402C11.5543 10.3402 10.7722 11.1224 10.7722 12.0838L10.7722 12.4761L8.69472 12.4761L8.69472 12.0012L9.453 12.0012C9.74044 12.0012 9.97347 11.7681 9.97347 11.4807L9.97347 8.64034C9.97347 8.35291 9.74044 8.11987 9.453 8.11987L8.69472 8.11987L8.69472 3.52384L10.7722 3.52384L10.7722 3.91619C10.7721 4.87759 11.5543 5.65975 12.5157 5.65975Z" fill="rgb(196,196,196)" fill-rule="nonzero" />
		</g>
	</g>
</svg>
