<svg viewBox="0 0 16 16" xmlns="http://www.w3.org/2000/svg" xmlns:xlink="http://www.w3.org/1999/xlink" width="16.000000" height="16.000000" fill="none">
	<rect id="energy_3292390 1" width="16.000000" height="16.000000" x="0.000000" y="0.000000" fill="rgb(255,255,255)" fill-opacity="0" />
	<path id="Vector" d="M4.7794 15.9503C4.59893 15.8601 4.49643 15.6645 4.52497 15.4648L5.45271 8.97072L1.97656 8.97072C1.81412 8.97072 1.66325 8.88663 1.57781 8.74841C1.4924 8.61022 1.48465 8.43766 1.55731 8.29234L5.57397 0.259125C5.65334 0.100313 5.81568 0 5.99322 0L13.0224 0C13.1848 0 13.3357 0.0840937 13.4212 0.222312C13.5066 0.3605 13.5143 0.533063 13.4417 0.678375L10.7683 6.02494L14.0266 6.02494C14.2162 6.02494 14.3871 6.13912 14.4596 6.31431C14.5322 6.48947 14.4921 6.69109 14.358 6.82513L5.3205 15.8625C5.18831 15.9947 4.97243 16.0469 4.7794 15.9503Z" fill="rgb(196,196,196)" fill-rule="nonzero" />
</svg>
