<svg viewBox="0 0 16 16" xmlns="http://www.w3.org/2000/svg" xmlns:xlink="http://www.w3.org/1999/xlink" width="16.000000" height="16.000000" fill="none">
	<rect id="dashboard_11876528 1" width="16.000000" height="16.000000" x="0.000000" y="0.000000" fill="rgb(255,255,255)" fill-opacity="0" />
	<g id="Group">
		<path id="Vector" d="M15.5677 9.68115C15.234 5.98395 12.2042 3.03554 8.50094 2.79747C4.07529 2.5126 0.398438 6.0165 0.398438 10.3811C0.398438 11.1218 0.50425 11.836 0.701618 12.5115C0.862361 13.067 1.45855 13.36 2.00185 13.1688C3.62967 12.5929 5.71939 12.247 7.99834 12.247C10.2773 12.247 12.367 12.5929 13.9949 13.1688C14.5341 13.36 15.1303 13.0731 15.291 12.5217C15.5535 11.6325 15.6552 10.6741 15.5677 9.68115ZM7.59953 3.71516L8.39717 3.71516L8.39717 5.36129L7.59953 5.36129L7.59953 3.71516ZM2.97854 10.7799L1.3324 10.7799L1.3324 9.98229L2.97854 9.98229L2.97854 10.7799ZM4.16686 7.11325L3.00296 5.94935L3.56659 5.38572L4.73048 6.54961L4.16686 7.11325ZM8.60472 10.9875C8.27101 11.3212 7.72569 11.3212 7.39198 10.9875C7.05827 10.6538 7.05827 10.1084 7.39198 9.77474L10.2366 7.6952L10.6843 8.14285L8.60472 10.9875ZM11.8298 7.11325L11.2662 6.54961L12.4301 5.38572L12.9937 5.94935L11.8298 7.11325ZM14.6643 10.7799L13.0182 10.7799L13.0182 9.98229L14.6643 9.98229L14.6643 10.7799Z" fill="rgb(196,196,196)" fill-rule="nonzero" />
	</g>
</svg>
