<svg viewBox="0 0 16 16" xmlns="http://www.w3.org/2000/svg" xmlns:xlink="http://www.w3.org/1999/xlink" width="16.000000" height="16.000000" fill="none">
	<rect id="shield_4824129 1" width="16.000000" height="16.000000" x="0.000000" y="0.000000" fill="rgb(255,255,255)" fill-opacity="0" />
	<g id="Shield Checklist">
		<path id="Vector" d="M15.1976 3.04014L8.19761 0.0401392C8.13531 0.0136518 8.06831 -4.76507e-17 8.00061 5.42101e-20C7.93291 -3.37729e-17 7.86591 0.0136518 7.80361 0.0401392L0.80361 3.04014C0.709654 3.08027 0.630247 3.14822 0.576075 3.23484C0.521903 3.32146 0.495566 3.4226 0.50061 3.52464L0.66061 6.73214C0.769767 8.82398 1.51794 10.832 2.80418 12.4853C4.09042 14.1385 5.85283 15.3575 7.85361 15.9776C7.9494 16.0071 8.05182 16.0071 8.14761 15.9776C10.1482 15.3573 11.9104 14.1383 13.1966 12.485C14.4827 10.8318 15.2308 8.82388 15.3401 6.73214L15.5006 3.52464C15.5057 3.4226 15.4793 3.32146 15.4251 3.23484C15.371 3.14822 15.2916 3.08027 15.1976 3.04014ZM11.3541 6.35314L7.35411 10.3531C7.26035 10.4469 7.13319 10.4995 7.00061 10.4995C6.86803 10.4995 6.74087 10.4469 6.64711 10.3531L4.64711 8.35314C4.55603 8.25884 4.50563 8.13254 4.50677 8.00144C4.50791 7.87034 4.5605 7.74493 4.6532 7.65223C4.7459 7.55953 4.87131 7.50694 5.00241 7.5058C5.13351 7.50466 5.25981 7.55506 5.35411 7.64614L7.00061 9.29264L10.6471 5.64614C10.7414 5.55506 10.8677 5.50466 10.9988 5.5058C11.1299 5.50694 11.2553 5.55953 11.348 5.65223C11.4407 5.74493 11.4933 5.87034 11.4944 6.00144C11.4956 6.13254 11.4452 6.25884 11.3541 6.35314Z" fill="rgb(196,196,196)" fill-rule="nonzero" />
	</g>
</svg>
