<svg viewBox="0 0 16 16" xmlns="http://www.w3.org/2000/svg" xmlns:xlink="http://www.w3.org/1999/xlink" width="16.000000" height="16.000000" fill="none">
	<rect id="steering-wheel_2316684 1" width="16.000000" height="16.000000" x="0.000000" y="0.000000" fill="rgb(255,255,255)" fill-opacity="0" />
	<g id="01-steer">
		<path id="Vector" d="M8 0C6.41775 5.18104e-16 4.87103 0.469192 3.55544 1.34824C2.23985 2.22729 1.21447 3.47672 0.608967 4.93853C0.00346631 6.40034 -0.15496 8.00887 0.153721 9.56072C0.462403 11.1126 1.22433 12.538 2.34315 13.6569C3.46197 14.7757 4.88743 15.5376 6.43928 15.8463C7.99113 16.155 9.59966 15.9965 11.0615 15.391C12.5233 14.7855 13.7727 13.7602 14.6518 12.4446C15.5308 11.129 16 9.58225 16 8C15.9976 5.879 15.154 3.84555 13.6542 2.34578C12.1545 0.846002 10.121 0.00238211 8 0ZM2.4 9.90575C3.58703 9.64366 4.79263 9.47423 6.00592 9.399C6.00592 9.399 6.39342 10.9284 6.575 13.7417C5.61447 13.501 4.72935 13.0241 4.00018 12.3541C3.27101 11.6842 2.72094 10.8425 2.4 9.90575ZM8 9.33333C7.86815 9.33333 7.73926 9.29424 7.62962 9.22098C7.51999 9.14773 7.43454 9.04361 7.38408 8.92179C7.33363 8.79997 7.32042 8.66593 7.34615 8.53661C7.37187 8.40729 7.43536 8.2885 7.5286 8.19526C7.62183 8.10203 7.74062 8.03853 7.86994 8.01281C7.99926 7.98709 8.13331 8.00029 8.25513 8.05075C8.37694 8.10121 8.48106 8.18666 8.55432 8.29629C8.62757 8.40592 8.66667 8.53481 8.66667 8.66667C8.66667 8.84348 8.59643 9.01305 8.47141 9.13807C8.34639 9.2631 8.17682 9.33333 8 9.33333ZM9.425 13.7422C9.60634 10.9273 9.99434 9.399 9.99434 9.399C11.2076 9.47429 12.4132 9.6438 13.6003 9.906C13.2793 10.8428 12.7292 11.6845 12 12.3545C11.2708 13.0245 10.3856 13.5015 9.425 13.7422ZM8 6.66667C5.98376 6.67453 3.98419 7.03234 2.09034 7.72417C2.16129 6.20071 2.81788 4.76351 3.92307 3.71255C5.02826 2.66158 6.49664 2.07806 8.02174 2.08377C9.54685 2.08947 11.0108 2.68398 12.1081 3.74319C13.2054 4.8024 13.8512 6.24447 13.9108 7.76842C12.0227 7.0489 10.0205 6.67568 8 6.66667Z" fill="rgb(196,196,196)" fill-rule="nonzero" />
	</g>
</svg>
