<svg viewBox="0 0 48 48" xmlns="http://www.w3.org/2000/svg" xmlns:xlink="http://www.w3.org/1999/xlink" width="48.000000" height="48.000000" fill="none">
	<rect id="facebook-svgrepo-com 1" width="48.000000" height="48.000000" x="0.000000" y="0.000000" fill="rgb(255,255,255)" fill-opacity="0" />
	<path id="Vector" d="M24 4.08008C13 4.08008 4 13.0601 4 24.1201C4 34.1201 11.32 42.4201 20.88 43.9201L20.88 29.9201L15.8 29.9201L15.8 24.1201L20.88 24.1201L20.88 19.7001C20.88 14.6801 23.86 11.9201 28.44 11.9201C30.62 11.9201 32.9 12.3001 32.9 12.3001L32.9 17.2401L30.38 17.2401C27.9 17.2401 27.12 18.7801 27.12 20.3601L27.12 24.1201L32.68 24.1201L31.78 29.9201L27.12 29.9201L27.12 43.9201C31.8328 43.1757 36.1244 40.7711 39.2198 37.1401C42.3152 33.5093 44.0108 28.8913 44 24.1201C44 13.0601 35 4.08008 24 4.08008Z" fill="rgb(255,255,255)" fill-rule="nonzero" />
</svg>
