<svg width="28.000000" height="28.000000" viewBox="0 0 28 28" fill="none" xmlns="http://www.w3.org/2000/svg" xmlns:xlink="http://www.w3.org/1999/xlink">
	<desc>
			Created with Pixso.
	</desc>
	<defs>
		<clipPath id="clip118_378">
			<rect id="globe" width="28.000000" height="28.000000" transform="translate(-0.500000 0.000000)" fill="white" fill-opacity="0"/>
		</clipPath>
	</defs>
	<rect id="globe" width="28.000000" height="28.000000" transform="translate(-0.500000 0.000000)" fill="#FFFFFF" fill-opacity="0"/>
	<g clip-path="url(#clip118_378)">
		<path id="Vector" d="M13.49 25.66C7.05 25.66 1.83 20.44 1.83 13.99C1.83 7.55 7.05 2.33 13.49 2.33C19.94 2.33 25.16 7.55 25.16 13.99C25.16 20.44 19.94 25.66 13.49 25.66Z" stroke="#FFFFFF" stroke-opacity="1.000000" stroke-width="2.000000" stroke-linejoin="round"/>
		<path id="Vector" d="M1.83 14L25.16 14" stroke="#FFFFFF" stroke-opacity="1.000000" stroke-width="2.000000" stroke-linejoin="round" stroke-linecap="round"/>
		<path id="Vector" d="M18.16 13.99C18.07 18.32 16.41 22.47 13.49 25.66C10.58 22.47 8.92 18.32 8.83 13.99C8.92 9.67 10.58 5.52 13.49 2.33C16.41 5.52 18.07 9.67 18.16 13.99Z" stroke="#FFFFFF" stroke-opacity="1.000000" stroke-width="2.000000" stroke-linejoin="round"/>
	</g>
</svg>
