<svg viewBox="0 0 38 38" xmlns="http://www.w3.org/2000/svg" xmlns:xlink="http://www.w3.org/1999/xlink" width="38.000000" height="38.000000" fill="none">
	<rect id="help-circle" width="38.000000" height="38.000000" x="0.000000" y="0.000000" fill="rgb(255,255,255)" fill-opacity="0" />
	<path id="Vector (Stroke)" d="M19.0026 4.75065C11.1325 4.75065 4.7526 11.1306 4.7526 19.0006C4.7526 26.8707 11.1325 33.2506 19.0026 33.2506C26.8727 33.2506 33.2526 26.8707 33.2526 19.0006C33.2526 11.1306 26.8727 4.75065 19.0026 4.75065ZM1.58594 19.0006C1.58594 9.38169 9.38364 1.58398 19.0026 1.58398C28.6216 1.58398 36.4193 9.38169 36.4193 19.0006C36.4193 28.6196 28.6216 36.4173 19.0026 36.4173C9.38364 36.4173 1.58594 28.6196 1.58594 19.0006Z" fill="rgb(254,254,254)" fill-rule="evenodd" />
	<path id="Vector (Stroke)" d="M19.4085 12.7044C18.6715 12.578 17.9134 12.7165 17.2687 13.0954C16.624 13.4744 16.1341 14.0692 15.886 14.7747C15.5958 15.5996 14.6918 16.0331 13.8669 15.7429C13.042 15.4527 12.6086 14.5488 12.8987 13.7239C13.3951 12.3129 14.3747 11.1232 15.6642 10.3654C16.9537 9.60753 18.4697 9.33051 19.9439 9.58336C21.418 9.83622 22.7551 10.6026 23.7184 11.7469C24.6814 12.8909 25.2085 14.3387 25.2065 15.8341C25.2058 18.2571 23.4093 19.8573 22.1265 20.7125C21.4367 21.1724 20.7582 21.5105 20.2584 21.7326C20.0063 21.8447 19.794 21.9297 19.641 21.988C19.5643 22.0172 19.5022 22.0398 19.457 22.0559L19.402 22.0752L19.3845 22.0811L19.3783 22.0832L19.3759 22.084C19.3754 22.0842 19.3739 22.0847 18.8732 20.5826L19.3739 22.0847C18.5443 22.3612 17.6476 21.9129 17.3711 21.0833C17.0948 20.2543 17.5423 19.3582 18.3708 19.0811L18.3688 19.0818C18.369 19.0817 18.3691 19.0817 18.3708 19.0811L18.3961 19.0722C18.4205 19.0636 18.4604 19.0491 18.5136 19.0288C18.6204 18.9881 18.7792 18.9247 18.9723 18.8389C19.3631 18.6652 19.8722 18.4095 20.3699 18.0777C21.4618 17.3498 22.0399 16.5754 22.0399 15.8326L22.0399 15.8303C22.041 15.0824 21.7774 14.3583 21.2958 13.7862C20.8142 13.2141 20.1456 12.8309 19.4085 12.7044Z" fill="rgb(254,254,254)" fill-rule="evenodd" />
	<path id="Vector (Stroke)" d="M17.4141 26.9173C17.4141 26.0429 18.1229 25.334 18.9974 25.334L19.0132 25.334C19.8877 25.334 20.5966 26.0429 20.5966 26.9173C20.5966 27.7918 19.8877 28.5006 19.0132 28.5006L18.9974 28.5006C18.1229 28.5006 17.4141 27.7918 17.4141 26.9173Z" fill="rgb(254,254,254)" fill-rule="evenodd" />
</svg>
