<svg width="24.000000" height="24.000000" viewBox="0 0 24 24" fill="none" xmlns="http://www.w3.org/2000/svg" xmlns:xlink="http://www.w3.org/1999/xlink">
		<path id="Vector" d="M1.06 11.65C1.87 9.68 3.25 8 5.02 6.81C6.78 5.63 8.87 5 11 5C13.13 5 15.21 5.63 16.97 6.81C18.75 8 20.12 9.68 20.93 11.65C21.02 11.87 21.02 12.12 20.93 12.34C20.12 14.31 18.75 15.99 16.97 17.18C15.21 18.36 13.13 18.99 11 18.99C8.87 18.99 6.78 18.36 5.02 17.18C3.25 15.99 1.87 14.31 1.06 12.34C0.97 12.12 0.97 11.87 1.06 11.65Z" stroke="" stroke-opacity="1.000000" stroke-width="2.000000" stroke-linejoin="round"/>
		<path id="Vector" d="M11 15C9.34 15 8 13.65 8 12C8 10.34 9.34 9 11 9C12.65 9 14 10.34 14 12C14 13.65 12.65 15 11 15Z" stroke="" stroke-opacity="1.000000" stroke-width="2.000000" stroke-linejoin="round"/>
</svg>
