<svg viewBox="0 0 24 24" xmlns="http://www.w3.org/2000/svg" xmlns:xlink="http://www.w3.org/1999/xlink" width="24.000000" height="24.000000" fill="none">
	<rect id="bar-chart-2" width="24.000000" height="24.000000" x="0.000000" y="0.000000" fill="rgb(255,255,255)" fill-opacity="0" />
	<path id="Vector (Stroke)" d="M17 20L17 10C17 9.44771 17.4477 9 18 9C18.5523 9 19 9.44771 19 10L19 20C19 20.5523 18.5523 21 18 21C17.4477 21 17 20.5523 17 20Z" fill="rgb(254,254,254)" fill-rule="nonzero" />
	<path id="Vector (Stroke)" d="M11 20L11 4C11 3.44772 11.4477 3 12 3C12.5523 3 13 3.44772 13 4L13 20C13 20.5523 12.5523 21 12 21C11.4477 21 11 20.5523 11 20Z" fill="rgb(254,254,254)" fill-rule="nonzero" />
	<path id="Vector (Stroke)" d="M5 20L5 14C5 13.4477 5.44772 13 6 13C6.55228 13 7 13.4477 7 14L7 20C7 20.5523 6.55228 21 6 21C5.44772 21 5 20.5523 5 20Z" fill="rgb(254,254,254)" fill-rule="nonzero" />
</svg>
