<svg viewBox="0 0 24 24" xmlns="http://www.w3.org/2000/svg" xmlns:xlink="http://www.w3.org/1999/xlink" width="24.000000" height="24.000000" fill="none">
	<rect id="calendar" width="24.000000" height="24.000000" x="0.000000" y="0.000000" fill="rgb(255,255,255)" fill-opacity="0" />
	<path id="Vector (Stroke)" d="M5 5C4.44772 5 4 5.44772 4 6L4 20C4 20.5523 4.44772 21 5 21L19 21C19.5523 21 20 20.5523 20 20L20 6C20 5.44772 19.5523 5 19 5L5 5ZM2 6C2 4.34315 3.34315 3 5 3L19 3C20.6569 3 22 4.34315 22 6L22 20C22 21.6569 20.6569 23 19 23L5 23C3.34315 23 2 21.6569 2 20L2 6Z" fill="rgb(154,154,154)" fill-rule="evenodd" />
	<path id="Vector (Stroke)" d="M16 1C16.5523 1 17 1.44772 17 2L17 6C17 6.55228 16.5523 7 16 7C15.4477 7 15 6.55228 15 6L15 2C15 1.44772 15.4477 1 16 1Z" fill="rgb(154,154,154)" fill-rule="evenodd" />
	<path id="Vector (Stroke)" d="M8 1C8.55228 1 9 1.44772 9 2L9 6C9 6.55228 8.55228 7 8 7C7.44772 7 7 6.55228 7 6L7 2C7 1.44772 7.44772 1 8 1Z" fill="rgb(154,154,154)" fill-rule="evenodd" />
	<path id="Vector (Stroke)" d="M2 10C2 9.44771 2.44772 9 3 9L21 9C21.5523 9 22 9.44771 22 10C22 10.5523 21.5523 11 21 11L3 11C2.44772 11 2 10.5523 2 10Z" fill="rgb(154,154,154)" fill-rule="evenodd" />
</svg>
