<svg viewBox="0 0 24 24" xmlns="http://www.w3.org/2000/svg" xmlns:xlink="http://www.w3.org/1999/xlink" width="24.000000" height="24.000000" fill="none" clip-path="url(#clipPath_0)" customFrame="url(#clipPath_0)">
	<defs>
		<clipPath id="clipPath_0">
			<rect width="24.000000" height="24.000000" x="0.000000" y="0.000000" rx="2.000000" fill="rgb(255,255,255)" />
		</clipPath>
		<clipPath id="clipPath_1">
			<rect width="16.799999" height="16.799999" x="3.601562" y="3.601562" fill="rgb(255,255,255)" />
		</clipPath>
	</defs>
	<rect id="_Checkbox base" width="24.000000" height="24.000000" x="0.000000" y="0.000000" rx="2.000000" fill="rgb(254,254,254)" />
	<g id="check" opacity="0" clip-path="url(#clipPath_1)" customFrame="url(#clipPath_1)">
		<rect id="check" width="16.799999" height="16.799999" x="3.601562" y="3.601562" />
		<path id="Icon" d="M18.3055 8.50789C18.6961 8.11736 18.6961 7.4842 18.3055 7.09367C17.915 6.70315 17.2819 6.70315 16.8913 7.09367L18.3055 8.50789ZM9.89844 15.5008L9.19133 16.2079C9.58186 16.5984 10.215 16.5984 10.6055 16.2079L9.89844 15.5008ZM7.10554 11.2937C6.71502 10.9032 6.08185 10.9032 5.69133 11.2937C5.30081 11.6842 5.30081 12.3174 5.69133 12.7079L7.10554 11.2937ZM16.8913 7.09367L9.19133 14.7937L10.6055 16.2079L18.3055 8.50789L16.8913 7.09367ZM10.6055 14.7937L7.10554 11.2937L5.69133 12.7079L9.19133 16.2079L10.6055 14.7937Z" fill-rule="nonzero" stroke="rgb(0,151,250)" stroke-linecap="round" stroke-linejoin="round" stroke-width="2.000000" />
	</g>
	<rect id="_Checkbox base" width="23.000000" height="23.000000" x="0.500000" y="0.500000" rx="1.500000" stroke="rgb(224,224,224)" stroke-width="1.000000" />
</svg>
