<svg viewBox="0 0 24 24" xmlns="http://www.w3.org/2000/svg" xmlns:xlink="http://www.w3.org/1999/xlink" width="24.000000" height="24.000000" fill="none">
	<rect id="clock" width="24.000000" height="24.000000" x="0.000000" y="0.000000" fill="rgb(255,255,255)" fill-opacity="0" />
	<path id="Vector (Stroke)" d="M12 3C7.02944 3 3 7.02944 3 12C3 16.9706 7.02944 21 12 21C16.9706 21 21 16.9706 21 12C21 7.02944 16.9706 3 12 3ZM1 12C1 5.92487 5.92487 1 12 1C18.0751 1 23 5.92487 23 12C23 18.0751 18.0751 23 12 23C5.92487 23 1 18.0751 1 12Z" fill="rgb(254,254,254)" fill-rule="evenodd" />
	<path id="Vector (Stroke)" d="M12 4.99976C12.5523 4.99976 13 5.44747 13 5.99976L13 11.3817L16.4472 13.1053C16.9412 13.3523 17.1414 13.953 16.8944 14.447C16.6474 14.9409 16.0468 15.1412 15.5528 14.8942L11.5528 12.8942C11.214 12.7248 11 12.3785 11 11.9998L11 5.99976C11 5.44747 11.4477 4.99976 12 4.99976Z" fill="rgb(254,254,254)" fill-rule="evenodd" />
</svg>
