<svg viewBox="0 0 40 40" xmlns="http://www.w3.org/2000/svg" xmlns:xlink="http://www.w3.org/1999/xlink" width="40.000000" height="40.000000" fill="none">
	<rect id="copy" width="40.000000" height="40.000000" x="0.000000" y="0.000000" fill="rgb(255,255,255)" fill-opacity="0" />
	<path id="Vector (Stroke)" d="M18.332 16.6673C17.4116 16.6673 16.6654 17.4135 16.6654 18.334L16.6654 33.334C16.6654 34.2545 17.4116 35.0006 18.332 35.0006L33.332 35.0006C34.2525 35.0006 34.9987 34.2545 34.9987 33.334L34.9987 18.334C34.9987 17.4135 34.2525 16.6673 33.332 16.6673L18.332 16.6673ZM13.332 18.334C13.332 15.5726 15.5706 13.334 18.332 13.334L33.332 13.334C36.0935 13.334 38.332 15.5726 38.332 18.334L38.332 33.334C38.332 36.0954 36.0935 38.334 33.332 38.334L18.332 38.334C15.5706 38.334 13.332 36.0954 13.332 33.334L13.332 18.334Z" fill="rgb(254,254,254)" fill-rule="evenodd" />
	<path id="Vector (Stroke)" d="M6.66797 4.99935C6.22594 4.99935 5.80202 5.17494 5.48946 5.4875C5.1769 5.80006 5.0013 6.22399 5.0013 6.66602L5.0013 21.666C5.0013 22.108 5.1769 22.532 5.48946 22.8445C5.80202 23.1571 6.22594 23.3327 6.66797 23.3327L8.33463 23.3327C9.25511 23.3327 10.0013 24.0789 10.0013 24.9993C10.0013 25.9198 9.25511 26.666 8.33463 26.666L6.66797 26.666C5.34189 26.666 4.07012 26.1392 3.13243 25.2015C2.19475 24.2639 1.66797 22.9921 1.66797 21.666L1.66797 6.66602C1.66797 5.33993 2.19475 4.06816 3.13243 3.13048C4.07012 2.1928 5.34189 1.66602 6.66797 1.66602L21.668 1.66602C22.9941 1.66602 24.2658 2.1928 25.2035 3.13048C26.1412 4.06816 26.668 5.33993 26.668 6.66602L26.668 8.33268C26.668 9.25316 25.9218 9.99935 25.0013 9.99935C24.0808 9.99935 23.3346 9.25316 23.3346 8.33268L23.3346 6.66602C23.3346 6.22399 23.159 5.80007 22.8465 5.4875C22.5339 5.17494 22.11 4.99935 21.668 4.99935L6.66797 4.99935Z" fill="rgb(254,254,254)" fill-rule="evenodd" />
</svg>
