<svg viewBox="0 0 24 24" xmlns="http://www.w3.org/2000/svg" xmlns:xlink="http://www.w3.org/1999/xlink" width="24.000000" height="24.000000" fill="none">
	<rect id="money-integral-line-svgrepo-com 1" width="24.000000" height="24.000000" x="0.000000" y="0.000000" fill="rgb(255,255,255)" fill-opacity="0" />
	<path id="Vector" d="M22.3125 5.94859C22.3125 4.0225 19.7332 2.57031 16.3125 2.57031C12.8918 2.57031 10.3125 4.0225 10.3125 5.94859C10.3125 5.9657 10.3162 5.98188 10.3167 5.99875L10.3125 5.99875L10.3125 8.57008L12.0267 8.57008L12.0267 8.35773C13.0995 8.96266 14.6004 9.32641 16.3125 9.32641C17.892 9.32641 19.2874 9.01398 20.337 8.49109C20.4996 8.65938 20.5983 8.82672 20.5983 8.97344C20.5983 9.63555 18.889 10.637 16.3125 10.637L14.5987 10.637L14.5987 12.3512L16.3125 12.3512C17.8922 12.3512 19.2881 12.0388 20.3377 11.5157C20.5005 11.6838 20.598 11.8511 20.598 11.9985C20.598 12.6611 18.8887 13.6626 16.3123 13.6626L15.7055 13.6654C15.3326 13.6687 14.9714 13.6722 14.6194 13.6628L14.5774 15.3763C14.7659 15.381 14.9566 15.3827 15.1512 15.3827C15.337 15.3827 15.5262 15.3815 15.7184 15.3798L16.3123 15.377C17.8929 15.377 19.2893 15.0641 20.3391 14.5405C20.5024 14.71 20.5978 14.8783 20.5978 15.0238C20.5978 15.6864 18.8885 16.6879 16.312 16.6879L14.5983 16.6879L14.5983 18.4021L16.312 18.4021C17.8927 18.4021 19.2888 18.0892 20.3388 17.5656C20.5024 17.7348 20.5978 17.9031 20.5978 18.0489C20.5978 18.7115 18.8885 19.713 16.312 19.713L14.5983 19.713L14.5983 21.4272L16.312 21.4272C19.7327 21.4272 22.312 19.975 22.312 18.0489C22.312 18.033 22.3099 18.0149 22.3095 17.9988L22.312 17.9988L22.312 5.99875L22.3078 5.99875C22.3085 5.98188 22.3125 5.96547 22.3125 5.94859ZM12.0267 5.94859C12.0267 5.28602 13.736 4.28453 16.3125 4.28453C18.889 4.28453 20.5983 5.28602 20.5983 5.94859C20.5983 6.6107 18.889 7.61219 16.3125 7.61219C13.736 7.61219 12.0267 6.6107 12.0267 5.94859Z" fill="rgb(254,254,254)" fill-rule="nonzero" />
	<path id="Vector" d="M7.74219 8.57031C4.32148 8.57031 1.74219 10.0225 1.74219 11.9486C1.74219 11.9657 1.74594 11.9819 1.74641 11.9988L1.74219 11.9988L1.74219 17.9988C1.74219 19.9248 4.32148 21.377 7.74219 21.377C11.1629 21.377 13.7422 19.9248 13.7422 17.9988L13.7422 11.999L13.738 11.999C13.7384 11.9821 13.7422 11.9657 13.7422 11.9488C13.7422 10.0227 11.1629 8.57031 7.74219 8.57031ZM3.45641 14.9739C3.45641 14.8258 3.5532 14.6587 3.71609 14.4906C4.76586 15.014 6.16203 15.3266 7.74219 15.3266C9.32164 15.3266 10.7171 15.0142 11.7666 14.4913C11.9293 14.6596 12.028 14.827 12.028 14.9737C12.028 15.6358 10.3187 16.6373 7.74219 16.6373C5.1657 16.6373 3.45641 15.636 3.45641 14.9739ZM7.74219 10.2848C10.3187 10.2848 12.028 11.2863 12.028 11.9488C12.028 12.6109 10.3187 13.6124 7.74219 13.6124C5.1657 13.6124 3.45641 12.6109 3.45641 11.9488C3.45641 11.2863 5.1657 10.2848 7.74219 10.2848ZM7.74219 19.663C5.1657 19.663 3.45641 18.6616 3.45641 17.999C3.45641 17.8516 3.55414 17.6842 3.7168 17.5162C4.76656 18.0393 6.16227 18.352 7.74219 18.352C9.32187 18.352 10.7178 18.0395 11.7673 17.5164C11.9302 17.6845 12.0277 17.8518 12.0277 17.9992C12.028 18.6616 10.3187 19.663 7.74219 19.663Z" fill="rgb(254,254,254)" fill-rule="nonzero" />
</svg>
