<svg viewBox="0 0 24 24" xmlns="http://www.w3.org/2000/svg" xmlns:xlink="http://www.w3.org/1999/xlink" width="24.000000" height="24.000000" fill="none">
	<rect id="partners-solid-svgrepo-com 1" width="24.000000" height="24.000000" x="0.000000" y="0.000000" fill="rgb(255,255,255)" fill-opacity="0" />
	<g id="Layer 2">
		<g id="invisible box">
			<path id="Vector" />
		</g>
		<g id="Q3 icons">
			<g id="Group">
				<path id="Vector" d="M9.20112 6.9C9.50112 6.60168 9.86177 6.37137 10.2586 6.22471C10.6555 6.07805 11.0792 6.01847 11.5011 6.05C12.4769 6.06918 13.4079 6.46306 14.1011 7.15C15.5511 8.55 15.8011 10.75 14.6011 12C14.4147 12.1953 14.3106 12.455 14.3106 12.725C14.3106 12.995 14.4147 13.2547 14.6011 13.45C14.8021 13.6053 15.0472 13.6929 15.3011 13.7C15.4326 13.7042 15.5635 13.6795 15.6844 13.6277C15.8054 13.5759 15.9135 13.4981 16.0011 13.4C17.6011 11.75 17.7511 9.3 16.6511 7.25L17.0011 7.25C17.4214 7.25522 17.8382 7.17353 18.2254 7.01005C18.6125 6.84657 18.9618 6.60483 19.2511 6.3C19.8273 5.69631 20.1404 4.88864 20.1217 4.05431C20.1029 3.21999 19.7539 2.42719 19.1511 1.85C18.5629 1.31272 17.7977 1.01024 17.0011 1C16.1399 1.00439 15.3144 1.34533 14.7011 1.95C14.3748 2.30163 14.1331 2.72316 13.9944 3.18241C13.8558 3.64167 13.8239 4.12653 13.9011 4.6C13.1671 4.24804 12.3651 4.06035 11.5511 4.05C10.846 4.00157 10.139 4.1111 9.48162 4.3706C8.82423 4.6301 8.23303 5.03302 7.75112 5.55C7.64035 5.64026 7.55021 5.75322 7.48677 5.88125C7.42333 6.00929 7.38807 6.14943 7.38336 6.29224C7.37864 6.43505 7.40459 6.57722 7.45945 6.70916C7.51431 6.84109 7.59681 6.95974 7.70139 7.05711C7.80597 7.15448 7.93021 7.2283 8.06572 7.27361C8.20124 7.31892 8.34489 7.33466 8.487 7.31978C8.62912 7.30489 8.76639 7.25972 8.88957 7.18731C9.01275 7.1149 9.11899 7.01693 9.20112 6.9Z" fill="rgb(254,254,254)" fill-rule="nonzero" />
				<path id="Vector" d="M10.7005 19.1999C9.00055 18.7499 8.00055 16.7999 8.50055 14.8499C9.00055 12.8999 10.7505 11.5499 12.4505 11.9999C12.5786 12.0296 12.7112 12.0337 12.8408 12.012C12.9705 11.9904 13.0946 11.9434 13.206 11.8737C13.3175 11.804 13.4141 11.7131 13.4904 11.6061C13.5666 11.499 13.6211 11.378 13.6505 11.2499C13.6881 11.1252 13.6995 10.994 13.6841 10.8646C13.6688 10.7352 13.627 10.6104 13.5613 10.4978C13.4957 10.3853 13.4076 10.2874 13.3025 10.2104C13.1974 10.1333 13.0776 10.0787 12.9505 10.0499C11.8598 9.81222 10.7215 9.93181 9.70404 10.391C8.68654 10.8503 7.84384 11.6247 7.30055 12.5999C7.10551 12.1543 6.80989 11.7598 6.43687 11.4475C6.06386 11.1352 5.62358 10.9136 5.15055 10.7999L4.45055 10.6999C3.74719 10.702 3.06478 10.9395 2.51203 11.3744C1.95928 11.8094 1.56801 12.4168 1.40055 13.0999C1.29636 13.5006 1.27349 13.9182 1.33329 14.3278C1.39309 14.7375 1.53435 15.1311 1.74873 15.4853C1.96311 15.8394 2.24627 16.1471 2.5815 16.3901C2.91672 16.6331 3.29723 16.8064 3.70055 16.8999L4.45055 16.9999C5.16159 16.9972 5.85006 16.75 6.40055 16.2999C6.44529 17.4121 6.84234 18.4812 7.53436 19.353C8.22638 20.2248 9.17756 20.854 10.2505 21.1499L10.4505 21.1499C10.6776 21.1571 10.9004 21.0868 11.0822 20.9504C11.2639 20.8141 11.3939 20.62 11.4505 20.3999C11.4877 20.2717 11.4973 20.137 11.4789 20.0048C11.4604 19.8725 11.4143 19.7457 11.3436 19.6324C11.2728 19.5192 11.179 19.4222 11.0682 19.3476C10.9574 19.2731 10.8321 19.2228 10.7005 19.1999Z" fill="rgb(254,254,254)" fill-rule="nonzero" />
				<path id="Vector" d="M20.249 16.9499C20.9074 16.4996 21.4685 15.9215 21.899 15.2499C22.2852 14.6581 22.5387 13.9897 22.6423 13.2906C22.7458 12.5915 22.697 11.8783 22.499 11.1999C22.4645 11.071 22.4044 10.9502 22.3224 10.8448C22.2404 10.7394 22.1382 10.6515 22.0217 10.5862C21.9052 10.521 21.7768 10.4797 21.6441 10.4649C21.5114 10.4501 21.377 10.462 21.249 10.4999C20.9976 10.5804 20.7883 10.7569 20.6665 10.991C20.5447 11.2252 20.5205 11.498 20.599 11.7499C20.7172 12.1543 20.7426 12.5801 20.6733 12.9957C20.6041 13.4112 20.4419 13.8058 20.199 14.1499C19.6736 14.9648 18.8764 15.5671 17.949 15.8499C15.999 16.4499 13.999 15.4999 13.499 13.8499C13.4645 13.721 13.4044 13.6002 13.3224 13.4948C13.2404 13.3894 13.1382 13.3015 13.0217 13.2362C12.9052 13.171 12.7768 13.1297 12.6441 13.1149C12.5114 13.1001 12.377 13.112 12.249 13.1499C12.12 13.1845 11.9993 13.2445 11.8939 13.3265C11.7885 13.4085 11.7006 13.5108 11.6353 13.6273C11.5701 13.7438 11.5288 13.8722 11.514 14.0049C11.4992 14.1376 11.5111 14.2719 11.549 14.3999C11.8994 15.4585 12.5777 16.378 13.4856 17.0253C14.3936 17.6726 15.484 18.0139 16.599 17.9999C16.2603 18.4666 16.0561 19.0173 16.0089 19.592C15.9616 20.1666 16.0729 20.7433 16.3308 21.259C16.5887 21.7748 16.9832 22.2099 17.4713 22.5168C17.9594 22.8238 18.5224 22.9909 19.099 22.9999C19.4051 22.9986 19.709 22.9479 19.999 22.8499C20.6105 22.6517 21.1467 22.2711 21.5356 21.7594C21.9245 21.2476 22.1475 20.629 22.1747 19.9868C22.2019 19.3446 22.032 18.7094 21.6878 18.1666C21.3436 17.6237 20.8415 17.1992 20.249 16.9499Z" fill="rgb(254,254,254)" fill-rule="nonzero" />
			</g>
		</g>
	</g>
</svg>
