<svg viewBox="0 0 18 18" xmlns="http://www.w3.org/2000/svg" xmlns:xlink="http://www.w3.org/1999/xlink" width="18.000000" height="18.000000" fill="none">
	<rect id="refresh_2805355 2" width="18.000000" height="18.000000" x="0.000000" y="0.000000" fill="rgb(255,255,255)" fill-opacity="0" />
	<g id="refresh">
		<path id="Vector" d="M14.7018 9.47596C14.2828 9.41221 13.9108 9.69938 13.8507 10.1088C13.6998 11.1371 13.2252 12.0754 12.4781 12.8225C10.5767 14.7239 7.48522 14.7224 5.58457 12.8225C3.6843 10.9218 3.6843 7.82918 5.58457 5.92891C6.2994 5.21446 7.2018 4.74863 8.21175 4.57906C8.64607 4.49663 9.11302 4.48238 9.59752 4.53728C10.2628 4.61386 10.882 4.83458 11.447 5.15866L10.4706 5.32538C10.0627 5.39536 9.78795 5.78281 9.8583 6.19111C9.92055 6.55658 10.2377 6.81473 10.5966 6.81473C10.6384 6.81473 10.6808 6.81143 10.724 6.80408L13.3417 6.35656C13.5372 6.32288 13.7122 6.21301 13.8273 6.05041C13.9423 5.88818 13.9877 5.68673 13.954 5.49046L13.5057 2.87318C13.4369 2.46526 13.0545 2.19203 12.64 2.26051C12.232 2.33048 11.9573 2.71831 12.0277 3.12661L12.1456 3.81549C11.4197 3.40823 10.6189 3.14476 9.76815 3.04681C9.13095 2.97429 8.5128 2.99446 7.947 3.10283C6.6444 3.32108 5.46082 3.93158 4.524 4.86833C2.03888 7.35346 2.03888 11.3972 4.524 13.883C5.76653 15.1259 7.39912 15.747 9.03135 15.747C10.6639 15.747 12.2957 15.1259 13.5387 13.883C14.515 12.9066 15.1361 11.6769 15.3346 10.3271C15.3947 9.91689 15.1112 9.53596 14.7018 9.47596Z" fill="rgb(240.006,68.0748,55.794)" fill-rule="nonzero" />
	</g>
</svg>
