<svg viewBox="0 0 18 18" xmlns="http://www.w3.org/2000/svg" xmlns:xlink="http://www.w3.org/1999/xlink" width="18.000000" height="18.000000" fill="none">
	<rect id="search" width="18.000000" height="18.000000" x="0.000000" y="0.000000" fill="rgb(255,255,255)" fill-opacity="0" />
	<path id="Vector (Stroke)" d="M8.25 3C5.3505 3 3 5.3505 3 8.25C3 11.1495 5.3505 13.5 8.25 13.5C11.1495 13.5 13.5 11.1495 13.5 8.25C13.5 5.3505 11.1495 3 8.25 3ZM1.5 8.25C1.5 4.52208 4.52208 1.5 8.25 1.5C11.9779 1.5 15 4.52208 15 8.25C15 11.9779 11.9779 15 8.25 15C4.52208 15 1.5 11.9779 1.5 8.25Z" fill="rgb(0,0,0)" fill-rule="evenodd" />
	<path id="Vector (Stroke)" d="M11.954 11.958C12.2469 11.6651 12.7218 11.6651 13.0147 11.958L16.2772 15.2205C16.5701 15.5133 16.5701 15.9882 16.2772 16.2811C15.9843 16.574 15.5094 16.574 15.2165 16.2811L11.954 13.0186C11.6612 12.7257 11.6612 12.2508 11.954 11.958Z" fill="rgb(0,0,0)" fill-rule="evenodd" />
</svg>
