<svg viewBox="0 0 18 18" xmlns="http://www.w3.org/2000/svg" xmlns:xlink="http://www.w3.org/1999/xlink" width="18.000000" height="18.000000" fill="none">
	<rect id="star" width="18.000000" height="18.000000" x="0.000000" y="0.000000" fill="rgb(255,255,255)" fill-opacity="0" />
	<path id="Vector" d="M9 1.5L11.3175 6.195L16.5 6.9525L12.75 10.605L13.635 15.765L9 13.3275L4.365 15.765L5.25 10.605L1.5 6.9525L6.6825 6.195L9 1.5Z" fill="rgb(0,151,250)" fill-rule="nonzero" />
	<path id="Vector" d="M11.3175 6.195L9.55759 2.62963L9 1.5L8.4424 2.62963L6.6825 6.195L2.7462 6.77035L1.5 6.9525L2.40221 7.83125L5.25 10.605L4.57799 14.5231L4.365 15.765L9 13.3275L12.5198 15.1785L13.635 15.765L13.422 14.5231L12.75 10.605L15.5978 7.83125L16.5 6.9525L15.2538 6.77035L11.3175 6.195ZM13.8245 10.9544L14.6206 15.596C14.6673 15.8681 14.6109 16.1169 14.4515 16.3424C14.292 16.5679 14.0762 16.7039 13.804 16.7506C13.6956 16.7692 13.5871 16.7699 13.4785 16.7527C13.3699 16.7355 13.2669 16.7013 13.1695 16.6501L9 14.4573L4.83045 16.6501C4.58604 16.7786 4.33199 16.8019 4.06828 16.72C3.80458 16.638 3.60846 16.4749 3.47993 16.2305C3.42874 16.1331 3.39453 16.0301 3.37732 15.9215C3.36011 15.8129 3.3608 15.7044 3.37939 15.596L4.17548 10.9544L0.802267 7.66886C0.60445 7.47618 0.503724 7.24179 0.500087 6.96567C0.49645 6.68955 0.590968 6.45258 0.783642 6.25477C0.860312 6.17605 0.947585 6.11172 1.04546 6.06177C1.14334 6.01183 1.24664 5.97891 1.35537 5.96301L6.01824 5.28147L8.10329 1.05738C8.22552 0.809757 8.41739 0.641615 8.67891 0.55295C8.94043 0.464284 9.195 0.481065 9.44262 0.603293C9.54121 0.651954 9.62937 0.715154 9.7071 0.792892C9.78484 0.870631 9.84804 0.958792 9.89671 1.05738L11.9818 5.28147L16.6446 5.96301C16.9179 6.00295 17.137 6.13365 17.3019 6.3551C17.4669 6.57655 17.5294 6.82389 17.4895 7.09713C17.4736 7.20586 17.4407 7.30916 17.3907 7.40704C17.3408 7.50491 17.2764 7.59219 17.1977 7.66886L13.8245 10.9544Z" fill="rgb(0,151,250)" fill-rule="evenodd" />
</svg>
