<svg viewBox="0 0 48 48" xmlns="http://www.w3.org/2000/svg" xmlns:xlink="http://www.w3.org/1999/xlink" width="48.000000" height="48.000000" fill="none">
	<rect id="instagram-round-svgrepo-com 1" width="48.000000" height="48.000000" x="0.000000" y="0.000000" fill="rgb(255,255,255)" fill-opacity="0" />
	<g id="Group">
		<path id="Vector" d="M24 27.5147C25.9375 27.5147 27.5235 25.9365 27.5235 23.9912C27.5235 23.2256 27.2735 22.5147 26.8594 21.9365C26.2188 21.0537 25.1797 20.4678 24.0078 20.4678C22.836 20.4678 21.7969 21.0459 21.1563 21.9365C20.7422 22.5147 20.4922 23.2256 20.4922 23.9912C20.4844 25.9365 22.0625 27.5147 24 27.5147Z" fill="rgb(255,255,255)" fill-rule="nonzero" />
		<path id="Vector" d="M31.6875 19.6934L31.6875 16.7402L31.6875 16.3027L31.25 16.3027L28.2969 16.3105L28.3125 19.7012L31.6875 19.6934Z" fill="rgb(255,255,255)" fill-rule="nonzero" />
		<path id="Vector" d="M29.4688 23.999C29.4688 27.0146 27.0156 29.4678 24 29.4678C20.9844 29.4678 18.5312 27.0146 18.5312 23.999C18.5312 23.2725 18.6797 22.5771 18.9375 21.9443L15.9531 21.9443L15.9531 30.1318C15.9531 31.1865 16.8125 32.0459 17.8672 32.0459L30.1328 32.0459C31.1875 32.0459 32.0469 31.1865 32.0469 30.1318L32.0469 21.9443L29.0625 21.9443C29.3281 22.5771 29.4688 23.2725 29.4688 23.999Z" fill="rgb(255,255,255)" fill-rule="nonzero" />
		<path id="Vector" d="M24 4C12.9531 4 4 12.9531 4 24C4 35.0469 12.9531 44 24 44C35.0469 44 44 35.0469 44 24C44 12.9531 35.0469 4 24 4ZM34 21.9453L34 30.1328C34 32.2656 32.2656 34 30.1328 34L17.8672 34C15.7344 34 14 32.2656 14 30.1328L14 21.9453L14 17.8594C14 15.7266 15.7344 13.9922 17.8672 13.9922L30.1328 13.9922C32.2656 13.9922 34 15.7266 34 17.8594L34 21.9453Z" fill="rgb(255,255,255)" fill-rule="nonzero" />
	</g>
</svg>
