<svg viewBox="0 0 36 36" xmlns="http://www.w3.org/2000/svg" xmlns:xlink="http://www.w3.org/1999/xlink" width="36.000000" height="36.000000" fill="none">
	<rect id="key" width="36.000000" height="36.000000" x="0.000000" y="0.000000" fill="rgb(255,255,255)" fill-opacity="0" />
	<path id="Vector (Stroke)" d="M32.5601 1.93934C33.1459 2.52513 33.1459 3.47487 32.5601 4.06066L30.6208 6L34.0601 9.43934C34.6459 10.0251 34.6459 10.9749 34.0601 11.5607L28.8101 16.8107C28.2243 17.3964 27.2746 17.3964 26.6888 16.8107L23.2494 13.3713L19.1298 17.491C19.591 18.1147 19.9771 18.7927 20.279 19.5112C20.777 20.6967 21.0357 21.969 21.04 23.2549C21.0443 24.5408 20.7942 25.8148 20.3041 27.0037C19.814 28.1925 19.0936 29.2726 18.1843 30.1819C17.2751 31.0911 16.1949 31.8116 15.0061 32.3016C13.8173 32.7917 12.5432 33.0418 11.2574 33.0375C9.97148 33.0332 8.69916 32.7746 7.51364 32.2766C6.32812 31.7785 5.25284 31.0509 4.34969 30.1355L4.33844 30.1241C2.5624 28.2853 1.57972 25.8223 1.60193 23.2659C1.62415 20.7095 2.64954 18.2641 4.45727 16.4563C6.265 14.6486 8.71042 13.6232 11.2668 13.601C13.3261 13.5831 15.3246 14.2173 16.9852 15.3929L30.4388 1.93934C31.0246 1.35355 31.9743 1.35355 32.5601 1.93934ZM16.0822 18.5339C16.0683 18.5214 16.0545 18.5086 16.0409 18.4954C14.7678 17.2659 13.0627 16.5855 11.2929 16.6009C9.52308 16.6163 7.8301 17.3262 6.57859 18.5777C5.32709 19.8292 4.6172 21.5221 4.60182 23.292C4.58646 25.0591 5.26476 26.7617 6.49083 28.0342C7.11492 28.6652 7.85733 29.167 8.6756 29.5107C9.49634 29.8555 10.3772 30.0346 11.2674 30.0375C12.1576 30.0405 13.0397 29.8674 13.8627 29.5281C14.6857 29.1888 15.4335 28.69 16.063 28.0606C16.6925 27.4311 17.1912 26.6833 17.5305 25.8603C17.8698 25.0372 18.043 24.1552 18.04 23.265C18.037 22.3748 17.858 21.4939 17.5131 20.6732C17.1777 19.8747 16.6918 19.1485 16.0822 18.5339ZM25.3708 11.25L27.7494 13.6287L30.8781 10.5L28.4994 8.12132L25.3708 11.25Z" fill="rgb(254,254,254)" fill-rule="evenodd" />
</svg>
