<svg viewBox="0 0 24 24" xmlns="http://www.w3.org/2000/svg" xmlns:xlink="http://www.w3.org/1999/xlink" width="24.000000" height="24.000000" fill="none">
	<rect id="minus" width="24.000000" height="24.000000" x="0.000000" y="0.000000" fill="rgb(255,255,255)" fill-opacity="0" />
	<path id="Vector (Stroke)" d="M12 4C12.5523 4 13 4.44772 13 5L13 19C13 19.5523 12.5523 20 12 20C11.4477 20 11 19.5523 11 19L11 5C11 4.44772 11.4477 4 12 4Z" opacity="0" fill="rgb(21.25,21.25,21.25)" fill-rule="evenodd" />
	<path id="Vector (Stroke)" d="M4 12C4 11.4477 4.44772 11 5 11L19 11C19.5523 11 20 11.4477 20 12C20 12.5523 19.5523 13 19 13L5 13C4.44772 13 4 12.5523 4 12Z" fill="rgb(21.25,21.25,21.25)" fill-rule="evenodd" />
</svg>
