<svg viewBox="0 0 36 36" xmlns="http://www.w3.org/2000/svg" xmlns:xlink="http://www.w3.org/1999/xlink" width="36.000000" height="36.000000" fill="none">
	<rect id="tabler-icon-engine" width="36.000000" height="36.000000" x="0.000000" y="0.000000" fill="rgb(255,255,255)" fill-opacity="0" />
	<path id="Vector (Stroke)" d="M13.5 7.5C13.5 6.67157 14.1716 6 15 6L21 6C21.8284 6 22.5 6.67157 22.5 7.5C22.5 8.32843 21.8284 9 21 9L19.5 9L19.5 10.5L20.073 10.5C20.63 10.5003 21.1767 10.6556 21.6504 10.9487C22.1241 11.2417 22.5068 11.6608 22.7558 12.159L24.9275 16.4993L25.5 16.5L25.5 15C25.5 14.1716 26.1716 13.5 27 13.5L30 13.5C30.7957 13.5 31.5587 13.8161 32.1213 14.3787C32.6839 14.9413 33 15.7044 33 16.5L33 25.5C33 26.2956 32.6839 27.0587 32.1213 27.6213C31.5587 28.1839 30.7956 28.5 30 28.5L27 28.5C26.1716 28.5 25.5 27.8284 25.5 27L25.5 25.5L24 25.5L24 27C24 27.7956 23.6839 28.5587 23.1213 29.1213C22.5587 29.6839 21.7956 30 21 30L15.8027 30C15.309 30 14.8227 29.8782 14.3874 29.6454C13.952 29.4125 13.5808 29.0758 13.3067 28.665L11.1971 25.5L9 25.5C8.17157 25.5 7.5 24.8284 7.5 24L7.5 21L6 21L6 24C6 24.8284 5.32843 25.5 4.5 25.5C3.67157 25.5 3 24.8284 3 24L3 15C3 14.1716 3.67157 13.5 4.5 13.5C5.32843 13.5 6 14.1716 6 15L6 18L7.5 18L7.5 15C7.5 14.1716 8.17157 13.5 9 13.5L11.3787 13.5L13.9393 10.9393C14.2206 10.658 14.6022 10.5 15 10.5L16.5 10.5L16.5 9L15 9C14.1716 9 13.5 8.32843 13.5 7.5ZM15.6213 13.5L13.0607 16.0607C12.7794 16.342 12.3978 16.5 12 16.5L10.5 16.5L10.5 22.5L12 22.5C12.5016 22.5 12.97 22.7507 13.2482 23.1681L15.8023 27L21 27L21 24C21 23.1716 21.6716 22.5 22.5 22.5L27 22.5C27.8284 22.5 28.5 23.1716 28.5 24L28.5 25.5L30 25.5L30 16.5L28.5 16.5L28.5 18C28.5 18.8284 27.8284 19.5 27 19.5L24.927 19.5C24.37 19.4997 23.8233 19.3443 23.3496 19.0513C22.8759 18.7583 22.4932 18.3392 22.2442 17.841L20.0725 13.5007L15.6213 13.5Z" fill="rgb(254,254,254)" fill-rule="evenodd" />
</svg>
