<svg viewBox="0 0 28 28" xmlns="http://www.w3.org/2000/svg" xmlns:xlink="http://www.w3.org/1999/xlink" width="28.000000" height="28.000000" fill="none" customFrame="#000000">
	<defs>
		<clipPath id="clipPath_0">
			<rect width="28.000000" height="28.000000" x="0.000000" y="0.000000" fill="rgb(255,255,255)" />
		</clipPath>
	</defs>
	<rect id="tabler-icon-phone" width="28.000000" height="28.000000" x="0.000000" y="0.000000" fill="rgb(255,255,255)" fill-opacity="0" />
	<g id="tabler-icon-phone" clip-path="url(#clipPath_0)" customFrame="url(#clipPath_0)">
		<rect id="tabler-icon-phone" width="28.000000" height="28.000000" x="0.000000" y="0.000000" fill="rgb(255,255,255)" fill-opacity="0" />
		<path id="Vector (Stroke)" d="M5.83203 5.83333C5.52261 5.83333 5.22587 5.95625 5.00707 6.17504C4.79534 6.38678 4.6734 6.67151 4.66575 6.97009C4.93407 11.2213 6.74389 15.2293 9.75662 18.2421C12.7694 21.2548 16.7774 23.0646 21.0286 23.333C21.3272 23.3253 21.6119 23.2034 21.8237 22.9916C22.0424 22.7728 22.1654 22.4761 22.1654 22.1667L22.1654 18.2899L17.9879 16.6189L16.7491 18.6836C16.4367 19.2042 15.7772 19.3982 15.2327 19.1297C12.4689 17.7666 10.2321 15.5298 8.86903 12.766C8.60047 12.2215 8.79447 11.562 9.31512 11.2496L11.3798 10.0108L9.70883 5.83333L5.83203 5.83333ZM3.35716 4.52513C4.01353 3.86875 4.90377 3.5 5.83203 3.5L10.4987 3.5C10.9758 3.5 11.4047 3.79044 11.5819 4.23338L13.9153 10.0667C14.1279 10.5984 13.9233 11.2058 13.4323 11.5004L11.4793 12.6722C12.4405 14.2398 13.7589 15.5582 15.3265 16.5194L16.4983 14.5664C16.7929 14.0754 17.4003 13.8708 17.932 14.0834L23.7653 16.4168C24.2083 16.594 24.4987 17.0229 24.4987 17.5L24.4987 22.1667C24.4987 23.0949 24.1299 23.9852 23.4736 24.6415C22.8172 25.2979 21.927 25.6667 20.9987 25.6667C20.9751 25.6667 20.9515 25.6659 20.9279 25.6645C16.0926 25.3707 11.5321 23.3174 8.10671 19.892C4.68134 16.4666 2.62802 11.9061 2.33418 7.07077C2.33275 7.04721 2.33203 7.02361 2.33203 7C2.33203 6.07174 2.70078 5.1815 3.35716 4.52513Z" fill="rgb(254,254,254)" fill-rule="evenodd" />
	</g>
</svg>
