<svg viewBox="0 0 48 48" xmlns="http://www.w3.org/2000/svg" xmlns:xlink="http://www.w3.org/1999/xlink" width="48.000000" height="48.000000" fill="none">
	<defs>
		<clipPath id="clipPath_0">
			<rect width="40.000000" height="40.000000" x="4.000000" y="4.000000" fill="rgb(255,255,255)" />
		</clipPath>
	</defs>
	<rect id="youtube-round-svgrepo-com 1" width="48.000000" height="48.000000" x="0.000000" y="0.000000" fill="rgb(255,255,255)" fill-opacity="0" />
	<g id="Group">
		<g id="Component 3" customFrame="url(#clipPath_0)">
			<rect id="Component 3" width="40.000000" height="40.000000" x="4.000000" y="4.000000" fill="rgb(255,255,255)" fill-opacity="0" />
			<path id="Vector" d="M21.3359 27.8516L27.8828 24.0078L21.3359 20.1641L21.3359 27.8516Z" fill="rgb(255,255,255)" fill-rule="nonzero" />
			<path id="Vector" d="M24 4C12.9531 4 4 12.9531 4 24C4 35.0469 12.9531 44 24 44C35.0469 44 44 35.0469 44 24C44 12.9531 35.0469 4 24 4ZM34 27.5781C34 31.0234 30.5547 31.0234 30.5547 31.0234L17.4453 31.0234C14 31.0234 14 27.5781 14 27.5781L14 20.4297C14 16.9844 17.4453 16.9844 17.4453 16.9844L30.5547 16.9844C34 16.9844 34 20.4297 34 20.4297L34 27.5781Z" fill="rgb(255,255,255)" fill-rule="nonzero" />
		</g>
	</g>
</svg>
