<svg viewBox="0 0 179.512 67.2627" xmlns="http://www.w3.org/2000/svg" xmlns:xlink="http://www.w3.org/1999/xlink" width="179.511719" height="67.262695" fill="none" customFrame="#000000">
	<g id="Logo ULF">
		<path id="Vector" d="M142.585 13.0989L142.585 30.9791L175.758 30.9791L175.758 42.7429L142.585 42.7429L142.585 65.9276L128.367 65.9276L128.367 0L179.51 0L179.51 13.0989L142.585 13.0989Z" fill="rgb(254,254,254)" fill-rule="nonzero" />
		<path id="Vector" d="M120.198 52.8287L120.198 65.9276L70.2578 65.9276L70.2578 0L84.6188 0L84.6188 52.8287L120.198 52.8287Z" fill="rgb(254,254,254)" fill-rule="nonzero" />
		<path id="Vector" d="M56.8515 0L56.8515 41.9309C56.8515 49.4006 54.1947 55.4809 48.8632 60.172C43.5138 64.8991 36.7282 67.2627 28.5065 67.2627C20.1951 67.2627 13.3916 64.8991 8.0601 60.172C2.69268 55.4268 0 49.3464 0 41.9309L0 0L14.3789 0L14.3789 41.9309C14.3789 45.5575 15.6714 48.4804 18.2923 50.7538C20.9132 53.0271 24.3239 54.1638 28.5065 54.1638C32.6712 54.1638 36.082 53.0271 38.7028 50.7538C41.3237 48.4804 42.6341 45.5575 42.6341 41.9309L42.6341 0L56.8515 0Z" fill="rgb(254,254,254)" fill-rule="nonzero" />
	</g>
</svg>
