<?xml version="1.0" encoding="utf-8"?><svg viewBox="0 0 48 48" xmlns="http://www.w3.org/2000/svg" xmlns:xlink="http://www.w3.org/1999/xlink"><style>:root>svg{display:none}:root>svg:target{display:block}</style><svg fill="none" viewBox="0 0 24 24" id="arrow-right" xmlns="http://www.w3.org/2000/svg"><defs><clipPath id="aba"><path fill="#fff" fill-opacity="0" d="M0 0h24v24H0z"/></clipPath></defs><path fill="none" d="M0 0h24v24H0z"/><g clip-path="url(#aba)" fill="#FEFEFE" fill-rule="evenodd"><path d="M4 12c0-.56.44-1 1-1h14c.55 0 1 .44 1 1 0 .55-.45 1-1 1H5c-.56 0-1-.45-1-1Z"/><path d="M11.29 4.29a.996.996 0 0 1 1.41 0l7 7c.39.39.39 1.02 0 1.41l-7 7a.996.996 0 1 1-1.41-1.41L17.58 12l-6.29-6.3a.996.996 0 0 1 0-1.41Z"/></g></svg><svg fill="none" viewBox="0 0 24 24" id="arrow-right-slider" xmlns="http://www.w3.org/2000/svg"><path fill="none" d="M0 0h24v24H0z"/><path d="M4 12a1 1 0 0 1 1-1h14a1 1 0 1 1 0 2H5a1 1 0 0 1-1-1Z" fill="#000" fill-rule="evenodd"/><path d="M11.293 4.293a1 1 0 0 1 1.414 0l7 7a1 1 0 0 1 0 1.414l-7 7a1 1 0 0 1-1.414-1.414L17.586 12l-6.293-6.293a1 1 0 0 1 0-1.414Z" fill="#000" fill-rule="evenodd"/></svg><svg fill="none" viewBox="0 0 28 28" id="arrow-up-right" xmlns="http://www.w3.org/2000/svg"><path d="M27.2.68c.91.91.91 2.39 0 3.3L3.93 27.31c-.91.91-2.38.91-3.29 0-.91-.91-.91-2.39 0-3.3L23.91.68c.9-.91 2.38-.91 3.29 0Z" fill="#151515" fill-rule="evenodd"/><path d="M-.04 2.33C-.04 1.04 1 0 2.28 0h23.27c1.29 0 2.33 1.04 2.33 2.33v23.33c0 1.29-1.04 2.34-2.33 2.34a2.34 2.34 0 0 1-2.33-2.34v-21H2.28C1 4.66-.04 3.62-.04 2.33Z" fill="#151515" fill-rule="evenodd"/></svg><svg fill="none" viewBox="0 0 16 16" id="auto-1" xmlns="http://www.w3.org/2000/svg"><path d="M0 0h16v16H0z"/><path d="M3.297 3c-.668 0-1.285.367-1.656.98L.25 6.266c-.164.27-.25.584-.25.91v3.644c0 .503.307.944.75 1.066l1.297.36C2.234 13.247 3.039 14 4 14c.926 0 1.7-.705 1.922-1.65h4.656c.223.945.996 1.65 1.922 1.65.926 0 1.7-.705 1.922-1.65H15c.547 0 1-.498 1-1.1V9.24c0-1.009-.627-1.89-1.516-2.132l-2.703-.756L9.828 3.79C9.448 3.29 8.891 3 8.297 3h-5Zm0 1.1H5.5v2.2H1.437L2.47 4.598v-.017a.96.96 0 0 1 .828-.481Zm3.203 0h1.797c.297 0 .576.144.765.395L10.438 6.3H6.5V4.1ZM1 7.4h10.438l2.812.773c.447.123.75.559.75 1.066v2.011h-.578c-.223-.945-.996-1.65-1.922-1.65-.926 0-1.7.705-1.922 1.65H5.922C5.699 10.305 4.926 9.6 4 9.6c-.887 0-1.63.645-1.89 1.53L1 10.82V7.4Zm3 3.3c.559 0 1 .486 1 1.1 0 .614-.441 1.1-1 1.1-.559 0-1-.486-1-1.1 0-.615.441-1.1 1-1.1Zm8.5 0c.559 0 1 .486 1 1.1 0 .614-.441 1.1-1 1.1-.559 0-1-.486-1-1.1 0-.615.441-1.1 1-1.1Z" fill="#FEFEFE"/></svg><svg fill="none" viewBox="0 0 16 16" id="auto-2" xmlns="http://www.w3.org/2000/svg"><path fill="none" d="M0 0h16v16H0z"/><path d="M0 2c0-.368.298-.667.667-.667h10c.368 0 .666.299.666.667v8.667a.667.667 0 0 1-.666.667h-10A.667.667 0 0 1 0 10.667V2Zm1.333.667V10H10V2.667H1.333Z" fill="#FEFEFE" fill-rule="evenodd"/><path d="M10 5.333c0-.368.299-.667.667-.667h2.666c.177 0 .347.07.472.196l2 2a.666.666 0 0 1 .195.471v3.333a.667.667 0 0 1-.667.667h-4.666a.667.667 0 0 1-.667-.667V5.333ZM11.333 6v4h3.334V7.61L13.057 6h-1.724ZM3.665 11.333a1 1 0 1 0 0 2 1 1 0 0 0 0-2Zm-2.333 1a2.333 2.333 0 1 1 4.667 0 2.333 2.333 0 0 1-4.667 0Z" fill="#FEFEFE" fill-rule="evenodd"/><path d="M12.333 11.333a1 1 0 1 0 0 2 1 1 0 0 0 0-2Zm-2.333 1a2.333 2.333 0 1 1 4.667 0 2.333 2.333 0 0 1-4.667 0Z" fill="#FEFEFE" fill-rule="evenodd"/></svg><svg fill="none" viewBox="0 0 16 16" id="auto-3" xmlns="http://www.w3.org/2000/svg"><path fill="none" d="M0 0h16v16H0z"/><path d="M2.462 1v4.614A5.401 5.401 0 0 0 .23 6.707L1 7.702a4.194 4.194 0 0 1 2.692-.975C6.08 6.727 8 8.713 8 11.182h2.808a2.565 2.565 0 0 0-.347 1.272c0 1.4 1.109 2.546 2.462 2.546 1.353 0 2.462-1.146 2.462-2.546 0-.653-.258-1.237-.654-1.69l1.23-3.162.039-.12V6.092h-3.077V4.18c0-.36.267-.636.616-.636V2.273c-1.013 0-1.847.862-1.847 1.909V6.09H9.654L7.962 1.418 7.808 1H2.462Zm1.23 1.273h3.27l1.692 4.673.154.418h5.903l-.98 2.545H9.077C8.512 7.366 6.32 5.455 3.692 5.455V2.273Zm0 5.09C1.662 7.364 0 9.082 0 11.183 0 13.282 1.661 15 3.692 15c2.032 0 3.693-1.718 3.693-3.818S5.724 7.364 3.692 7.364Zm0 1.273c1.368 0 2.462 1.131 2.462 2.546 0 1.414-1.094 2.545-2.462 2.545-1.367 0-2.461-1.13-2.461-2.545s1.094-2.546 2.461-2.546Zm0 1.273c-.68 0-1.23.57-1.23 1.273s.55 1.272 1.23 1.272c.68 0 1.231-.569 1.231-1.272 0-.704-.55-1.273-1.23-1.273Zm9.231 1.273c.688 0 1.23.562 1.23 1.272 0 .711-.542 1.273-1.23 1.273-.687 0-1.23-.562-1.23-1.273 0-.71.543-1.272 1.23-1.272Z" fill="#FEFEFE"/></svg><svg fill="none" viewBox="0 0 16 16" id="auto-4" xmlns="http://www.w3.org/2000/svg"><path fill="none" d="M0 0h16v16H0z"/><path d="M7 .935A2 2 0 0 1 9 .935l4.666 2.668a2 2 0 0 1 1 1.73v5.334a2 2 0 0 1-1 1.73l-.002.002-4.664 2.665h-.002a2 2 0 0 1-1.997 0h-.001l-4.664-2.665-.003-.002a2 2 0 0 1-1-1.73V5.333a2 2 0 0 1 1-1.73l.003-.002L7 .935ZM8 2.001a.667.667 0 0 0-.334.09l-.002.001-4.664 2.665h-.001a.667.667 0 0 0-.333.577v5.332a.667.667 0 0 0 .333.576l4.667 2.667a.666.666 0 0 0 .667 0l.003-.001 4.664-2.665v-.001a.668.668 0 0 0 .333-.576V5.334A.665.665 0 0 0 13 4.758h-.001L8.332 2.09A.667.667 0 0 0 7.999 2Z" fill="#FEFEFE" fill-rule="evenodd"/><path d="M1.601 4.306a.667.667 0 0 1 .911-.243L8 7.236l5.486-3.173a.667.667 0 0 1 .667 1.154l-5.82 3.367a.667.667 0 0 1-.667 0l-5.82-3.367a.667.667 0 0 1-.244-.91Z" fill="#FEFEFE" fill-rule="evenodd"/><path d="M7.999 7.333c.368 0 .666.299.666.667v6.72a.667.667 0 0 1-1.333 0V8c0-.368.299-.667.667-.667Z" fill="#FEFEFE" fill-rule="evenodd"/></svg><svg viewBox="0 0 11 8" id="check" xmlns="http://www.w3.org/2000/svg"><defs><clipPath id="aha"><path fill="#fff" d="M0 0h11v8H0z"/></clipPath></defs><g clip-path="url(#aha)"><path d="M10.707.293a1 1 0 0 1 0 1.414l-6 6a1 1 0 0 1-1.414 0l-3-3a1 1 0 0 1 1.414-1.414L4 5.586 9.293.293a1 1 0 0 1 1.414 0" fill="#fff" fill-rule="evenodd"/></g></svg><svg fill="none" viewBox="0 0 24 24" id="copy" xmlns="http://www.w3.org/2000/svg"><path fill="none" d="M0 0h24v24H0z"/><path d="M11 10a1 1 0 0 0-1 1v9a1 1 0 0 0 1 1h9a1 1 0 0 0 1-1v-9a1 1 0 0 0-1-1h-9Zm-3 1a3 3 0 0 1 3-3h9a3 3 0 0 1 3 3v9a3 3 0 0 1-3 3h-9a3 3 0 0 1-3-3v-9Z" fill="#FEFEFE" fill-rule="evenodd"/><path d="M4 3a1 1 0 0 0-1 1v9a1 1 0 0 0 1 1h1a1 1 0 1 1 0 2H4a3 3 0 0 1-3-3V4a3 3 0 0 1 3-3h9a3 3 0 0 1 3 3v1a1 1 0 1 1-2 0V4a1 1 0 0 0-1-1H4Z" fill="#FEFEFE" fill-rule="evenodd"/></svg><svg fill="none" viewBox="0 0 24 24" id="corner-down-right" xmlns="http://www.w3.org/2000/svg"><path fill="none" d="M0 0h24v24H0z"/><path d="m15 10 5 5-5 5" stroke="#151515" stroke-linecap="round" stroke-linejoin="round" stroke-width="2"/><path d="M4 4v7a4 4 0 0 0 4 4h12" stroke="#151515" stroke-linecap="round" stroke-linejoin="round" stroke-width="2"/></svg><svg fill="none" viewBox="0 0 48 48" id="facebook-circle" xmlns="http://www.w3.org/2000/svg"><path fill="none" d="M0 0h48v48H0z"/><path d="M24 4.08c-11 0-20 8.98-20 20.04 0 10 7.32 18.3 16.88 19.8v-14H15.8v-5.8h5.08V19.7c0-5.02 2.98-7.78 7.56-7.78 2.18 0 4.46.38 4.46.38v4.94h-2.52c-2.48 0-3.26 1.54-3.26 3.12v3.76h5.56l-.9 5.8h-4.66v14A20 20 0 0 0 44 24.12c0-11.06-9-20.04-20-20.04Z" fill="#FFF"/></svg><svg fill="none" viewBox="0 0 28 28" id="globe" xmlns="http://www.w3.org/2000/svg"><defs><clipPath id="ala"><path transform="translate(-.5)" fill="#fff" fill-opacity="0" d="M0 0h28v28H0z"/></clipPath></defs><path fill="none" d="M-.5 0h28v28h-28z"/><g clip-path="url(#ala)" stroke="#FFF" stroke-width="2" stroke-linejoin="round"><path d="M13.49 25.66c-6.44 0-11.66-5.22-11.66-11.67 0-6.44 5.22-11.66 11.66-11.66 6.45 0 11.67 5.22 11.67 11.66 0 6.45-5.22 11.67-11.67 11.67Z"/><path d="M1.83 14h23.33" stroke-linecap="round"/><path d="M18.16 13.99c-.09 4.33-1.75 8.48-4.67 11.67a17.875 17.875 0 0 1-4.66-11.67 17.87 17.87 0 0 1 4.66-11.66c2.92 3.19 4.58 7.34 4.67 11.66Z"/></g></svg><svg fill="none" viewBox="0 0 24 24" id="i-alert-circle" xmlns="http://www.w3.org/2000/svg"><path fill="none" d="M0 0h24v24H0z"/><path d="M12 3a9 9 0 1 0 0 18 9 9 0 0 0 0-18ZM1 12C1 5.925 5.925 1 12 1s11 4.925 11 11-4.925 11-11 11S1 18.075 1 12Z" fill="#FEFEFE" fill-rule="evenodd"/><path d="M12 7a1 1 0 0 1 1 1v4a1 1 0 1 1-2 0V8a1 1 0 0 1 1-1ZM11 16a1 1 0 0 1 1-1h.01a1 1 0 1 1 0 2H12a1 1 0 0 1-1-1Z" fill="#FEFEFE" fill-rule="evenodd"/></svg><svg fill="none" viewBox="0 0 24 24" id="i-arrow-down" xmlns="http://www.w3.org/2000/svg"><path fill="none" d="M0 0h24v24H0z"/><path d="M5.293 8.293a1 1 0 0 1 1.414 0L12 13.586l5.293-5.293a1 1 0 1 1 1.414 1.414l-6 6a1 1 0 0 1-1.414 0l-6-6a1 1 0 0 1 0-1.414Z" fill="#000" fill-rule="evenodd"/></svg><svg fill="none" viewBox="0 0 24 24" id="i-bar-chart" xmlns="http://www.w3.org/2000/svg"><path fill="none" d="M0 0h24v24H0z"/><path d="M17 20V10a1 1 0 1 1 2 0v10a1 1 0 1 1-2 0ZM11 20V4a1 1 0 1 1 2 0v16a1 1 0 1 1-2 0ZM5 20v-6a1 1 0 1 1 2 0v6a1 1 0 1 1-2 0Z" fill="#FEFEFE"/></svg><svg fill="none" viewBox="0 0 24 24" id="i-check" xmlns="http://www.w3.org/2000/svg"><g clip-path="url(#clip406_3586)"><rect x="4" y="4" rx="2" width="16" height="16" fill="#00AFFF"/><path d="m16.79 10.21-5.53 5.58c-.07.07-.14.12-.23.15a.583.583 0 0 1-.52 0 .574.574 0 0 1-.23-.15L7.2 12.66a.697.697 0 0 1 0-.98l1.03-1.05c.13-.13.3-.2.49-.2.18 0 .35.07.48.2l1.58 1.54h.01l3.99-3.97a.697.697 0 0 1 .98 0l1.03 1.02c.07.07.12.14.15.23.04.08.05.17.06.27 0 .09-.02.18-.06.26-.03.09-.08.16-.15.23Z" fill="#FFF" fill-rule="evenodd"/></g></svg><svg fill="none" viewBox="0 0 24 24" id="i-check-empty" xmlns="http://www.w3.org/2000/svg"><g clip-path="url(#clip268_301)"><rect x="4" y="4" rx="2" width="16" height="16"/><rect x="4.5" y="4.5" rx="2" width="15" height="15" stroke="#BEC2D4"/></g></svg><svg fill="none" viewBox="0 0 24 24" id="i-check-without-bg" xmlns="http://www.w3.org/2000/svg"><defs><clipPath id="aqa"><path fill="#fff" fill-opacity="0" d="M0 0h24v24H0z"/></clipPath></defs><g clip-path="url(#aqa)"><path d="m20.05 9.54-8.86 8.85c-.1.1-.22.18-.36.24-.13.05-.27.08-.42.08-.14 0-.29-.03-.42-.08a1.26 1.26 0 0 1-.36-.24l-4.94-4.96c-.2-.21-.32-.49-.32-.78 0-.3.12-.58.32-.78l1.66-1.66c.21-.2.48-.32.78-.32.29 0 .57.11.78.32l2.52 2.43.01.01 6.39-6.3c.21-.21.49-.32.78-.32.29 0 .57.11.78.32l1.65 1.62c.11.1.19.23.25.36.05.13.08.28.08.42 0 .15-.03.29-.08.43-.06.13-.14.25-.24.36Z" fill="#FFF"/></g></svg><svg fill="none" viewBox="0 0 24 24" id="i-clock" xmlns="http://www.w3.org/2000/svg"><path fill="none" d="M0 0h24v24H0z"/><path d="M12 3a9 9 0 1 0 0 18 9 9 0 0 0 0-18ZM1 12C1 5.925 5.925 1 12 1s11 4.925 11 11-4.925 11-11 11S1 18.075 1 12Z" fill="#FEFEFE" fill-rule="evenodd"/><path d="M12 5a1 1 0 0 1 1 1v5.382l3.447 1.723a1 1 0 0 1-.894 1.79l-4-2A1 1 0 0 1 11 12V6a1 1 0 0 1 1-1Z" fill="#FEFEFE" fill-rule="evenodd"/></svg><svg fill="none" viewBox="0 0 24 24" id="i-close" xmlns="http://www.w3.org/2000/svg"><path d="M18 6 6 18M6 6l12 12" stroke="#2B2B2B" stroke-width="2" stroke-linecap="round" stroke-linejoin="round"/></svg><svg fill="none" viewBox="0 0 24 24" id="i-money-integral" xmlns="http://www.w3.org/2000/svg"><path fill="none" d="M0 0h24v24H0z"/><path d="M22.313 5.949c0-1.926-2.58-3.379-6-3.379-3.421 0-6 1.453-6 3.379 0 .017.003.033.004.05h-.005V8.57h1.715v-.212c1.073.605 2.573.968 4.286.968 1.579 0 2.974-.312 4.024-.835.163.168.261.336.261.482 0 .663-1.709 1.664-4.285 1.664h-1.714v1.714h1.713c1.58 0 2.976-.312 4.026-.835.162.168.26.335.26.482 0 .663-1.71 1.665-4.286 1.665l-.607.002c-.372.004-.734.007-1.086-.002l-.042 1.713c.189.005.38.007.574.007l.567-.003.594-.003c1.58 0 2.977-.313 4.027-.837.163.17.259.338.259.484 0 .662-1.71 1.664-4.286 1.664h-1.714v1.714h1.714c1.58 0 2.977-.313 4.027-.836.163.169.259.337.259.483 0 .663-1.71 1.664-4.286 1.664h-1.714v1.714h1.714c3.42 0 6-1.452 6-3.378l-.003-.05h.003v-12h-.004c0-.017.005-.034.005-.05Zm-10.286 0c0-.663 1.709-1.664 4.286-1.664 2.576 0 4.285 1.001 4.285 1.664 0 .662-1.709 1.663-4.285 1.663-2.577 0-4.286-1.001-4.286-1.663Z" fill="#FEFEFE"/><path d="M7.742 8.57c-3.42 0-6 1.453-6 3.379 0 .017.004.033.004.05h-.004v6c0 1.926 2.58 3.378 6 3.378s6-1.452 6-3.378v-6h-.004c0-.017.004-.033.004-.05 0-1.926-2.58-3.379-6-3.379Zm-4.286 6.404c0-.148.097-.315.26-.483 1.05.523 2.446.836 4.026.836 1.58 0 2.975-.313 4.025-.836.162.169.261.336.261.483 0 .662-1.71 1.663-4.286 1.663-2.576 0-4.286-1.001-4.286-1.663Zm4.286-4.69c2.577 0 4.286 1.002 4.286 1.665 0 .662-1.71 1.663-4.286 1.663-2.576 0-4.286-1.001-4.286-1.663 0-.663 1.71-1.664 4.286-1.664Zm0 9.379c-2.576 0-4.286-1.001-4.286-1.664 0-.147.098-.315.26-.483 1.05.523 2.446.836 4.026.836 1.58 0 2.976-.313 4.025-.836.163.169.26.336.26.483.001.663-1.708 1.664-4.285 1.664Z" fill="#FEFEFE"/></svg><svg fill="none" viewBox="0 0 24 24" id="i-partners" xmlns="http://www.w3.org/2000/svg"><path fill="none" d="M0 0h24v24H0z"/><g fill="#FEFEFE"><path d="M9.201 6.9a2.95 2.95 0 0 1 2.3-.85 3.8 3.8 0 0 1 2.6 1.1c1.45 1.4 1.7 3.6.5 4.85a1.05 1.05 0 0 0 0 1.45 1.2 1.2 0 0 0 .7.25.9.9 0 0 0 .7-.3c1.6-1.65 1.75-4.1.65-6.15h.35a3.05 3.05 0 0 0 2.25-.95 3.15 3.15 0 0 0-.1-4.45 3.25 3.25 0 0 0-2.15-.85 3.3 3.3 0 0 0-2.3.95 3.151 3.151 0 0 0-.8 2.65 5.6 5.6 0 0 0-2.35-.55 4.75 4.75 0 0 0-3.8 1.5 1 1 0 1 0 1.45 1.35Z"/><path d="M10.7 19.2C9 18.75 8 16.8 8.5 14.85c.5-1.95 2.25-3.3 3.95-2.85a.998.998 0 0 0 1.2-.75.947.947 0 0 0-.348-1.04.95.95 0 0 0-.351-.16A5.2 5.2 0 0 0 7.3 12.6a3.15 3.15 0 0 0-2.15-1.8l-.7-.1a3.15 3.15 0 0 0-3.05 2.4 3.1 3.1 0 0 0 2.3 3.8l.75.1a3.1 3.1 0 0 0 1.95-.7 5.25 5.25 0 0 0 3.85 4.85h.2a1 1 0 0 0 1-.75.949.949 0 0 0-.75-1.2Z"/><path d="M20.249 16.95a5.949 5.949 0 0 0 1.65-1.7 4.9 4.9 0 0 0 .6-4.05 1 1 0 0 0-1.25-.7 1 1 0 0 0-.65 1.25 2.8 2.8 0 0 1-.4 2.4 4.1 4.1 0 0 1-2.25 1.7c-1.95.6-3.95-.35-4.45-2a1 1 0 0 0-1.25-.7 1 1 0 0 0-.7 1.25 5.25 5.25 0 0 0 5.05 3.6 3.15 3.15 0 0 0 2.5 5 2.85 2.85 0 0 0 .9-.15 3.15 3.15 0 0 0 .25-5.9Z"/></g></svg><svg fill="none" viewBox="0 0 18 18" id="i-star" xmlns="http://www.w3.org/2000/svg"><path fill="none" d="M0 0h18v18H0z"/><path d="m9 1.5 2.318 4.695 5.182.757-3.75 3.653.885 5.16L9 13.327l-4.635 2.438.885-5.16L1.5 6.952l5.183-.757L9 1.5Z" fill="#0097FA"/><path d="M11.318 6.195 9.558 2.63 9 1.5l-.558 1.13-1.76 3.565-3.936.575-1.246.183.902.878 2.848 2.774-.672 3.918-.213 1.242L9 13.327l3.52 1.851 1.115.587-.213-1.242-.672-3.918 2.848-2.774.902-.879-1.246-.182-3.936-.575Zm2.507 4.76.796 4.641a.964.964 0 0 1-.17.746.964.964 0 0 1-.647.409.993.993 0 0 1-.635-.1L9 14.456 4.83 16.65a.964.964 0 0 1-.762.07.964.964 0 0 1-.588-.49.994.994 0 0 1-.1-.634l.795-4.642L.802 7.67A.964.964 0 0 1 .5 6.966a.963.963 0 0 1 .284-.711.993.993 0 0 1 .571-.292l4.663-.682 2.085-4.224A.964.964 0 0 1 8.68.553a.964.964 0 0 1 .764.05.993.993 0 0 1 .454.454l2.085 4.224 4.663.682c.273.04.492.17.657.392a.964.964 0 0 1 .188.742.992.992 0 0 1-.292.572l-3.373 3.285Z" fill="#0097FA" fill-rule="evenodd"/></svg><svg fill="none" viewBox="0 0 48 48" id="instagram-circle" xmlns="http://www.w3.org/2000/svg"><path fill="none" d="M0 0h48v48H0z"/><g fill="#FFF"><path d="M24 27.515a3.53 3.53 0 0 0 3.523-3.524 3.528 3.528 0 0 0-3.516-3.523c-1.171 0-2.21.578-2.85 1.468a3.525 3.525 0 0 0-.665 2.055A3.511 3.511 0 0 0 24 27.515ZM31.688 19.693V16.303h-.438l-2.953.008.015 3.39 3.375-.008Z"/><path d="M29.469 23.999A5.475 5.475 0 0 1 24 29.468a5.475 5.475 0 0 1-5.469-5.469c0-.726.149-1.422.407-2.055h-2.985v8.188c0 1.054.86 1.914 1.914 1.914h12.266c1.055 0 1.914-.86 1.914-1.914v-8.188h-2.984c.265.633.406 1.329.406 2.055Z"/><path d="M24 4C12.953 4 4 12.953 4 24s8.953 20 20 20 20-8.953 20-20S35.047 4 24 4Zm10 17.945v8.188A3.871 3.871 0 0 1 30.133 34H17.867A3.871 3.871 0 0 1 14 30.133V17.859a3.871 3.871 0 0 1 3.867-3.867h12.266A3.871 3.871 0 0 1 34 17.86v4.086Z"/></g></svg><svg fill="none" viewBox="0 0 18 18" id="map-pin" xmlns="http://www.w3.org/2000/svg"><path fill="none" d="M0 0h18v18H0z"/><path d="M9 1.5a6 6 0 0 0-6 6c0 2.324 1.512 4.578 3.17 6.328A22.065 22.065 0 0 0 9 16.329a22.065 22.065 0 0 0 2.83-2.502C13.489 12.079 15 9.825 15 7.5a6 6 0 0 0-6-6Zm0 15.75-.416.624-.003-.002-.005-.003-.017-.012-.062-.042c-.053-.037-.13-.09-.226-.16a23.578 23.578 0 0 1-3.19-2.795C3.363 13.047 1.5 10.427 1.5 7.5a7.5 7.5 0 0 1 15 0c0 2.927-1.863 5.547-3.58 7.36a23.58 23.58 0 0 1-3.417 2.955l-.062.042-.017.012-.005.003-.002.001s-.001.001-.417-.623Zm0 0 .416.624a.75.75 0 0 1-.832 0L9 17.25Z" fill="#FEFEFE" fill-rule="evenodd"/><path d="M9 6a1.5 1.5 0 1 0 0 3 1.5 1.5 0 0 0 0-3ZM6 7.5a3 3 0 1 1 6 0 3 3 0 0 1-6 0Z" fill="#FEFEFE" fill-rule="evenodd"/></svg><svg fill="none" viewBox="0 0 24 24" id="minus" xmlns="http://www.w3.org/2000/svg"><path fill="none" d="M0 0h24v24H0z"/><path d="M4 12a1 1 0 0 1 1-1h14a1 1 0 1 1 0 2H5a1 1 0 0 1-1-1Z" fill="#151515" fill-rule="evenodd"/></svg><svg fill="none" viewBox="0 0 24 24" id="play-video" xmlns="http://www.w3.org/2000/svg"><path fill="none" d="M0 0h24v24H0z"/><path d="m5 3 14 9-14 9V3Z" fill="#0097FA"/></svg><svg fill="none" viewBox="0 0 24 24" id="plus" xmlns="http://www.w3.org/2000/svg"><defs><clipPath id="bba"><path fill="#fff" fill-opacity="0" d="M0 0h24v24H0z"/></clipPath></defs><path fill="none" d="M0 0h24v24H0z"/><g clip-path="url(#bba)" stroke="#000" stroke-width="2" stroke-linejoin="round" stroke-linecap="round"><path d="M12 5v14M5 12h14"/></g></svg><svg fill="none" viewBox="0 0 28 28" id="smile" xmlns="http://www.w3.org/2000/svg"><defs><clipPath id="bca"><path transform="translate(-.5)" fill="#fff" fill-opacity="0" d="M0 0h28v28H0z"/></clipPath></defs><path fill="none" d="M-.5 0h28v28h-28z"/><g clip-path="url(#bca)" stroke="#FFF" stroke-width="2" stroke-linejoin="round"><path d="M13.49 25.66c-6.44 0-11.66-5.22-11.66-11.67 0-6.44 5.22-11.66 11.66-11.66 6.45 0 11.67 5.22 11.67 11.66 0 6.45-5.22 11.67-11.67 11.67Z"/><path d="M8.83 16.33s1.75 2.33 4.66 2.33c2.92 0 4.67-2.33 4.67-2.33M10 10.5h.01M17 10.5h.01" stroke-linecap="round"/></g></svg><svg fill="none" viewBox="0 0 28 28" id="tabler-icon-phone" xmlns="http://www.w3.org/2000/svg"><defs><clipPath id="bda"><path fill="#FFF" d="M0 0h28v28H0z"/></clipPath></defs><path fill="none" d="M0 0h28v28H0z"/><g clip-path="url(#bda)"><path fill="none" d="M0 0h28v28H0z"/><path d="M5.832 5.833A1.167 1.167 0 0 0 4.666 6.97a17.5 17.5 0 0 0 16.363 16.363 1.167 1.167 0 0 0 1.136-1.166V18.29l-4.177-1.671-1.239 2.065c-.312.52-.972.714-1.516.446a14 14 0 0 1-6.364-6.364 1.167 1.167 0 0 1 .446-1.516l2.065-1.24-1.671-4.177H5.832ZM3.357 4.525A3.5 3.5 0 0 1 5.832 3.5h4.667c.477 0 .906.29 1.083.733l2.333 5.834c.213.531.008 1.139-.483 1.433l-1.953 1.172a11.667 11.667 0 0 0 3.848 3.847l1.171-1.953a1.167 1.167 0 0 1 1.434-.483l5.833 2.334c.443.177.734.606.734 1.083v4.667a3.5 3.5 0 0 1-3.571 3.497A19.833 19.833 0 0 1 2.332 7a3.5 3.5 0 0 1 1.025-2.475Z" fill="#FEFEFE" fill-rule="evenodd"/></g></svg><svg fill="none" viewBox="0 0 24 28" id="trending-up" xmlns="http://www.w3.org/2000/svg"><defs><clipPath id="bea"><path transform="translate(-.5)" fill="#fff" fill-opacity="0" d="M0 0h24v28H0z"/></clipPath></defs><path fill="none" d="M-.5 0h24v28h-24z"/><g clip-path="url(#bea)" stroke="#FFF" stroke-width="2" stroke-linejoin="round" stroke-linecap="round"><path d="M22.5 7 13 18.08l-5-5.83L.5 21"/><path d="M16.5 7h6v7"/></g></svg><svg fill="none" viewBox="0 0 24 24" id="user" xmlns="http://www.w3.org/2000/svg"><path fill="none" d="M0 0h24v24H0z"/><path d="M4.464 15.464A5 5 0 0 1 8 14h8a5 5 0 0 1 5 5v2a1 1 0 1 1-2 0v-2a3 3 0 0 0-3-3H8a3 3 0 0 0-3 3v2a1 1 0 1 1-2 0v-2a5 5 0 0 1 1.464-3.536ZM12 4a3 3 0 1 0 0 6 3 3 0 0 0 0-6ZM7 7a5 5 0 1 1 10 0A5 5 0 0 1 7 7Z" fill="#FEFEFE" fill-rule="evenodd"/></svg><svg fill="none" viewBox="0 0 48 48" id="youtube-circle" xmlns="http://www.w3.org/2000/svg"><path fill="none" d="M0 0h48v48H0z"/><path fill="none" d="M4 4h40v40H4z"/><path d="m21.336 27.852 6.547-3.844-6.547-3.844v7.688Z" fill="#FFF"/><path d="M24 4C12.953 4 4 12.953 4 24s8.953 20 20 20 20-8.953 20-20S35.047 4 24 4Zm10 23.578c0 3.445-3.445 3.445-3.445 3.445h-13.11C14 31.023 14 27.578 14 27.578V20.43c0-3.446 3.445-3.446 3.445-3.446h13.11C34 16.984 34 20.43 34 20.43v7.148Z" fill="#FFF"/></svg></svg>