<?xml version="1.0" encoding="utf-8"?><svg viewBox="0 0 48 48" xmlns="http://www.w3.org/2000/svg" xmlns:xlink="http://www.w3.org/1999/xlink"><style>:root>svg{display:none}:root>svg:target{display:block}</style><svg fill="none" viewBox="0 0 35 35" id="1000002775" xmlns="http://www.w3.org/2000/svg"><path fill="none" d="M0 0h35v35H0z"/><path d="M33.444 2.382c.353.306.556.756.556 1.23v3.221c0 .89-.704 1.611-1.571 1.611-.868 0-1.572-.72-1.572-1.61V5.512L9.167 9.219l1.964 1.007c.533.273.869.83.869 1.44V16.5h3.143v-6.444c0-.89.703-1.612 1.571-1.612H23c2.5 0 4.899 1.019 6.667 2.832a9.792 9.792 0 0 1 2.762 6.835v9.667c0 .89-.704 1.61-1.572 1.61h-2.772A4.656 4.656 0 0 1 24.571 31a4.656 4.656 0 0 1-3.513-1.61H9.228A4.656 4.656 0 0 1 5.714 31c-1.25 0-2.45-.51-3.333-1.416A4.896 4.896 0 0 1 1 26.167V18.11c0-.89.704-1.611 1.571-1.611V8.444c0-.787.556-1.46 1.314-1.589L32.17 2.022c.456-.078.922.054 1.274.36ZM4.143 19.722v1.888c.5-.181 1.03-.277 1.571-.277 1.25 0 2.45.51 3.334 1.416a4.896 4.896 0 0 1 1.38 3.418h4.715v-6.445h-11ZM8.857 16.5H5.714v-5.449l3.143 1.611V16.5Zm9.429 9.667h1.571c0-1.282.497-2.512 1.38-3.418a4.656 4.656 0 0 1 3.334-1.416c1.25 0 2.45.51 3.334 1.416a4.896 4.896 0 0 1 1.38 3.418v-6.445h-5.5a1.577 1.577 0 0 1-1.504-1.148l-2.022-6.907h-1.973v14.5Zm5.262-14.476 1.407 4.809h4.131a6.485 6.485 0 0 0-1.641-2.946 6.22 6.22 0 0 0-3.897-1.863ZM4.143 26.167c0 .427.165.837.46 1.139.295.302.695.472 1.111.472.417 0 .817-.17 1.111-.472.295-.302.46-.712.46-1.14 0-.427-.165-.836-.46-1.139a1.552 1.552 0 0 0-1.11-.471c-.417 0-.817.17-1.112.471-.295.303-.46.712-.46 1.14Zm20.428-1.611c-.416 0-.816.17-1.11.471-.295.303-.461.712-.461 1.14 0 .427.166.837.46 1.139.295.302.695.472 1.111.472.417 0 .817-.17 1.112-.472.294-.302.46-.712.46-1.14 0-.427-.166-.836-.46-1.139a1.552 1.552 0 0 0-1.112-.471Z" fill="#FEFEFE" fill-rule="evenodd"/></svg><svg fill="none" viewBox="0 0 16 16" id="alert-circle" xmlns="http://www.w3.org/2000/svg"><path d="M0 0h16v16H0z"/><path d="M7.999 14.666a6.667 6.667 0 1 1 0-13.333 6.667 6.667 0 0 1 0 13.333Zm0-9.333V8m0 2.666h.006" stroke="#F04437" stroke-linecap="round" stroke-linejoin="round" stroke-width="1.333"/></svg><svg fill="none" viewBox="0 0 24 24" id="arrow-right" xmlns="http://www.w3.org/2000/svg"><defs><clipPath id="ada"><path fill="#fff" fill-opacity="0" d="M0 0h24v24H0z"/></clipPath></defs><path fill="none" d="M0 0h24v24H0z"/><g clip-path="url(#ada)" fill="#FEFEFE" fill-rule="evenodd"><path d="M4 12c0-.56.44-1 1-1h14c.55 0 1 .44 1 1 0 .55-.45 1-1 1H5c-.56 0-1-.45-1-1Z"/><path d="M11.29 4.29a.996.996 0 0 1 1.41 0l7 7c.39.39.39 1.02 0 1.41l-7 7a.996.996 0 1 1-1.41-1.41L17.58 12l-6.29-6.3a.996.996 0 0 1 0-1.41Z"/></g></svg><svg fill="none" viewBox="0 0 24 24" id="arrow-right-slider" xmlns="http://www.w3.org/2000/svg"><path fill="none" d="M0 0h24v24H0z"/><path d="M4 12a1 1 0 0 1 1-1h14a1 1 0 1 1 0 2H5a1 1 0 0 1-1-1Z" fill="#000" fill-rule="evenodd"/><path d="M11.293 4.293a1 1 0 0 1 1.414 0l7 7a1 1 0 0 1 0 1.414l-7 7a1 1 0 0 1-1.414-1.414L17.586 12l-6.293-6.293a1 1 0 0 1 0-1.414Z" fill="#000" fill-rule="evenodd"/></svg><svg fill="none" viewBox="0 0 28 28" id="arrow-up-right" xmlns="http://www.w3.org/2000/svg"><path d="M27.2.68c.91.91.91 2.39 0 3.3L3.93 27.31c-.91.91-2.38.91-3.29 0-.91-.91-.91-2.39 0-3.3L23.91.68c.9-.91 2.38-.91 3.29 0Z" fill="#151515" fill-rule="evenodd"/><path d="M-.04 2.33C-.04 1.04 1 0 2.28 0h23.27c1.29 0 2.33 1.04 2.33 2.33v23.33c0 1.29-1.04 2.34-2.33 2.34a2.34 2.34 0 0 1-2.33-2.34v-21H2.28C1 4.66-.04 3.62-.04 2.33Z" fill="#151515" fill-rule="evenodd"/></svg><svg fill="none" viewBox="0 0 16 16" id="auto-1" xmlns="http://www.w3.org/2000/svg"><path d="M0 0h16v16H0z"/><path d="M3.297 3c-.668 0-1.285.367-1.656.98L.25 6.266c-.164.27-.25.584-.25.91v3.644c0 .503.307.944.75 1.066l1.297.36C2.234 13.247 3.039 14 4 14c.926 0 1.7-.705 1.922-1.65h4.656c.223.945.996 1.65 1.922 1.65.926 0 1.7-.705 1.922-1.65H15c.547 0 1-.498 1-1.1V9.24c0-1.009-.627-1.89-1.516-2.132l-2.703-.756L9.828 3.79C9.448 3.29 8.891 3 8.297 3h-5Zm0 1.1H5.5v2.2H1.437L2.47 4.598v-.017a.96.96 0 0 1 .828-.481Zm3.203 0h1.797c.297 0 .576.144.765.395L10.438 6.3H6.5V4.1ZM1 7.4h10.438l2.812.773c.447.123.75.559.75 1.066v2.011h-.578c-.223-.945-.996-1.65-1.922-1.65-.926 0-1.7.705-1.922 1.65H5.922C5.699 10.305 4.926 9.6 4 9.6c-.887 0-1.63.645-1.89 1.53L1 10.82V7.4Zm3 3.3c.559 0 1 .486 1 1.1 0 .614-.441 1.1-1 1.1-.559 0-1-.486-1-1.1 0-.615.441-1.1 1-1.1Zm8.5 0c.559 0 1 .486 1 1.1 0 .614-.441 1.1-1 1.1-.559 0-1-.486-1-1.1 0-.615.441-1.1 1-1.1Z" fill="#FEFEFE"/></svg><svg fill="none" viewBox="0 0 16 16" id="auto-2" xmlns="http://www.w3.org/2000/svg"><path fill="none" d="M0 0h16v16H0z"/><path d="M0 2c0-.368.298-.667.667-.667h10c.368 0 .666.299.666.667v8.667a.667.667 0 0 1-.666.667h-10A.667.667 0 0 1 0 10.667V2Zm1.333.667V10H10V2.667H1.333Z" fill="#FEFEFE" fill-rule="evenodd"/><path d="M10 5.333c0-.368.299-.667.667-.667h2.666c.177 0 .347.07.472.196l2 2a.666.666 0 0 1 .195.471v3.333a.667.667 0 0 1-.667.667h-4.666a.667.667 0 0 1-.667-.667V5.333ZM11.333 6v4h3.334V7.61L13.057 6h-1.724ZM3.665 11.333a1 1 0 1 0 0 2 1 1 0 0 0 0-2Zm-2.333 1a2.333 2.333 0 1 1 4.667 0 2.333 2.333 0 0 1-4.667 0Z" fill="#FEFEFE" fill-rule="evenodd"/><path d="M12.333 11.333a1 1 0 1 0 0 2 1 1 0 0 0 0-2Zm-2.333 1a2.333 2.333 0 1 1 4.667 0 2.333 2.333 0 0 1-4.667 0Z" fill="#FEFEFE" fill-rule="evenodd"/></svg><svg fill="none" viewBox="0 0 16 16" id="auto-3" xmlns="http://www.w3.org/2000/svg"><path fill="none" d="M0 0h16v16H0z"/><path d="M2.462 1v4.614A5.401 5.401 0 0 0 .23 6.707L1 7.702a4.194 4.194 0 0 1 2.692-.975C6.08 6.727 8 8.713 8 11.182h2.808a2.565 2.565 0 0 0-.347 1.272c0 1.4 1.109 2.546 2.462 2.546 1.353 0 2.462-1.146 2.462-2.546 0-.653-.258-1.237-.654-1.69l1.23-3.162.039-.12V6.092h-3.077V4.18c0-.36.267-.636.616-.636V2.273c-1.013 0-1.847.862-1.847 1.909V6.09H9.654L7.962 1.418 7.808 1H2.462Zm1.23 1.273h3.27l1.692 4.673.154.418h5.903l-.98 2.545H9.077C8.512 7.366 6.32 5.455 3.692 5.455V2.273Zm0 5.09C1.662 7.364 0 9.082 0 11.183 0 13.282 1.661 15 3.692 15c2.032 0 3.693-1.718 3.693-3.818S5.724 7.364 3.692 7.364Zm0 1.273c1.368 0 2.462 1.131 2.462 2.546 0 1.414-1.094 2.545-2.462 2.545-1.367 0-2.461-1.13-2.461-2.545s1.094-2.546 2.461-2.546Zm0 1.273c-.68 0-1.23.57-1.23 1.273s.55 1.272 1.23 1.272c.68 0 1.231-.569 1.231-1.272 0-.704-.55-1.273-1.23-1.273Zm9.231 1.273c.688 0 1.23.562 1.23 1.272 0 .711-.542 1.273-1.23 1.273-.687 0-1.23-.562-1.23-1.273 0-.71.543-1.272 1.23-1.272Z" fill="#FEFEFE"/></svg><svg fill="none" viewBox="0 0 16 16" id="auto-4" xmlns="http://www.w3.org/2000/svg"><path fill="none" d="M0 0h16v16H0z"/><path d="M7 .935A2 2 0 0 1 9 .935l4.666 2.668a2 2 0 0 1 1 1.73v5.334a2 2 0 0 1-1 1.73l-.002.002-4.664 2.665h-.002a2 2 0 0 1-1.997 0h-.001l-4.664-2.665-.003-.002a2 2 0 0 1-1-1.73V5.333a2 2 0 0 1 1-1.73l.003-.002L7 .935ZM8 2.001a.667.667 0 0 0-.334.09l-.002.001-4.664 2.665h-.001a.667.667 0 0 0-.333.577v5.332a.667.667 0 0 0 .333.576l4.667 2.667a.666.666 0 0 0 .667 0l.003-.001 4.664-2.665v-.001a.668.668 0 0 0 .333-.576V5.334A.665.665 0 0 0 13 4.758h-.001L8.332 2.09A.667.667 0 0 0 7.999 2Z" fill="#FEFEFE" fill-rule="evenodd"/><path d="M1.601 4.306a.667.667 0 0 1 .911-.243L8 7.236l5.486-3.173a.667.667 0 0 1 .667 1.154l-5.82 3.367a.667.667 0 0 1-.667 0l-5.82-3.367a.667.667 0 0 1-.244-.91Z" fill="#FEFEFE" fill-rule="evenodd"/><path d="M7.999 7.333c.368 0 .666.299.666.667v6.72a.667.667 0 0 1-1.333 0V8c0-.368.299-.667.667-.667Z" fill="#FEFEFE" fill-rule="evenodd"/></svg><svg fill="none" viewBox="0 0 28 28" id="benefits-1" xmlns="http://www.w3.org/2000/svg"><path fill="none" d="M0 0h28v28H0z"/><path d="M26.421 2.61c.262.221.413.547.413.89v2.333a1.167 1.167 0 0 1-2.333 0v-.956L8.398 7.56l1.458.729c.395.197.645.601.645 1.043v3.5h2.333V8.166c0-.644.522-1.166 1.167-1.166h4.666a7 7 0 0 1 7 7v7c0 .644-.522 1.166-1.166 1.166h-2.058a3.5 3.5 0 0 1-5.217 0H8.442a3.5 3.5 0 0 1-6.109-2.333V14c0-.645.522-1.167 1.167-1.167V7c0-.57.412-1.057.975-1.151l21-3.5c.338-.056.684.039.945.26ZM4.667 15.165v1.367a3.498 3.498 0 0 1 4.667 3.3h3.5v-4.667H4.667Zm3.5-2.333H5.834V8.887l2.333 1.167v2.779Zm7 7h1.167a3.5 3.5 0 1 1 7 0v-4.667h-4.083c-.516 0-.97-.338-1.118-.831l-1.5-5.002h-1.466v10.5Zm3.907-10.482 1.045 3.482h3.067a4.666 4.666 0 0 0-4.112-3.482ZM4.667 19.833a1.167 1.167 0 1 0 2.334 0 1.167 1.167 0 0 0-2.334 0Zm15.167-1.167a1.167 1.167 0 1 0 0 2.334 1.167 1.167 0 0 0 0-2.334Z" fill="#FEFEFE" fill-rule="evenodd"/></svg><svg fill="none" viewBox="0 0 28 28" id="benefits-2" xmlns="http://www.w3.org/2000/svg"><path fill="none" d="M0 0h28v28H0z"/><path d="M9.436 2.982a11.926 11.926 0 1 1 9.128 22.036A11.926 11.926 0 0 1 9.436 2.982ZM14 4.459a9.54 9.54 0 1 0 0 19.08 9.54 9.54 0 0 0 0-19.08ZM14 8.037c.392 0 .759.193.981.516l3.096 4.49.035.054c1.193 1.947.71 4.41-1.078 5.823-1.763 1.391-4.312 1.391-6.075 0-1.789-1.414-2.271-3.875-1.08-5.822.011-.02.024-.038.036-.056l3.103-4.49c.223-.323.59-.515.982-.515Zm-1.564 9.01c-.862-.682-1.06-1.8-.538-2.68l.538 2.68Zm-.538-2.68 2.1-3.038 2.095 3.038c.523.881.326 2-.537 2.68a2.558 2.558 0 0 1-3.12 0" fill="#FEFEFE" fill-rule="evenodd"/></svg><svg fill="none" viewBox="0 0 33.588 33.696" id="benefits-3" xmlns="http://www.w3.org/2000/svg"><defs><clipPath id="ala"><path fill="#FFF" d="M2.752 0h28v28h-28z"/></clipPath><filter id="alb" width="33.588" height="33.696" x="0" y="0" filterUnits="userSpaceOnUse" color-interpolation-filters="sRGB"><feFlood flood-opacity="0" result="BackgroundImageFix"/><feColorMatrix result="hardAlpha" in="SourceAlpha" values="0 0 0 0 0 0 0 0 0 0 0 0 0 0 0 0 0 0 127 0"/><feOffset dy="4" in="hardAlpha"/><feGaussianBlur stdDeviation="1.333"/><feComposite k2="-1" k3="1" in2="hardAlpha" operator="out"/><feColorMatrix values="0 0 0 0 0 0 0 0 0 0 0 0 0 0 0 0 0 0 0.25 0"/><feBlend result="effect_dropShadow_1" in2="BackgroundImageFix"/><feBlend result="shape" in="SourceGraphic" in2="effect_dropShadow_1"/></filter></defs><g clip-path="url(#ala)" filter="url(#alb)"><path fill="none" d="M2.752 0h28v28h-28z"/><path d="M28.079 1.509a1.167 1.167 0 0 1 0 1.65L26.57 4.667l2.675 2.675a1.167 1.167 0 0 1 0 1.65l-4.083 4.083a1.167 1.167 0 0 1-1.65 0L20.837 10.4l-3.204 3.204A7.584 7.584 0 0 1 6.137 23.44l-.008-.009a7.583 7.583 0 0 1 9.836-11.457L26.43 1.509a1.167 1.167 0 0 1 1.65 0ZM15.263 14.416l-.032-.03a5.25 5.25 0 0 0-7.428 7.419 5.25 5.25 0 1 0 7.46-7.39Zm7.224-5.666 1.85 1.85 2.434-2.433-1.85-1.85-2.434 2.433Z" fill="#FEFEFE" fill-rule="evenodd"/></g></svg><svg fill="none" viewBox="0 0 28 28" id="benefits-4" xmlns="http://www.w3.org/2000/svg"><path fill="none" d="M0 0h28v28H0z"/><path d="M25.327 1.509a1.167 1.167 0 0 1 0 1.65l-1.509 1.508 2.676 2.675a1.167 1.167 0 0 1 0 1.65l-4.084 4.083a1.167 1.167 0 0 1-1.65 0L18.085 10.4l-3.204 3.204a7.58 7.58 0 0 1 .913 7.4 7.584 7.584 0 0 1-12.409 2.435l-.008-.009a7.583 7.583 0 0 1 9.836-11.457L23.677 1.509a1.167 1.167 0 0 1 1.65 0ZM12.51 14.416l-.032-.03a5.25 5.25 0 0 0-7.428 7.419 5.25 5.25 0 1 0 7.46-7.39Zm7.224-5.666 1.85 1.85 2.434-2.433-1.85-1.85-2.434 2.433Z" fill="#FEFEFE" fill-rule="evenodd"/></svg><svg fill="none" viewBox="0 0 28 28" id="benefits-5" xmlns="http://www.w3.org/2000/svg"><path fill="none" d="M0 0h28v28H0z"/><path d="M9.536 3.221a11.667 11.667 0 1 1 8.93 21.558 11.667 11.667 0 0 1-8.93-21.558Zm4.465 1.445a9.334 9.334 0 0 0-4.195.996l2.76 3.897a4.665 4.665 0 0 1 2.87 0l2.76-3.896a9.34 9.34 0 0 0-4.195-.997Zm6.133 2.298-2.726 3.848c.538.574.917 1.27 1.111 2.021h4.742a9.33 9.33 0 0 0-3.127-5.869Zm3.127 8.202h-4.742a4.666 4.666 0 0 1-1.11 2.022l2.725 3.847a9.312 9.312 0 0 0 2.49-3.464c.319-.77.533-1.58.637-2.405Zm-5.065 7.17-2.76-3.896a4.664 4.664 0 0 1-2.87 0l-2.76 3.897a9.335 9.335 0 0 0 8.39 0Zm-10.327-1.3 2.725-3.847a4.666 4.666 0 0 1-1.112-2.023H4.741a9.334 9.334 0 0 0 3.128 5.87ZM4.74 12.833h4.741a4.667 4.667 0 0 1 1.112-2.023L7.869 6.963a9.334 9.334 0 0 0-3.128 5.87ZM14 11.666a2.333 2.333 0 1 0 0 4.667 2.333 2.333 0 0 0 0-4.667Z" fill="#FEFEFE" fill-rule="evenodd"/></svg><svg fill="none" viewBox="0 0 28 28" id="benefits-6" xmlns="http://www.w3.org/2000/svg"><path fill="none" d="M0 0h28v28H0z"/><path d="M10.5 5.834c0-.645.523-1.167 1.167-1.167h4.667a1.167 1.167 0 0 1 0 2.333h-1.167v1.167h.446a2.335 2.335 0 0 1 2.087 1.29l1.689 3.376h.445v-1.166c0-.644.522-1.167 1.167-1.167h2.333a2.334 2.334 0 0 1 2.333 2.334v7a2.333 2.333 0 0 1-2.333 2.333h-2.333A1.167 1.167 0 0 1 19.834 21v-1.166h-1.167V21a2.333 2.333 0 0 1-2.333 2.334h-4.042a2.335 2.335 0 0 1-1.942-1.039l-1.64-2.461H7a1.167 1.167 0 0 1-1.166-1.167v-2.333H4.667v2.333a1.167 1.167 0 0 1-2.333 0v-7a1.167 1.167 0 0 1 2.333 0V14h1.167v-2.333c0-.644.522-1.167 1.167-1.167h1.85l1.991-1.991c.22-.22.516-.342.825-.342h1.167V7h-1.167a1.167 1.167 0 0 1-1.166-1.166Zm1.65 4.666-1.991 1.992a1.167 1.167 0 0 1-.825.342H8.167V17.5h1.167c.39 0 .754.195.97.52L12.292 21h4.043v-2.333c0-.644.522-1.167 1.167-1.167H21c.644 0 1.166.523 1.166 1.167v1.167h1.167v-7h-1.167V14c0 .645-.522 1.167-1.166 1.167h-1.613a2.335 2.335 0 0 1-2.086-1.29l-1.69-3.376h-3.461Z" fill="#FEFEFE" fill-rule="evenodd"/></svg><svg fill="none" viewBox="0 0 28 28" id="benefits-7" xmlns="http://www.w3.org/2000/svg"><path fill="none" d="M0 0h28v28H0z"/><path d="M14 4.666A9.333 9.333 0 0 0 4.668 14v7a1.167 1.167 0 0 1-2.333 0v-7a11.667 11.667 0 0 1 23.333 0v7a1.167 1.167 0 1 1-2.333 0v-7a9.333 9.333 0 0 0-9.333-9.334Z" fill="#FEFEFE" fill-rule="evenodd"/><path d="M2.334 16.334c0-.645.522-1.167 1.167-1.167H7a3.5 3.5 0 0 1 3.5 3.5v3.5a3.5 3.5 0 0 1-3.5 3.5H5.834a3.5 3.5 0 0 1-3.5-3.5v-5.833ZM4.667 17.5v4.667a1.166 1.166 0 0 0 1.167 1.167h1.167a1.167 1.167 0 0 0 1.166-1.167v-3.5A1.167 1.167 0 0 0 7.001 17.5H4.667Zm16.334 0a1.167 1.167 0 0 0-1.167 1.167v3.5a1.166 1.166 0 0 0 1.167 1.167h1.166a1.167 1.167 0 0 0 1.167-1.167V17.5h-2.333Zm-2.475-1.308A3.5 3.5 0 0 1 21 15.167h3.5c.644 0 1.166.522 1.166 1.167v5.833a3.5 3.5 0 0 1-3.5 3.5h-1.166a3.5 3.5 0 0 1-3.5-3.5v-3.5a3.5 3.5 0 0 1 1.025-2.475Z" fill="#FEFEFE" fill-rule="evenodd"/></svg><svg fill="none" viewBox="0 0 16 16" id="character-1" xmlns="http://www.w3.org/2000/svg"><path fill="none" d="M0 0h16v16H0z"/><path d="M12.667 6.667H9V5.135a2.668 2.668 0 0 0 1.667-2.468A2.67 2.67 0 0 0 8 0a2.67 2.67 0 0 0-2.667 2.667c0 1.116.691 2.071 1.667 2.468v5.198a1.001 1.001 0 0 0 2 0V10h1.333c.185 0 .334-.15.334-.333v-1a.667.667 0 0 1 1.333 0V14a.667.667 0 0 1-1.333 0v-1.667a.333.333 0 0 0-.334-.333H9a.333.333 0 0 0-.333.333V14a.667.667 0 0 1-1.334 0v-1.667A.333.333 0 0 0 7 12H5.667a.333.333 0 0 0-.334.333V14A.667.667 0 0 1 4 14V8.667a.667.667 0 0 1 1.333 0v1c0 .184.15.333.334.333H6c.184 0 .333-.15.333-.333V7A.333.333 0 0 0 6 6.667H3.333C2.598 6.667 2 7.265 2 8v6.667C2 15.402 2.598 16 3.333 16h9.334c.735 0 1.333-.598 1.333-1.333V8c0-.735-.598-1.333-1.333-1.333ZM7.167 2A.5.5 0 1 1 7.168.998.5.5 0 0 1 7.167 2Z" fill="#C4C4C4"/></svg><svg fill="none" viewBox="0 0 16 16" id="character-10" xmlns="http://www.w3.org/2000/svg"><path fill="none" d="M0 0h16v16H0z"/><g fill="#C4C4C4"><path d="M6 2H3.333C2.597 2 2 2.597 2 3.333V6c0 .736.597 1.333 1.333 1.333H6c.736 0 1.333-.597 1.333-1.333V3.333C7.333 2.597 6.736 2 6 2ZM6 8.664H3.333C2.597 8.664 2 9.261 2 9.997v2.667c0 .736.597 1.333 1.333 1.333H6c.736 0 1.333-.597 1.333-1.333V9.997c0-.736-.597-1.333-1.333-1.333Z" fill-rule="evenodd"/><path d="M13.334 4.665a.667.667 0 0 1-.474-.193l-1.526-1.533-1.527 1.533a.67.67 0 1 1-.947-.947l2-2a.666.666 0 0 1 .947 0l2 2a.666.666 0 0 1-.473 1.14ZM11.334 14.664a.666.666 0 0 1-.474-.193l-2-2a.67.67 0 0 1 .947-.947l1.527 1.534 1.526-1.534a.67.67 0 0 1 .947.947l-2 2a.669.669 0 0 1-.473.193Z"/><path d="M11.33 14.67a.667.667 0 0 1-.666-.667v-12a.667.667 0 1 1 1.333 0v12a.666.666 0 0 1-.666.666Z"/></g></svg><svg fill="none" viewBox="0 0 16 16" id="character-11" xmlns="http://www.w3.org/2000/svg"><path fill="none" d="M0 0h16v16H0z"/><path d="m15.198 3.04-7-3a.503.503 0 0 0-.394 0l-7 3a.5.5 0 0 0-.303.485l.16 3.207a10.238 10.238 0 0 0 7.193 9.246.5.5 0 0 0 .294 0 10.239 10.239 0 0 0 7.192-9.246l.16-3.207a.5.5 0 0 0-.302-.485Zm-3.844 3.313-4 4a.5.5 0 0 1-.707 0l-2-2a.5.5 0 0 1 .707-.707l1.647 1.647 3.646-3.647a.5.5 0 0 1 .707.707Z" fill="#C4C4C4"/></svg><svg fill="none" viewBox="0 0 16 16" id="character-12" xmlns="http://www.w3.org/2000/svg"><path fill="none" d="M0 0h16v16H0z"/><path d="M7.484.634a.683.683 0 0 1 1.032 0l.863.996a1.273 1.273 0 0 0 1.248.405l1.284-.298a.682.682 0 0 1 .835.607l.113 1.313a1.273 1.273 0 0 0 .771 1.061l1.214.514a.683.683 0 0 1 .32.982l-.681 1.128a1.274 1.274 0 0 0 0 1.313l.68 1.128a.684.684 0 0 1-.319.982l-1.213.513a1.272 1.272 0 0 0-.772 1.062l-.113 1.313a.683.683 0 0 1-.835.607l-1.284-.299a1.275 1.275 0 0 0-1.248.406l-.863.996a.683.683 0 0 1-1.032 0l-.864-.996a1.273 1.273 0 0 0-1.248-.406l-1.283.299a.682.682 0 0 1-.836-.607L3.14 12.34a1.273 1.273 0 0 0-.771-1.062l-1.214-.513a.683.683 0 0 1-.319-.982l.68-1.128a1.274 1.274 0 0 0 0-1.313l-.68-1.128a.684.684 0 0 1 .32-.982l1.213-.514a1.272 1.272 0 0 0 .771-1.061l.113-1.313a.683.683 0 0 1 .836-.607l1.283.298A1.275 1.275 0 0 0 6.62 1.63l.864-.996ZM4.479 8.262l2.171 2.172c.142.14.37.14.512 0l4.359-4.36a.362.362 0 0 0-.512-.51L6.906 9.665 4.99 7.751a.362.362 0 1 0-.511.511Z" fill="#C4C4C4" fill-rule="evenodd"/></svg><svg fill="none" viewBox="0 0 16 16" id="character-13" xmlns="http://www.w3.org/2000/svg"><path fill="none" d="M0 0h16v16H0z"/><path d="M14.667 8.997v5a.667.667 0 0 1-.667.667h-.667a.667.667 0 0 1-.666-.667v-.666H3.333v.666a.667.667 0 0 1-.666.667H2a.667.667 0 0 1-.667-.667v-5l-.828-.206A.667.667 0 0 1 0 8.144v-.48a.333.333 0 0 1 .333-.333h1.25L3.01 3.529a1.333 1.333 0 0 1 1.248-.865h7.486a1.334 1.334 0 0 1 1.248.865l1.426 3.802h1.25a.333.333 0 0 1 .333.333v.48a.667.667 0 0 1-.505.647l-.828.206Zm-12 1v1.334a.667.667 0 0 0 .666.666h2.164a.334.334 0 0 0 .293-.49c-.537-1.007-1.578-1.51-3.123-1.51Zm10.666 0c-1.544 0-2.586.504-3.124 1.51a.334.334 0 0 0 .294.49h2.164a.667.667 0 0 0 .666-.666V9.997ZM4 3.997 2.96 7.12a.667.667 0 0 0 .631.877h8.818a.667.667 0 0 0 .632-.877L12 3.997H4Z" fill="#C4C4C4"/></svg><svg fill="none" viewBox="0 0 16 16" id="character-14" xmlns="http://www.w3.org/2000/svg"><path fill="none" d="M16 0H0v16h16z"/><g fill="#C4C4C4"><path d="M2.666 4.545c1.062-.91 2.471-1.412 3.969-1.412.424 0 .811.156 1.152.464.296.269.552.65.76 1.135.373.867.578 2.028.578 3.268 0 1.241-.205 2.402-.578 3.269-.208.484-.464.866-.76 1.135-.34.308-.728.464-1.152.464-1.498 0-2.907-.501-3.97-1.412A4.881 4.881 0 0 1 1.45 9.91a4.28 4.28 0 0 1 0-3.818c.286-.58.695-1.1 1.216-1.546ZM10.655 3.672H14.6a.4.4 0 0 1 0 .8h-3.945a.4.4 0 0 1 0-.8ZM10.655 11.64H14.6a.4.4 0 0 1 0 .8h-3.945a.4.4 0 0 1 0-.8ZM10.655 7.656H14.6a.4.4 0 0 1 0 .8h-3.945a.4.4 0 0 1 0-.8Z"/></g></svg><svg fill="none" viewBox="0 0 16 16" id="character-15" xmlns="http://www.w3.org/2000/svg"><path fill="none" d="M0 0h16v16H0z"/><path d="M8 .484a7.515 7.515 0 1 0 0 15.031A7.515 7.515 0 0 0 8 .485Zm5.563 7.152h-3.382a.54.54 0 0 1-.38-.921l2.39-2.39a5.571 5.571 0 0 1 1.372 3.31Zm-5.2-5.2a5.559 5.559 0 0 1 3.312 1.374L9.285 6.2a.54.54 0 0 1-.922-.38V2.436Zm-.727 0v3.382a.54.54 0 0 1-.921.38l-2.39-2.39a5.571 5.571 0 0 1 3.31-1.372ZM3.81 4.324l2.39 2.39c.34.34.1.922-.38.922H2.436A5.559 5.559 0 0 1 3.81 4.324Zm-1.374 4.04h3.382a.54.54 0 0 1 .38.92l-2.39 2.39a5.571 5.571 0 0 1-1.372-3.31Zm5.2 5.2a5.56 5.56 0 0 1-3.312-1.375l2.39-2.39a.54.54 0 0 1 .922.38v3.384ZM7.272 8c0-.4.328-.728.728-.728.4 0 .727.328.727.728A.73.73 0 0 1 8 8.727.73.73 0 0 1 7.272 8Zm1.091 5.563v-3.382a.54.54 0 0 1 .921-.38l2.39 2.39a5.572 5.572 0 0 1-3.31 1.372Zm3.826-1.888-2.39-2.39a.54.54 0 0 1 .38-.922h3.382a5.541 5.541 0 0 1-1.372 3.312Z" fill="#C4C4C4"/></svg><svg fill="none" viewBox="0 0 16 16" id="character-16" xmlns="http://www.w3.org/2000/svg"><path fill="none" d="M0 0h16v16H0z"/><path d="M4.78 15.95a.469.469 0 0 1-.255-.485l.928-6.494H1.977a.469.469 0 0 1-.42-.679L5.574.26A.469.469 0 0 1 5.994 0h7.028a.469.469 0 0 1 .42.678l-2.674 5.347h3.259a.469.469 0 0 1 .331.8L5.32 15.863a.469.469 0 0 1-.54.087Z" fill="#C4C4C4"/></svg><svg fill="none" viewBox="0 0 16 16" id="character-17" xmlns="http://www.w3.org/2000/svg"><path fill="none" d="M0 0h16v16H0z"/><g fill="#C4C4C4"><path d="M15.219.576a.943.943 0 0 0-1.09.77l-.132.59a1.48 1.48 0 0 0 .08.9 2.822 2.822 0 0 1 .309-.019c.506 0 .982.154 1.354.429l.25-1.592A.943.943 0 0 0 15.22.576ZM0 4.5v1.875c0 .259.21.469.469.469h.917V4.03H.469A.469.469 0 0 0 0 4.5ZM3.262 2.883a.47.47 0 0 0-.938 0v5.109a.47.47 0 0 0 .938 0v-5.11ZM6.472 10.11c.727 0 1.38-.532 1.841-1.498.408-.855.633-1.983.633-3.174 0-1.191-.225-2.318-.633-3.174C7.853 1.298 7.2.766 6.473.766c-.718 0-1.552.528-2.232 1.414l-.046.06c.003.358 0 6.395 0 6.395l.046.06c.68.887 1.514 1.415 2.231 1.415Z"/><path d="M14.225 3.765c-.64.061-1.202.428-1.672 1.09-.297.418-.555.95-.788 1.623-.602 1.747-.68 3.622-.212 5.145.017.056.036.113.055.17a13.626 13.626 0 0 0-3.394-.679c-1.477-.106-2.834.024-3.922.378a1.502 1.502 0 0 0-.984 1.834l.626 1.793a.469.469 0 0 0 .443.315h8.95c.225 0 .418-.16.46-.381l.308-1.606a.457.457 0 0 0 .006-.054 1.408 1.408 0 0 1-2.4-.995 1.408 1.408 0 0 1 2.64-.676l1.21-6.745a.975.975 0 0 0-.233-.85c-.248-.268-.656-.403-1.093-.362Z"/><path d="M13.11 12.867a.469.469 0 1 0 0-.937.469.469 0 0 0 0 .937Z" fill-rule="evenodd"/></g></svg><svg fill="none" viewBox="0 0 16 16" id="character-18" xmlns="http://www.w3.org/2000/svg"><path fill="none" d="M0 0h16v16H0z"/><path d="M8 0a8 8 0 1 0 8 8 8.009 8.009 0 0 0-8-8ZM2.4 9.906a23.458 23.458 0 0 1 3.606-.507s.387 1.53.569 4.343A5.939 5.939 0 0 1 2.4 9.906ZM8 9.333A.667.667 0 1 1 8 8a.667.667 0 0 1 0 1.333Zm1.425 4.41c.181-2.816.57-4.344.57-4.344 1.213.075 2.418.245 3.605.507a5.94 5.94 0 0 1-4.175 3.836ZM8 6.666a17.42 17.42 0 0 0-5.91 1.057 5.916 5.916 0 0 1 11.82.044A16.809 16.809 0 0 0 8 6.667Z" fill="#C4C4C4"/></svg><svg fill="none" viewBox="0 0 16 16" id="character-19" xmlns="http://www.w3.org/2000/svg"><path fill="none" d="M0 0h16v16H0z"/><path d="M13.069 11.598c-.21-.24-.503-.39-.82-.418-.285-1.11-.25-2.787-.183-4.03A2.02 2.02 0 0 0 10.274 5H9.249v-.5h.092a.713.713 0 0 0 .553-.272 1 1 0 0 0 .19-.823l-.25-1.217a.795.795 0 0 0-.735-.688h-2.2a.795.795 0 0 0-.75.688l-.25 1.217a1 1 0 0 0 .19.823.712.712 0 0 0 .567.272h.093V5H5.724a2.022 2.022 0 0 0-.823.277 2.017 2.017 0 0 0-.98 1.863c.075 1.25.103 2.92-.182 4.03a1.235 1.235 0 0 0-1.085 1.485 2.322 2.322 0 0 0 2.27 1.845h6.15a2.323 2.323 0 0 0 2.27-1.835 1.214 1.214 0 0 0-.275-1.067ZM7.249 4.5h1.5V5h-1.5v-.5Zm-1.475 1h.242l4.043 4.713 1.125 1.312-.045.02-.105.05-.13.057-.125.05-.075.03-5-5.842-.25-.302c.103-.042.21-.071.32-.088Z" fill="#C4C4C4"/></svg><svg fill="none" viewBox="0 0 16 16" id="character-2" xmlns="http://www.w3.org/2000/svg"><path fill="none" d="M0 0h16v16H0z"/><path d="m15.788 7.711-1.795-1.363a.535.535 0 0 0-.86.427v.834H12.6v-.843a.536.536 0 0 0-.536-.536h-1.067V4.24a.536.536 0 0 0-.536-.536H8.795v-.57h.449a.536.536 0 0 0 0-1.071H5.781a.536.536 0 0 0 0 1.072h.45v.569H4.157a.536.536 0 0 0-.536.536v1.046H2.575a.536.536 0 0 0-.536.536v1.226h-.967v-1.52a.536.536 0 0 0-1.072 0v5.606a.536.536 0 1 0 1.072 0v-1.52h.967v1.256c0 .296.24.536.536.536h1.348l1.891 2.33a.536.536 0 0 0 .416.197h5.836c.296 0 .535-.24.535-.536v-.708h.532v.708a.536.536 0 0 0 .885.407l1.795-1.539a.536.536 0 0 0 .187-.407v-3.72a.537.537 0 0 0-.212-.427Z" fill="#C4C4C4"/></svg><svg fill="none" viewBox="0 0 16 16" id="character-21" xmlns="http://www.w3.org/2000/svg"><path fill="none" d="M0 0h16v16H0z"/><path d="M15 5.777v4.475c0 .575-.475 1.05-1.05 1.05h-1.675c-.575 0-1.05-.475-1.05-1.05v-1.45c0-.575-.475-1.05-1.05-1.05H5.8c-.575 0-1.05.475-1.05 1.05v1.45c0 .575-.475 1.05-1.05 1.05H2.05c-.575 0-1.05-.475-1.05-1.05V5.777c0-.575.475-1.05 1.05-1.05h11.925c.55 0 1.025.475 1.025 1.05Z" fill="#C4C4C4"/></svg><svg fill="none" viewBox="0 0 16 16" id="character-22" xmlns="http://www.w3.org/2000/svg"><path fill="none" d="M0 0h16v16H0z"/><path d="M11.164 10.304V2.18c0-1.202-.978-2.18-2.18-2.18-1.201 0-2.179.978-2.179 2.18v8.124C4.582 12.303 6 16 8.985 16c2.982 0 4.402-3.697 2.179-5.696ZM9.993 7.155H7.976V2.18a1.01 1.01 0 0 1 2.017 0v4.976ZM5.32 7.414h-.985a.585.585 0 0 0 0 1.17h.984a.585.585 0 0 0 0-1.17ZM5.32 5.484h-.985a.585.585 0 0 0 0 1.171h.984a.585.585 0 0 0 0-1.17ZM5.32 3.555h-.985a.585.585 0 0 0 0 1.17h.984a.585.585 0 0 0 0-1.17Z" fill="#C4C4C4"/></svg><svg fill="none" viewBox="0 0 16 16" id="character-23" xmlns="http://www.w3.org/2000/svg"><path fill="none" d="M0 0h16v16H0z"/><path d="M3.656 10.366h3.73v1.344c-.52.185-.93.594-1.118 1.115H3.206a.615.615 0 1 0 0 1.23h3.061A1.847 1.847 0 0 0 8 15.29c.8 0 1.479-.518 1.733-1.234h3.061a.615.615 0 1 0 0-1.23H9.732a1.843 1.843 0 0 0-1.116-1.115v-1.344h3.729c1.335 0 2.234-.775 2.234-1.926V2.94A2.232 2.232 0 0 0 12.345.71h-8.69c-1.23 0-2.233.997-2.233 2.228V8.44c0 1.15.898 1.926 2.234 1.926ZM6.062 4.2c0-.37.19-.701.517-.892.32-.185.701-.185 1.028 0l2.326 1.335a1.029 1.029 0 0 1 0 1.785L7.607 7.763a1.005 1.005 0 0 1-1.028 0 1.009 1.009 0 0 1-.517-.892V4.2Z" fill="#C4C4C4"/></svg><svg fill="none" viewBox="0 0 16 16" id="character-3" xmlns="http://www.w3.org/2000/svg"><path fill="none" d="M0 0h16v16H0z"/><path d="M12.516 5.66c.961 0 1.743-.782 1.743-1.744V1.744C14.26.782 13.477 0 12.516 0c-.962 0-1.744.782-1.744 1.744v.392H5.23v-.392C5.23.782 4.447 0 3.486 0c-.962 0-1.744.782-1.744 1.744v2.172c0 .962.782 1.744 1.744 1.744.961 0 1.743-.782 1.743-1.744v-.392h2.078V8.12h-.694a.52.52 0 0 0-.52.52v2.84c0 .288.232.521.52.521h.694v.475H5.229v-.392c0-.962-.782-1.744-1.743-1.744-.962 0-1.744.782-1.744 1.744v2.172c0 .962.782 1.744 1.744 1.744.961 0 1.743-.782 1.743-1.744v-.392h5.543v.392c0 .962.782 1.744 1.744 1.744.961 0 1.743-.782 1.743-1.744v-2.172c0-.962-.782-1.744-1.743-1.744-.962 0-1.744.782-1.744 1.744v.392H8.695v-.475h.758a.52.52 0 0 0 .52-.52V8.64a.52.52 0 0 0-.52-.521h-.758V3.524h2.077v.392c0 .962.782 1.744 1.744 1.744Z" fill="#C4C4C4"/></svg><svg fill="none" viewBox="0 0 16 16" id="character-4" xmlns="http://www.w3.org/2000/svg"><path fill="none" d="M0 0h16v16H0z"/><path d="m15.788 7.711-1.795-1.363a.535.535 0 0 0-.86.427v.834H12.6v-.843a.536.536 0 0 0-.536-.536h-1.067V4.24a.536.536 0 0 0-.536-.536H8.795v-.57h.449a.536.536 0 0 0 0-1.071H5.781a.536.536 0 0 0 0 1.072h.45v.569H4.157a.536.536 0 0 0-.536.536v1.046H2.575a.536.536 0 0 0-.536.536v1.226h-.967v-1.52a.536.536 0 0 0-1.072 0v5.606a.536.536 0 1 0 1.072 0v-1.52h.967v1.256c0 .296.24.536.536.536h1.348l1.891 2.33a.536.536 0 0 0 .416.197h5.836c.296 0 .535-.24.535-.536v-.708h.532v.708a.536.536 0 0 0 .885.407l1.795-1.539a.536.536 0 0 0 .187-.407v-3.72a.537.537 0 0 0-.212-.427Z" fill="#C4C4C4"/></svg><svg fill="none" viewBox="0 0 16 16" id="character-5" xmlns="http://www.w3.org/2000/svg"><path fill="none" d="M0 0h16v16H0z"/><path d="M15.568 9.681c-.334-3.697-3.364-6.645-7.067-6.884a7.6 7.6 0 0 0-7.8 9.714 1 1 0 0 0 1.3.658c1.629-.576 3.718-.922 5.997-.922 2.28 0 4.369.346 5.997.922a.996.996 0 0 0 1.296-.647 7.64 7.64 0 0 0 .277-2.84ZM7.6 3.715h.797v1.646H7.6V3.715ZM2.979 10.78H1.332v-.798H2.98v.798Zm1.188-3.667L3.003 5.95l.564-.563L4.73 6.55l-.563.563Zm4.438 3.875a.86.86 0 0 1-1.213 0 .86.86 0 0 1 0-1.213l2.845-2.08.447.448-2.08 2.845Zm3.225-3.875-.564-.563 1.164-1.164.564.563-1.164 1.164Zm2.834 3.667h-1.646v-.798h1.646v.798Z" fill="#C4C4C4"/></svg><svg fill="none" viewBox="0 0 16 16" id="character-6" xmlns="http://www.w3.org/2000/svg"><path fill="none" d="M0 0h16v16H0z"/><path d="M12.667 6.667H9V5.135a2.668 2.668 0 0 0 1.667-2.468A2.67 2.67 0 0 0 8 0a2.67 2.67 0 0 0-2.667 2.667c0 1.116.691 2.071 1.667 2.468v5.198a1.001 1.001 0 0 0 2 0V10h1.333c.185 0 .334-.15.334-.333v-1a.667.667 0 0 1 1.333 0V14a.667.667 0 0 1-1.333 0v-1.667a.333.333 0 0 0-.334-.333H9a.333.333 0 0 0-.333.333V14a.667.667 0 0 1-1.334 0v-1.667A.333.333 0 0 0 7 12H5.667a.333.333 0 0 0-.334.333V14A.667.667 0 0 1 4 14V8.667a.667.667 0 0 1 1.333 0v1c0 .184.15.333.334.333H6c.184 0 .333-.15.333-.333V7A.333.333 0 0 0 6 6.667H3.333C2.598 6.667 2 7.265 2 8v6.667C2 15.402 2.598 16 3.333 16h9.334c.735 0 1.333-.598 1.333-1.333V8c0-.735-.598-1.333-1.333-1.333ZM7.167 2A.5.5 0 1 1 7.168.998.5.5 0 0 1 7.167 2Z" fill="#C4C4C4"/></svg><svg fill="none" viewBox="0 0 16 16" id="character-7" xmlns="http://www.w3.org/2000/svg"><path d="M8 0a8 8 0 1 0 8 8 8.009 8.009 0 0 0-8-8ZM2.4 9.906a23.458 23.458 0 0 1 3.606-.507s.387 1.53.569 4.343A5.939 5.939 0 0 1 2.4 9.906ZM8 9.333A.667.667 0 1 1 8 8a.667.667 0 0 1 0 1.333Zm1.425 4.41c.181-2.816.57-4.344.57-4.344 1.213.075 2.418.245 3.605.507a5.94 5.94 0 0 1-4.175 3.836ZM8 6.666a17.42 17.42 0 0 0-5.91 1.057 5.916 5.916 0 0 1 11.82.044A16.809 16.809 0 0 0 8 6.667Z" fill="#C4C4C4"/></svg><svg fill="none" viewBox="0 0 16 16" id="character-8" xmlns="http://www.w3.org/2000/svg"><path fill="none" d="M0 0h16v16H0z"/><g fill="#C4C4C4"><path d="M10.142 1.75a5 5 0 0 0-4.084 2.115l-1.214 1.72-2.047.748A3.5 3.5 0 0 0 .5 9.62v.88a2 2 0 0 0 2 2h1.837a3.25 3.25 0 1 1 6.326 0H14.5a1 1 0 0 0 1-1V2.75a1 1 0 0 0-1-1h-4.358Z"/><path d="M7.5 9.25a2.5 2.5 0 1 0 0 5 2.5 2.5 0 0 0 0-5Z"/></g></svg><svg fill="none" viewBox="0 0 16 16" id="character-9" xmlns="http://www.w3.org/2000/svg"><path fill="none" d="M0 0h16v16H0z"/><path d="M12.516 5.66c.961 0 1.743-.782 1.743-1.744V1.744C14.26.782 13.477 0 12.516 0c-.962 0-1.744.782-1.744 1.744v.392H5.23v-.392C5.23.782 4.447 0 3.486 0c-.962 0-1.744.782-1.744 1.744v2.172c0 .962.782 1.744 1.744 1.744.961 0 1.743-.782 1.743-1.744v-.392h2.078V8.12h-.694a.52.52 0 0 0-.52.52v2.84c0 .288.232.521.52.521h.694v.475H5.229v-.392c0-.962-.782-1.744-1.743-1.744-.962 0-1.744.782-1.744 1.744v2.172c0 .962.782 1.744 1.744 1.744.961 0 1.743-.782 1.743-1.744v-.392h5.543v.392c0 .962.782 1.744 1.744 1.744.961 0 1.743-.782 1.743-1.744v-2.172c0-.962-.782-1.744-1.743-1.744-.962 0-1.744.782-1.744 1.744v.392H8.695v-.475h.758a.52.52 0 0 0 .52-.52V8.64a.52.52 0 0 0-.52-.521h-.758V3.524h2.077v.392c0 .962.782 1.744 1.744 1.744Z" fill="#C4C4C4"/></svg><svg viewBox="0 0 11 8" id="check" xmlns="http://www.w3.org/2000/svg"><defs><clipPath id="bna"><path fill="#fff" d="M0 0h11v8H0z"/></clipPath></defs><g clip-path="url(#bna)"><path d="M10.707.293a1 1 0 0 1 0 1.414l-6 6a1 1 0 0 1-1.414 0l-3-3a1 1 0 0 1 1.414-1.414L4 5.586 9.293.293a1 1 0 0 1 1.414 0" fill="#fff" fill-rule="evenodd"/></g></svg><svg fill="none" viewBox="0 0 28 28" id="check-success" xmlns="http://www.w3.org/2000/svg"><path fill="none" d="M0 0h28v28H0z"/><path d="M23.335 7 10.5 19.833 4.668 14" stroke="#FFF" stroke-linecap="round" stroke-linejoin="round" stroke-width="2.333"/></svg><svg fill="none" viewBox="0 0 24 24" id="copy" xmlns="http://www.w3.org/2000/svg"><path fill="none" d="M0 0h24v24H0z"/><path d="M11 10a1 1 0 0 0-1 1v9a1 1 0 0 0 1 1h9a1 1 0 0 0 1-1v-9a1 1 0 0 0-1-1h-9Zm-3 1a3 3 0 0 1 3-3h9a3 3 0 0 1 3 3v9a3 3 0 0 1-3 3h-9a3 3 0 0 1-3-3v-9Z" fill="#FEFEFE" fill-rule="evenodd"/><path d="M4 3a1 1 0 0 0-1 1v9a1 1 0 0 0 1 1h1a1 1 0 1 1 0 2H4a3 3 0 0 1-3-3V4a3 3 0 0 1 3-3h9a3 3 0 0 1 3 3v1a1 1 0 1 1-2 0V4a1 1 0 0 0-1-1H4Z" fill="#FEFEFE" fill-rule="evenodd"/></svg><svg fill="none" viewBox="0 0 24 24" id="corner-down-right" xmlns="http://www.w3.org/2000/svg"><path fill="none" d="M0 0h24v24H0z"/><path d="m15 10 5 5-5 5" stroke="#151515" stroke-linecap="round" stroke-linejoin="round" stroke-width="2"/><path d="M4 4v7a4 4 0 0 0 4 4h12" stroke="#151515" stroke-linecap="round" stroke-linejoin="round" stroke-width="2"/></svg><svg fill="none" viewBox="0 0 48 48" id="facebook-circle" xmlns="http://www.w3.org/2000/svg"><path fill="none" d="M0 0h48v48H0z"/><path d="M24 4.08c-11 0-20 8.98-20 20.04 0 10 7.32 18.3 16.88 19.8v-14H15.8v-5.8h5.08V19.7c0-5.02 2.98-7.78 7.56-7.78 2.18 0 4.46.38 4.46.38v4.94h-2.52c-2.48 0-3.26 1.54-3.26 3.12v3.76h5.56l-.9 5.8h-4.66v14A20 20 0 0 0 44 24.12c0-11.06-9-20.04-20-20.04Z" fill="#FFF"/></svg><svg fill="none" viewBox="0 0 28 28" id="globe" xmlns="http://www.w3.org/2000/svg"><defs><clipPath id="bra"><path transform="translate(-.5)" fill="#fff" fill-opacity="0" d="M0 0h28v28H0z"/></clipPath></defs><path fill="none" d="M-.5 0h28v28h-28z"/><g clip-path="url(#bra)" stroke="#FFF" stroke-width="2" stroke-linejoin="round"><path d="M13.49 25.66c-6.44 0-11.66-5.22-11.66-11.67 0-6.44 5.22-11.66 11.66-11.66 6.45 0 11.67 5.22 11.67 11.66 0 6.45-5.22 11.67-11.67 11.67Z"/><path d="M1.83 14h23.33" stroke-linecap="round"/><path d="M18.16 13.99c-.09 4.33-1.75 8.48-4.67 11.67a17.875 17.875 0 0 1-4.66-11.67 17.87 17.87 0 0 1 4.66-11.66c2.92 3.19 4.58 7.34 4.67 11.66Z"/></g></svg><svg fill="none" viewBox="0 0 38 38" id="help-circle" xmlns="http://www.w3.org/2000/svg"><path fill="none" d="M0 0h38v38H0z"/><path d="M19.003 4.75c-7.87 0-14.25 6.38-14.25 14.25s6.38 14.25 14.25 14.25 14.25-6.38 14.25-14.25-6.38-14.25-14.25-14.25ZM1.586 19c0-9.618 7.798-17.416 17.417-17.416 9.619 0 17.416 7.798 17.416 17.417 0 9.619-7.797 17.416-17.416 17.416-9.62 0-17.417-7.797-17.417-17.416Z" fill="#FEFEFE" fill-rule="evenodd"/><path d="M19.409 12.704a3.167 3.167 0 0 0-3.523 2.07 1.583 1.583 0 0 1-2.987-1.05 6.333 6.333 0 0 1 12.307 2.11c0 2.423-1.797 4.023-3.08 4.878a12.733 12.733 0 0 1-2.669 1.344l-.055.02-.018.005-.006.002-.002.001s-.002 0-.503-1.501l.5 1.502a1.583 1.583 0 0 1-1.002-3.004h-.002.002l.025-.009.118-.043a9.58 9.58 0 0 0 1.856-.951c1.092-.728 1.67-1.503 1.67-2.245v-.003a3.167 3.167 0 0 0-2.631-3.126ZM17.414 26.917c0-.874.709-1.583 1.583-1.583h.016a1.583 1.583 0 1 1 0 3.167h-.016a1.583 1.583 0 0 1-1.583-1.584Z" fill="#FEFEFE" fill-rule="evenodd"/></svg><svg fill="none" viewBox="0 0 24 24" id="i-accessability" xmlns="http://www.w3.org/2000/svg"><path d="M1.06 11.65a10.77 10.77 0 0 1 3.96-4.84C6.78 5.63 8.87 5 11 5a10.722 10.722 0 0 1 9.93 6.65c.09.22.09.47 0 .69A10.722 10.722 0 0 1 11 18.99c-2.13 0-4.22-.63-5.98-1.81a10.77 10.77 0 0 1-3.96-4.84.915.915 0 0 1 0-.69Z" stroke-width="2" stroke-linejoin="round"/><path d="M11 15c-1.66 0-3-1.35-3-3 0-1.66 1.34-3 3-3 1.65 0 3 1.34 3 3 0 1.65-1.35 3-3 3Z" stroke-width="2" stroke-linejoin="round"/></svg><svg fill="none" viewBox="0 0 24 24" id="i-alert-circle" xmlns="http://www.w3.org/2000/svg"><path fill="none" d="M0 0h24v24H0z"/><path d="M12 3a9 9 0 1 0 0 18 9 9 0 0 0 0-18ZM1 12C1 5.925 5.925 1 12 1s11 4.925 11 11-4.925 11-11 11S1 18.075 1 12Z" fill="#FEFEFE" fill-rule="evenodd"/><path d="M12 7a1 1 0 0 1 1 1v4a1 1 0 1 1-2 0V8a1 1 0 0 1 1-1ZM11 16a1 1 0 0 1 1-1h.01a1 1 0 1 1 0 2H12a1 1 0 0 1-1-1Z" fill="#FEFEFE" fill-rule="evenodd"/></svg><svg fill="none" viewBox="0 0 24 24" id="i-arrow-down" xmlns="http://www.w3.org/2000/svg"><path fill="none" d="M0 0h24v24H0z"/><path d="M5.293 8.293a1 1 0 0 1 1.414 0L12 13.586l5.293-5.293a1 1 0 1 1 1.414 1.414l-6 6a1 1 0 0 1-1.414 0l-6-6a1 1 0 0 1 0-1.414Z" fill="#000" fill-rule="evenodd"/></svg><svg fill="none" viewBox="0 0 24 25" id="i-arrow-two-right-static" xmlns="http://www.w3.org/2000/svg"><path d="m9 18.5 6-6-6-6" stroke="#2b2b2b" stroke-width="1.5" stroke-linecap="round" stroke-linejoin="round"/></svg><svg fill="none" viewBox="0 0 39.602 39.598" id="i-arrow-up-right" xmlns="http://www.w3.org/2000/svg"><path fill="none" d="m19.8 0 19.8 19.799-19.8 19.799L.003 19.799z"/><path d="M11.551 19.797h16.5M19.8 11.547l8.25 8.25-8.25 8.25" stroke="#0097FA" stroke-linecap="round" stroke-linejoin="round" stroke-width="2.333"/></svg><svg fill="none" viewBox="0 0 24 24" id="i-bar-chart" xmlns="http://www.w3.org/2000/svg"><path fill="none" d="M0 0h24v24H0z"/><path d="M17 20V10a1 1 0 1 1 2 0v10a1 1 0 1 1-2 0ZM11 20V4a1 1 0 1 1 2 0v16a1 1 0 1 1-2 0ZM5 20v-6a1 1 0 1 1 2 0v6a1 1 0 1 1-2 0Z" fill="#FEFEFE"/></svg><svg fill="none" viewBox="0 0 24 24" id="i-calendar" xmlns="http://www.w3.org/2000/svg"><path fill="none" d="M0 0h24v24H0z"/><path d="M5 5a1 1 0 0 0-1 1v14a1 1 0 0 0 1 1h14a1 1 0 0 0 1-1V6a1 1 0 0 0-1-1H5ZM2 6a3 3 0 0 1 3-3h14a3 3 0 0 1 3 3v14a3 3 0 0 1-3 3H5a3 3 0 0 1-3-3V6Z" fill="#9A9A9A" fill-rule="evenodd"/><path d="M16 1a1 1 0 0 1 1 1v4a1 1 0 1 1-2 0V2a1 1 0 0 1 1-1ZM8 1a1 1 0 0 1 1 1v4a1 1 0 0 1-2 0V2a1 1 0 0 1 1-1ZM2 10a1 1 0 0 1 1-1h18a1 1 0 1 1 0 2H3a1 1 0 0 1-1-1Z" fill="#9A9A9A" fill-rule="evenodd"/></svg><svg fill="none" viewBox="0 0 24 24" id="i-check" xmlns="http://www.w3.org/2000/svg"><g clip-path="url(#clip406_3586)"><rect x="4" y="4" rx="2" width="16" height="16" fill="#00AFFF"/><path d="m16.79 10.21-5.53 5.58c-.07.07-.14.12-.23.15a.583.583 0 0 1-.52 0 .574.574 0 0 1-.23-.15L7.2 12.66a.697.697 0 0 1 0-.98l1.03-1.05c.13-.13.3-.2.49-.2.18 0 .35.07.48.2l1.58 1.54h.01l3.99-3.97a.697.697 0 0 1 .98 0l1.03 1.02c.07.07.12.14.15.23.04.08.05.17.06.27 0 .09-.02.18-.06.26-.03.09-.08.16-.15.23Z" fill="#FFF" fill-rule="evenodd"/></g></svg><svg fill="none" clip-path="url(#caa)" viewBox="0 0 20 20" id="i-check-2" xmlns="http://www.w3.org/2000/svg"><defs><clipPath id="caa"><rect width="20" height="20" rx="4"/></clipPath></defs><rect width="20" height="20" rx="4"/><rect width="19" height="19" x=".5" y=".5" rx="3.5" stroke="#D2D5DA"/></svg><svg fill="none" clip-path="url(#cba)" viewBox="0 0 24 24" id="i-check-empty" xmlns="http://www.w3.org/2000/svg"><defs><clipPath id="cba"><rect width="24" height="24" rx="2" fill="#FFF"/></clipPath><clipPath id="cbb"><path fill="#FFF" d="M3.602 3.602h16.8v16.8h-16.8z"/></clipPath></defs><rect width="24" height="24" rx="2" fill="#FEFEFE"/><rect width="23" height="23" x=".5" y=".5" rx="1.5" stroke="#E0E0E0"/></svg><svg fill="none" viewBox="0 0 24 24" id="i-check-without-bg" xmlns="http://www.w3.org/2000/svg"><defs><clipPath id="cca"><path fill="#fff" fill-opacity="0" d="M0 0h24v24H0z"/></clipPath></defs><g clip-path="url(#cca)"><path d="m20.05 9.54-8.86 8.85c-.1.1-.22.18-.36.24-.13.05-.27.08-.42.08-.14 0-.29-.03-.42-.08a1.26 1.26 0 0 1-.36-.24l-4.94-4.96c-.2-.21-.32-.49-.32-.78 0-.3.12-.58.32-.78l1.66-1.66c.21-.2.48-.32.78-.32.29 0 .57.11.78.32l2.52 2.43.01.01 6.39-6.3c.21-.21.49-.32.78-.32.29 0 .57.11.78.32l1.65 1.62c.11.1.19.23.25.36.05.13.08.28.08.42 0 .15-.03.29-.08.43-.06.13-.14.25-.24.36Z" fill="#FFF"/></g></svg><svg fill="none" viewBox="0 0 24 24" id="i-clock" xmlns="http://www.w3.org/2000/svg"><path fill="none" d="M0 0h24v24H0z"/><path d="M12 3a9 9 0 1 0 0 18 9 9 0 0 0 0-18ZM1 12C1 5.925 5.925 1 12 1s11 4.925 11 11-4.925 11-11 11S1 18.075 1 12Z" fill="#151515" fill-rule="evenodd"/><path d="M12 5a1 1 0 0 1 1 1v5.382l3.447 1.724a1 1 0 1 1-.894 1.788l-4-2A1 1 0 0 1 11 12V6a1 1 0 0 1 1-1Z" fill="#151515" fill-rule="evenodd"/></svg><svg fill="none" viewBox="0 0 24 24" id="i-close" xmlns="http://www.w3.org/2000/svg"><path d="M18 6 6 18M6 6l12 12" stroke="#2B2B2B" stroke-width="2" stroke-linecap="round" stroke-linejoin="round"/></svg><svg fill="none" viewBox="0 0 40 40" id="i-copy" xmlns="http://www.w3.org/2000/svg"><path fill="none" d="M0 0h40v40H0z"/><path d="M18.332 16.667c-.92 0-1.667.746-1.667 1.667v15c0 .92.747 1.667 1.667 1.667h15c.92 0 1.667-.746 1.667-1.667v-15c0-.92-.747-1.667-1.667-1.667h-15Zm-5 1.667a5 5 0 0 1 5-5h15a5 5 0 0 1 5 5v15a5 5 0 0 1-5 5h-15a5 5 0 0 1-5-5v-15Z" fill="#FEFEFE" fill-rule="evenodd"/><path d="M6.668 5a1.667 1.667 0 0 0-1.667 1.666v15a1.667 1.667 0 0 0 1.667 1.667h1.667a1.667 1.667 0 1 1 0 3.333H6.668a5 5 0 0 1-5-5v-15a5 5 0 0 1 5-5h15a5 5 0 0 1 5 5v1.667a1.667 1.667 0 0 1-3.333 0V6.666a1.667 1.667 0 0 0-1.667-1.667h-15Z" fill="#FEFEFE" fill-rule="evenodd"/></svg><svg fill="none" viewBox="0 0 24 24" id="i-filter" xmlns="http://www.w3.org/2000/svg"><path fill="none" d="M0 0h24v24H0z"/><path d="M4 13a1 1 0 0 1 1 1v7a1 1 0 1 1-2 0v-7a1 1 0 0 1 1-1ZM4 2a1 1 0 0 1 1 1v7a1 1 0 1 1-2 0V3a1 1 0 0 1 1-1ZM12 11a1 1 0 0 1 1 1v9a1 1 0 1 1-2 0v-9a1 1 0 0 1 1-1ZM12 2a1 1 0 0 1 1 1v5a1 1 0 1 1-2 0V3a1 1 0 0 1 1-1ZM20 15a1 1 0 0 1 1 1v5a1 1 0 1 1-2 0v-5a1 1 0 0 1 1-1ZM20 2a1 1 0 0 1 1 1v9a1 1 0 1 1-2 0V3a1 1 0 0 1 1-1Z" fill="#FEFEFE" fill-rule="evenodd"/><path d="M0 14a1 1 0 0 1 1-1h6a1 1 0 1 1 0 2H1a1 1 0 0 1-1-1ZM8 8a1 1 0 0 1 1-1h6a1 1 0 1 1 0 2H9a1 1 0 0 1-1-1ZM16 16a1 1 0 0 1 1-1h6a1 1 0 1 1 0 2h-6a1 1 0 0 1-1-1Z" fill="#FEFEFE" fill-rule="evenodd"/></svg><svg fill="none" viewBox="0 0 24 24" id="i-money-integral" xmlns="http://www.w3.org/2000/svg"><path fill="none" d="M0 0h24v24H0z"/><path d="M22.313 5.949c0-1.926-2.58-3.379-6-3.379-3.421 0-6 1.453-6 3.379 0 .017.003.033.004.05h-.005V8.57h1.715v-.212c1.073.605 2.573.968 4.286.968 1.579 0 2.974-.312 4.024-.835.163.168.261.336.261.482 0 .663-1.709 1.664-4.285 1.664h-1.714v1.714h1.713c1.58 0 2.976-.312 4.026-.835.162.168.26.335.26.482 0 .663-1.71 1.665-4.286 1.665l-.607.002c-.372.004-.734.007-1.086-.002l-.042 1.713c.189.005.38.007.574.007l.567-.003.594-.003c1.58 0 2.977-.313 4.027-.837.163.17.259.338.259.484 0 .662-1.71 1.664-4.286 1.664h-1.714v1.714h1.714c1.58 0 2.977-.313 4.027-.836.163.169.259.337.259.483 0 .663-1.71 1.664-4.286 1.664h-1.714v1.714h1.714c3.42 0 6-1.452 6-3.378l-.003-.05h.003v-12h-.004c0-.017.005-.034.005-.05Zm-10.286 0c0-.663 1.709-1.664 4.286-1.664 2.576 0 4.285 1.001 4.285 1.664 0 .662-1.709 1.663-4.285 1.663-2.577 0-4.286-1.001-4.286-1.663Z" fill="#FEFEFE"/><path d="M7.742 8.57c-3.42 0-6 1.453-6 3.379 0 .017.004.033.004.05h-.004v6c0 1.926 2.58 3.378 6 3.378s6-1.452 6-3.378v-6h-.004c0-.017.004-.033.004-.05 0-1.926-2.58-3.379-6-3.379Zm-4.286 6.404c0-.148.097-.315.26-.483 1.05.523 2.446.836 4.026.836 1.58 0 2.975-.313 4.025-.836.162.169.261.336.261.483 0 .662-1.71 1.663-4.286 1.663-2.576 0-4.286-1.001-4.286-1.663Zm4.286-4.69c2.577 0 4.286 1.002 4.286 1.665 0 .662-1.71 1.663-4.286 1.663-2.576 0-4.286-1.001-4.286-1.663 0-.663 1.71-1.664 4.286-1.664Zm0 9.379c-2.576 0-4.286-1.001-4.286-1.664 0-.147.098-.315.26-.483 1.05.523 2.446.836 4.026.836 1.58 0 2.976-.313 4.025-.836.163.169.26.336.26.483.001.663-1.708 1.664-4.285 1.664Z" fill="#FEFEFE"/></svg><svg fill="none" viewBox="0 0 24 24" id="i-partners" xmlns="http://www.w3.org/2000/svg"><path fill="none" d="M0 0h24v24H0z"/><g fill="#FEFEFE"><path d="M9.201 6.9a2.95 2.95 0 0 1 2.3-.85 3.8 3.8 0 0 1 2.6 1.1c1.45 1.4 1.7 3.6.5 4.85a1.05 1.05 0 0 0 0 1.45 1.2 1.2 0 0 0 .7.25.9.9 0 0 0 .7-.3c1.6-1.65 1.75-4.1.65-6.15h.35a3.05 3.05 0 0 0 2.25-.95 3.15 3.15 0 0 0-.1-4.45 3.25 3.25 0 0 0-2.15-.85 3.3 3.3 0 0 0-2.3.95 3.151 3.151 0 0 0-.8 2.65 5.6 5.6 0 0 0-2.35-.55 4.75 4.75 0 0 0-3.8 1.5 1 1 0 1 0 1.45 1.35Z"/><path d="M10.7 19.2C9 18.75 8 16.8 8.5 14.85c.5-1.95 2.25-3.3 3.95-2.85a.998.998 0 0 0 1.2-.75.947.947 0 0 0-.348-1.04.95.95 0 0 0-.351-.16A5.2 5.2 0 0 0 7.3 12.6a3.15 3.15 0 0 0-2.15-1.8l-.7-.1a3.15 3.15 0 0 0-3.05 2.4 3.1 3.1 0 0 0 2.3 3.8l.75.1a3.1 3.1 0 0 0 1.95-.7 5.25 5.25 0 0 0 3.85 4.85h.2a1 1 0 0 0 1-.75.949.949 0 0 0-.75-1.2Z"/><path d="M20.249 16.95a5.949 5.949 0 0 0 1.65-1.7 4.9 4.9 0 0 0 .6-4.05 1 1 0 0 0-1.25-.7 1 1 0 0 0-.65 1.25 2.8 2.8 0 0 1-.4 2.4 4.1 4.1 0 0 1-2.25 1.7c-1.95.6-3.95-.35-4.45-2a1 1 0 0 0-1.25-.7 1 1 0 0 0-.7 1.25 5.25 5.25 0 0 0 5.05 3.6 3.15 3.15 0 0 0 2.5 5 2.85 2.85 0 0 0 .9-.15 3.15 3.15 0 0 0 .25-5.9Z"/></g></svg><svg fill="none" viewBox="0 0 18 18" id="i-refresh" xmlns="http://www.w3.org/2000/svg"><path fill="none" d="M0 0h18v18H0z"/><path d="M14.702 9.476a.743.743 0 0 0-.851.633 4.802 4.802 0 0 1-1.373 2.713 4.88 4.88 0 0 1-6.893 0 4.88 4.88 0 0 1 0-6.893 4.81 4.81 0 0 1 2.627-1.35 4.64 4.64 0 0 1 1.386-.042 4.81 4.81 0 0 1 1.849.622l-.976.166a.75.75 0 1 0 .253 1.48l2.618-.448a.751.751 0 0 0 .612-.867l-.448-2.617a.75.75 0 1 0-1.478.253l.118.69a6.317 6.317 0 0 0-2.378-.77 6.077 6.077 0 0 0-1.821.057 6.284 6.284 0 0 0-3.423 1.765 6.382 6.382 0 0 0 0 9.015 6.354 6.354 0 0 0 4.507 1.864 6.354 6.354 0 0 0 4.508-1.864 6.294 6.294 0 0 0 1.796-3.556.75.75 0 0 0-.633-.851Z" fill="#F04437"/></svg><svg fill="none" viewBox="0 0 18 18" id="i-search" xmlns="http://www.w3.org/2000/svg"><path fill="none" d="M0 0h18v18H0z"/><path d="M8.25 3a5.25 5.25 0 1 0 0 10.5 5.25 5.25 0 0 0 0-10.5ZM1.5 8.25a6.75 6.75 0 1 1 13.5 0 6.75 6.75 0 0 1-13.5 0Z" fill="#000" fill-rule="evenodd"/><path d="M11.954 11.958a.75.75 0 0 1 1.06 0l3.263 3.262a.75.75 0 1 1-1.06 1.061l-3.263-3.262a.75.75 0 0 1 0-1.061Z" fill="#000" fill-rule="evenodd"/></svg><svg fill="none" viewBox="0 0 18 18" id="i-star" xmlns="http://www.w3.org/2000/svg"><path fill="none" d="M0 0h18v18H0z"/><path d="m9 1.5 2.318 4.695 5.182.757-3.75 3.653.885 5.16L9 13.327l-4.635 2.438.885-5.16L1.5 6.952l5.183-.757L9 1.5Z" fill="#0097FA"/><path d="M11.318 6.195 9.558 2.63 9 1.5l-.558 1.13-1.76 3.565-3.936.575-1.246.183.902.878 2.848 2.774-.672 3.918-.213 1.242L9 13.327l3.52 1.851 1.115.587-.213-1.242-.672-3.918 2.848-2.774.902-.879-1.246-.182-3.936-.575Zm2.507 4.76.796 4.641a.964.964 0 0 1-.17.746.964.964 0 0 1-.647.409.993.993 0 0 1-.635-.1L9 14.456 4.83 16.65a.964.964 0 0 1-.762.07.964.964 0 0 1-.588-.49.994.994 0 0 1-.1-.634l.795-4.642L.802 7.67A.964.964 0 0 1 .5 6.966a.963.963 0 0 1 .284-.711.993.993 0 0 1 .571-.292l4.663-.682 2.085-4.224A.964.964 0 0 1 8.68.553a.964.964 0 0 1 .764.05.993.993 0 0 1 .454.454l2.085 4.224 4.663.682c.273.04.492.17.657.392a.964.964 0 0 1 .188.742.992.992 0 0 1-.292.572l-3.373 3.285Z" fill="#0097FA" fill-rule="evenodd"/></svg><svg fill="none" viewBox="0 0 48 48" id="instagram-circle" xmlns="http://www.w3.org/2000/svg"><path fill="none" d="M0 0h48v48H0z"/><g fill="#FFF"><path d="M24 27.515a3.53 3.53 0 0 0 3.523-3.524 3.528 3.528 0 0 0-3.516-3.523c-1.171 0-2.21.578-2.85 1.468a3.525 3.525 0 0 0-.665 2.055A3.511 3.511 0 0 0 24 27.515ZM31.688 19.693V16.303h-.438l-2.953.008.015 3.39 3.375-.008Z"/><path d="M29.469 23.999A5.475 5.475 0 0 1 24 29.468a5.475 5.475 0 0 1-5.469-5.469c0-.726.149-1.422.407-2.055h-2.985v8.188c0 1.054.86 1.914 1.914 1.914h12.266c1.055 0 1.914-.86 1.914-1.914v-8.188h-2.984c.265.633.406 1.329.406 2.055Z"/><path d="M24 4C12.953 4 4 12.953 4 24s8.953 20 20 20 20-8.953 20-20S35.047 4 24 4Zm10 17.945v8.188A3.871 3.871 0 0 1 30.133 34H17.867A3.871 3.871 0 0 1 14 30.133V17.859a3.871 3.871 0 0 1 3.867-3.867h12.266A3.871 3.871 0 0 1 34 17.86v4.086Z"/></g></svg><svg fill="none" viewBox="0 0 36 36" id="key" xmlns="http://www.w3.org/2000/svg"><path fill="none" d="M0 0h36v36H0z"/><path d="M32.56 1.94a1.5 1.5 0 0 1 0 2.12L30.62 6l3.44 3.44a1.5 1.5 0 0 1 0 2.12l-5.25 5.25a1.5 1.5 0 0 1-2.121 0l-3.44-3.439-4.12 4.12A9.75 9.75 0 0 1 4.35 30.136l-.01-.012a9.75 9.75 0 0 1 12.646-14.731L30.44 1.939a1.5 1.5 0 0 1 2.121 0ZM16.082 18.533a6.749 6.749 0 1 0 0 0Zm9.289-7.284 2.378 2.379 3.13-3.129-2.38-2.379-3.128 3.129Z" fill="#FEFEFE" fill-rule="evenodd"/></svg><svg fill="none" viewBox="0 0 18 18" id="map-pin" xmlns="http://www.w3.org/2000/svg"><path fill="none" d="M0 0h18v18H0z"/><path d="M9 1.5a6 6 0 0 0-6 6c0 2.324 1.512 4.578 3.17 6.328A22.065 22.065 0 0 0 9 16.329a22.065 22.065 0 0 0 2.83-2.502C13.489 12.079 15 9.825 15 7.5a6 6 0 0 0-6-6Zm0 15.75-.416.624-.003-.002-.005-.003-.017-.012-.062-.042c-.053-.037-.13-.09-.226-.16a23.578 23.578 0 0 1-3.19-2.795C3.363 13.047 1.5 10.427 1.5 7.5a7.5 7.5 0 0 1 15 0c0 2.927-1.863 5.547-3.58 7.36a23.58 23.58 0 0 1-3.417 2.955l-.062.042-.017.012-.005.003-.002.001s-.001.001-.417-.623Zm0 0 .416.624a.75.75 0 0 1-.832 0L9 17.25Z" fill="#FEFEFE" fill-rule="evenodd"/><path d="M9 6a1.5 1.5 0 1 0 0 3 1.5 1.5 0 0 0 0-3ZM6 7.5a3 3 0 1 1 6 0 3 3 0 0 1-6 0Z" fill="#FEFEFE" fill-rule="evenodd"/></svg><svg fill="none" viewBox="0 0 24 24" id="minus" xmlns="http://www.w3.org/2000/svg"><path fill="none" d="M0 0h24v24H0z"/><path d="M4 12a1 1 0 0 1 1-1h14a1 1 0 1 1 0 2H5a1 1 0 0 1-1-1Z" fill="#151515" fill-rule="evenodd"/></svg><svg fill="none" viewBox="0 0 24 24" id="play-video" xmlns="http://www.w3.org/2000/svg"><path fill="none" d="M0 0h24v24H0z"/><path d="m5 3 14 9-14 9V3Z" fill="#0097FA"/></svg><svg fill="none" viewBox="0 0 24 24" id="plus" xmlns="http://www.w3.org/2000/svg"><defs><clipPath id="csa"><path fill="#fff" fill-opacity="0" d="M0 0h24v24H0z"/></clipPath></defs><path fill="none" d="M0 0h24v24H0z"/><g clip-path="url(#csa)" stroke="#000" stroke-width="2" stroke-linejoin="round" stroke-linecap="round"><path d="M12 5v14M5 12h14"/></g></svg><svg fill="none" viewBox="0 0 28 28" id="smile" xmlns="http://www.w3.org/2000/svg"><defs><clipPath id="cta"><path transform="translate(-.5)" fill="#fff" fill-opacity="0" d="M0 0h28v28H0z"/></clipPath></defs><path fill="none" d="M-.5 0h28v28h-28z"/><g clip-path="url(#cta)" stroke="#FFF" stroke-width="2" stroke-linejoin="round"><path d="M13.49 25.66c-6.44 0-11.66-5.22-11.66-11.67 0-6.44 5.22-11.66 11.66-11.66 6.45 0 11.67 5.22 11.67 11.66 0 6.45-5.22 11.67-11.67 11.67Z"/><path d="M8.83 16.33s1.75 2.33 4.66 2.33c2.92 0 4.67-2.33 4.67-2.33M10 10.5h.01M17 10.5h.01" stroke-linecap="round"/></g></svg><svg fill="none" viewBox="0 0 36 36" id="tabler-icon-engine" xmlns="http://www.w3.org/2000/svg"><path fill="none" d="M0 0h36v36H0z"/><path d="M13.5 7.5A1.5 1.5 0 0 1 15 6h6a1.5 1.5 0 0 1 0 3h-1.5v1.5h.573a3.002 3.002 0 0 1 2.683 1.659l2.171 4.34.573.001V15a1.5 1.5 0 0 1 1.5-1.5h3a3 3 0 0 1 3 3v9a3 3 0 0 1-3 3h-3a1.5 1.5 0 0 1-1.5-1.5v-1.5H24V27a3 3 0 0 1-3 3h-5.197a3.002 3.002 0 0 1-2.496-1.335l-2.11-3.165H9A1.5 1.5 0 0 1 7.5 24v-3H6v3a1.5 1.5 0 0 1-3 0v-9a1.5 1.5 0 0 1 3 0v3h1.5v-3A1.5 1.5 0 0 1 9 13.5h2.379l2.56-2.56A1.5 1.5 0 0 1 15 10.5h1.5V9H15a1.5 1.5 0 0 1-1.5-1.5Zm2.121 6-2.56 2.56A1.5 1.5 0 0 1 12 16.5h-1.5v6H12c.502 0 .97.25 1.248.668L15.802 27H21v-3a1.5 1.5 0 0 1 1.5-1.5H27a1.5 1.5 0 0 1 1.5 1.5v1.5H30v-9h-1.5V18a1.5 1.5 0 0 1-1.5 1.5h-2.073a3.003 3.003 0 0 1-2.683-1.659l-2.171-4.34-4.452-.001Z" fill="#FEFEFE" fill-rule="evenodd"/></svg><svg fill="none" viewBox="0 0 28 28" id="tabler-icon-phone" xmlns="http://www.w3.org/2000/svg"><defs><clipPath id="cva"><path fill="#FFF" d="M0 0h28v28H0z"/></clipPath></defs><path fill="none" d="M0 0h28v28H0z"/><g clip-path="url(#cva)"><path fill="none" d="M0 0h28v28H0z"/><path d="M5.832 5.833A1.167 1.167 0 0 0 4.666 6.97a17.5 17.5 0 0 0 16.363 16.363 1.167 1.167 0 0 0 1.136-1.166V18.29l-4.177-1.671-1.239 2.065c-.312.52-.972.714-1.516.446a14 14 0 0 1-6.364-6.364 1.167 1.167 0 0 1 .446-1.516l2.065-1.24-1.671-4.177H5.832ZM3.357 4.525A3.5 3.5 0 0 1 5.832 3.5h4.667c.477 0 .906.29 1.083.733l2.333 5.834c.213.531.008 1.139-.483 1.433l-1.953 1.172a11.667 11.667 0 0 0 3.848 3.847l1.171-1.953a1.167 1.167 0 0 1 1.434-.483l5.833 2.334c.443.177.734.606.734 1.083v4.667a3.5 3.5 0 0 1-3.571 3.497A19.833 19.833 0 0 1 2.332 7a3.5 3.5 0 0 1 1.025-2.475Z" fill="#FEFEFE" fill-rule="evenodd"/></g></svg><svg fill="none" viewBox="0 0 24 28" id="trending-up" xmlns="http://www.w3.org/2000/svg"><defs><clipPath id="cwa"><path transform="translate(-.5)" fill="#fff" fill-opacity="0" d="M0 0h24v28H0z"/></clipPath></defs><path fill="none" d="M-.5 0h24v28h-24z"/><g clip-path="url(#cwa)" stroke="#FFF" stroke-width="2" stroke-linejoin="round" stroke-linecap="round"><path d="M22.5 7 13 18.08l-5-5.83L.5 21"/><path d="M16.5 7h6v7"/></g></svg><svg fill="none" viewBox="0 0 24 24" id="user" xmlns="http://www.w3.org/2000/svg"><path fill="none" d="M0 0h24v24H0z"/><path d="M4.464 15.464A5 5 0 0 1 8 14h8a5 5 0 0 1 5 5v2a1 1 0 1 1-2 0v-2a3 3 0 0 0-3-3H8a3 3 0 0 0-3 3v2a1 1 0 1 1-2 0v-2a5 5 0 0 1 1.464-3.536ZM12 4a3 3 0 1 0 0 6 3 3 0 0 0 0-6ZM7 7a5 5 0 1 1 10 0A5 5 0 0 1 7 7Z" fill="#FEFEFE" fill-rule="evenodd"/></svg><svg fill="none" viewBox="0 0 48 48" id="youtube-circle" xmlns="http://www.w3.org/2000/svg"><path fill="none" d="M0 0h48v48H0z"/><path fill="none" d="M4 4h40v40H4z"/><path d="m21.336 27.852 6.547-3.844-6.547-3.844v7.688Z" fill="#FFF"/><path d="M24 4C12.953 4 4 12.953 4 24s8.953 20 20 20 20-8.953 20-20S35.047 4 24 4Zm10 23.578c0 3.445-3.445 3.445-3.445 3.445h-13.11C14 31.023 14 27.578 14 27.578V20.43c0-3.446 3.445-3.446 3.445-3.446h13.11C34 16.984 34 20.43 34 20.43v7.148Z" fill="#FFF"/></svg></svg>